<svg xmlns="http://www.w3.org/2000/svg" xmlns:svg="http://www.w3.org/2000/svg" xmlns:xlink="http://www.w3.org/1999/xlink" id="Layer_1" width="128" height="128" version="1.1" viewBox="0 0 128 128" xml:space="preserve" style="overflow:visible"><defs id="defs105"><linearGradient id="linearGradient3248"><stop id="stop3250" offset="0" style="stop-color:#fd0;stop-opacity:1"/><stop id="stop3252" offset="1" style="stop-color:#ffec6a;stop-opacity:1"/></linearGradient><radialGradient id="radialGradient9121" cx="102" cy="112.305" r="139.559" gradientUnits="userSpaceOnUse"><stop id="stop9123" offset="0" style="stop-color:#535557;stop-opacity:1"/><stop id="stop9125" offset=".114" style="stop-color:#898a8c;stop-opacity:1"/><stop id="stop9127" offset=".203" style="stop-color:#ececec;stop-opacity:1"/><stop id="stop9129" offset=".236" style="stop-color:#fafafa;stop-opacity:1"/><stop id="stop9131" offset=".272" style="stop-color:#fff;stop-opacity:1"/><stop id="stop9133" offset=".531" style="stop-color:#fafafa;stop-opacity:1"/><stop id="stop9135" offset=".845" style="stop-color:#ebecec;stop-opacity:1"/><stop id="stop9137" offset="1" style="stop-color:#e1e2e3;stop-opacity:1"/></radialGradient><linearGradient id="linearGradient3291"><stop id="stop3293" offset="0" style="stop-color:#000;stop-opacity:1"/><stop id="stop3295" offset="1" style="stop-color:#000;stop-opacity:0"/></linearGradient><radialGradient id="radialGradient3336" cx="63.912" cy="115.709" r="63.912" fx="63.912" fy="115.709" gradientTransform="matrix(1,0,0,0.197802,0,92.82166)" gradientUnits="userSpaceOnUse" xlink:href="#linearGradient3291"/><linearGradient id="linearGradient18668" x1="28" x2="28" y1="57.5" y2="0" gradientUnits="userSpaceOnUse"><stop id="stop18670" offset="0" style="stop-color:#fff8a8;stop-opacity:1"/><stop id="stop18672" offset="1" style="stop-color:#fff;stop-opacity:0"/></linearGradient><linearGradient id="linearGradient15967" x1="28" x2="28" y1="57.5" y2="0" gradientUnits="userSpaceOnUse"><stop id="stop15969" offset="0" style="stop-color:#fff;stop-opacity:1"/><stop id="stop15971" offset="1" style="stop-color:#fff;stop-opacity:0"/></linearGradient><linearGradient id="XMLID_2_" x1="28" x2="28" y1="57.5" y2="0" gradientUnits="userSpaceOnUse"><stop id="stop12" offset="0" style="stop-color:#ffee26;stop-opacity:1"/><stop id="stop14" offset="1" style="stop-color:#fbbf00;stop-opacity:1"/></linearGradient><linearGradient id="linearGradient2391" x1="94.344" x2="86.536" y1="102.345" y2="94.537" gradientUnits="userSpaceOnUse" xlink:href="#XMLID_9_"/><linearGradient id="linearGradient2393" x1="95" x2="86.587" y1="103" y2="94.587" gradientUnits="userSpaceOnUse" xlink:href="#XMLID_10_"/><linearGradient id="linearGradient2395" x1="95" x2="87.293" y1="103" y2="95.293" gradientUnits="userSpaceOnUse" xlink:href="#XMLID_11_"/><linearGradient id="linearGradient2397" x1="96" x2="88" y1="104" y2="96" gradientUnits="userSpaceOnUse" xlink:href="#XMLID_12_"/><radialGradient id="radialGradient2465" cx="102" cy="112.305" r="139.559" gradientUnits="userSpaceOnUse" xlink:href="#XMLID_7_"/><radialGradient id="radialGradient2467" cx="102" cy="112.305" r="139.559" gradientUnits="userSpaceOnUse" xlink:href="#XMLID_8_"/><linearGradient id="linearGradient12378" x1="28" x2="28" y1="57.5" y2="0" gradientUnits="userSpaceOnUse" xlink:href="#XMLID_2_"/><linearGradient id="linearGradient14180" x1="-74.821" x2="-18.122" y1="100.824" y2="100.824" gradientUnits="userSpaceOnUse" xlink:href="#linearGradient2309"/><linearGradient id="linearGradient14189" x1="-74.821" x2="-18.122" y1="100.824" y2="100.824" gradientUnits="userSpaceOnUse" xlink:href="#linearGradient2309"/><linearGradient id="linearGradient15973" x1="27.72" x2="27.72" y1="7.881" y2="30.441" gradientTransform="translate(1.470416e-5,0)" gradientUnits="userSpaceOnUse" xlink:href="#linearGradient15967"/><linearGradient id="linearGradient15977" x1="-74.821" x2="-18.122" y1="100.824" y2="100.824" gradientUnits="userSpaceOnUse" xlink:href="#linearGradient2309"/><radialGradient id="radialGradient15986" cx="26.954" cy="31.045" r="8.968" fx="26.954" fy="31.045" gradientTransform="matrix(0.754978,-0.02959381,0,0.905772,7.650275,10.87807)" gradientUnits="userSpaceOnUse" xlink:href="#linearGradient15967"/><linearGradient id="linearGradient18657" x1="28" x2="28" y1="57.5" y2="0" gradientUnits="userSpaceOnUse" xlink:href="#XMLID_2_"/><linearGradient id="linearGradient18649" x1="28" x2="28" y1="57.5" y2="0" gradientUnits="userSpaceOnUse"><stop id="stop18651" offset="0" style="stop-color:#ffea00;stop-opacity:1"/><stop id="stop18653" offset="1" style="stop-color:#fc0;stop-opacity:1"/></linearGradient><linearGradient id="linearGradient18674" x1="-39.531" x2="-39.531" y1="78" y2="51.188" gradientUnits="userSpaceOnUse" xlink:href="#linearGradient18668"/><linearGradient id="linearGradient18746" x1="-39.531" x2="-39.531" y1="78" y2="51.188" gradientUnits="userSpaceOnUse" xlink:href="#linearGradient18668"/><radialGradient id="radialGradient1992" cx="102" cy="112.305" r="139.559" gradientTransform="matrix(0.829788,0,0,0.854545,10.89361,13.3091)" gradientUnits="userSpaceOnUse" xlink:href="#XMLID_8_"/><radialGradient id="radialGradient1995" cx="102" cy="112.305" r="139.559" gradientTransform="matrix(0.833334,0,0,0.857143,10.66666,13.14286)" gradientUnits="userSpaceOnUse" xlink:href="#XMLID_7_"/><linearGradient id="linearGradient2932" x1="96" x2="88" y1="104" y2="96" gradientTransform="matrix(0.833334,0,0,0.857143,10.66666,13.14286)" gradientUnits="userSpaceOnUse" xlink:href="#XMLID_12_"/><linearGradient id="linearGradient2935" x1="95" x2="87.293" y1="103" y2="95.293" gradientTransform="matrix(0.833334,0,0,0.857143,10.66666,13.14286)" gradientUnits="userSpaceOnUse" xlink:href="#XMLID_11_"/><linearGradient id="linearGradient2938" x1="95" x2="86.587" y1="103" y2="94.587" gradientTransform="matrix(0.833334,0,0,0.857143,10.66666,13.14286)" gradientUnits="userSpaceOnUse" xlink:href="#XMLID_10_"/><linearGradient id="linearGradient2941" x1="94.344" x2="86.536" y1="102.345" y2="94.537" gradientTransform="matrix(0.833334,0,0,0.857143,10.66666,13.14286)" gradientUnits="userSpaceOnUse" xlink:href="#XMLID_9_"/><radialGradient id="radialGradient3851" cx="102" cy="112.305" r="139.559" gradientTransform="matrix(0.833334,0,0,0.857143,10.66666,13.14286)" gradientUnits="userSpaceOnUse" xlink:href="#XMLID_7_"/><radialGradient id="radialGradient3853" cx="102" cy="112.305" r="139.559" gradientTransform="matrix(0.829788,0,0,0.854545,10.89361,13.3091)" gradientUnits="userSpaceOnUse" xlink:href="#XMLID_8_"/><linearGradient id="linearGradient3855" x1="94.344" x2="86.536" y1="102.345" y2="94.537" gradientTransform="matrix(0.833334,0,0,0.857143,10.66666,13.14286)" gradientUnits="userSpaceOnUse" xlink:href="#XMLID_9_"/><linearGradient id="linearGradient3857" x1="95" x2="86.587" y1="103" y2="94.587" gradientTransform="matrix(0.833334,0,0,0.857143,10.66666,13.14286)" gradientUnits="userSpaceOnUse" xlink:href="#XMLID_10_"/><linearGradient id="linearGradient3859" x1="95" x2="87.293" y1="103" y2="95.293" gradientTransform="matrix(0.833334,0,0,0.857143,10.66666,13.14286)" gradientUnits="userSpaceOnUse" xlink:href="#XMLID_11_"/><linearGradient id="linearGradient3861" x1="96" x2="88" y1="104" y2="96" gradientTransform="matrix(0.833334,0,0,0.857143,10.66666,13.14286)" gradientUnits="userSpaceOnUse" xlink:href="#XMLID_12_"/><radialGradient id="radialGradient3885" cx="102" cy="112.305" r="139.559" gradientTransform="matrix(0.833334,0,0,0.857143,10.66666,13.14286)" gradientUnits="userSpaceOnUse" xlink:href="#XMLID_7_"/><radialGradient id="radialGradient3887" cx="102" cy="112.305" r="139.559" gradientTransform="matrix(0.829788,0,0,0.854545,10.89361,13.3091)" gradientUnits="userSpaceOnUse" xlink:href="#XMLID_8_"/><linearGradient id="linearGradient3889" x1="94.344" x2="86.536" y1="102.345" y2="94.537" gradientTransform="matrix(0.833334,0,0,0.857143,10.66666,13.14286)" gradientUnits="userSpaceOnUse" xlink:href="#XMLID_9_"/><linearGradient id="linearGradient3891" x1="95" x2="86.587" y1="103" y2="94.587" gradientTransform="matrix(0.833334,0,0,0.857143,10.66666,13.14286)" gradientUnits="userSpaceOnUse" xlink:href="#XMLID_10_"/><linearGradient id="linearGradient3893" x1="95" x2="87.293" y1="103" y2="95.293" gradientTransform="matrix(0.833334,0,0,0.857143,10.66666,13.14286)" gradientUnits="userSpaceOnUse" xlink:href="#XMLID_11_"/><linearGradient id="linearGradient3895" x1="96" x2="88" y1="104" y2="96" gradientTransform="matrix(0.833334,0,0,0.857143,10.66666,13.14286)" gradientUnits="userSpaceOnUse" xlink:href="#XMLID_12_"/><linearGradient id="linearGradient8140" x1="96" x2="88" y1="104" y2="96" gradientTransform="matrix(0.7500006,0,0,0.7500001,35.99999,1.9999999)" gradientUnits="userSpaceOnUse" xlink:href="#XMLID_12_"/><radialGradient id="radialGradient8143" cx="102" cy="112.305" r="139.559" gradientTransform="matrix(0.7234049,0,0,0.7242939,37.70212,3.6451699)" gradientUnits="userSpaceOnUse" xlink:href="#radialGradient9121"/><radialGradient id="radialGradient8146" cx="102" cy="112.305" r="139.559" gradientTransform="matrix(0.7500006,0,0,0.7500001,35.99999,1.9999999)" gradientUnits="userSpaceOnUse" xlink:href="#XMLID_7_"/><linearGradient id="linearGradient9140" x1="96" x2="89.061" y1="104" y2="97.179" gradientTransform="matrix(0.7500006,0,0,0.7500001,-4.000007,26.000003)" gradientUnits="userSpaceOnUse" xlink:href="#XMLID_12_"/><radialGradient id="radialGradient9143" cx="102" cy="112.305" r="139.559" gradientTransform="matrix(0.7234049,0,0,0.7242939,-2.297879,27.645173)" gradientUnits="userSpaceOnUse" xlink:href="#XMLID_8_"/><linearGradient id="linearGradient3264" x1="78.961" x2="106.413" y1="56.207" y2="88.921" gradientTransform="matrix(0.5,-0.8660253,0.8660253,0.5,-23.219919,72.48172)" gradientUnits="userSpaceOnUse" xlink:href="#linearGradient3248"/><linearGradient id="linearGradient3267" x1="83.681" x2="128.981" y1="26.27" y2="-2.708" gradientTransform="matrix(-0.9757391,0.4793424,-0.1714459,-0.9224478,143.19635,26.054403)" gradientUnits="userSpaceOnUse" xlink:href="#linearGradient3291"/><filter id="filter2770" color-interpolation-filters="sRGB"><feGaussianBlur id="feGaussianBlur2772" stdDeviation="2.079"/></filter><radialGradient id="radialGradient3103" cx="102" cy="112.305" r="139.559" gradientTransform="matrix(1,0,0,0.9996653,2e-6,0.00301608)" gradientUnits="userSpaceOnUse" xlink:href="#XMLID_2_-3"/><radialGradient id="XMLID_2_-3" cx="86" cy="104.305" r="139.559" gradientTransform="translate(66,8)" gradientUnits="userSpaceOnUse"><stop id="stop13" offset="0" style="stop-color:#0057ae;stop-opacity:1"/><stop id="stop15" offset=".058" style="stop-color:#2874ca;stop-opacity:1"/><stop id="stop17" offset=".117" style="stop-color:#488ce1;stop-opacity:1"/><stop id="stop19" offset=".174" style="stop-color:#609df2;stop-opacity:1"/><stop id="stop21" offset=".227" style="stop-color:#6ea7fc;stop-opacity:1"/><stop id="stop23" offset=".272" style="stop-color:#73abff;stop-opacity:1"/><stop id="stop25" offset=".434" style="stop-color:#6ea8fc;stop-opacity:1"/><stop id="stop27" offset=".631" style="stop-color:#5f9ef4;stop-opacity:1"/><stop id="stop29" offset=".844" style="stop-color:#478de7;stop-opacity:1"/><stop id="stop31" offset="1" style="stop-color:#307edb;stop-opacity:1"/></radialGradient><linearGradient id="linearGradient3105" x1="76.672" x2="36.672" y1="102.847" y2="-7.153" gradientUnits="userSpaceOnUse" xlink:href="#path9576_1_"/><linearGradient id="path9576_1_" x1="76.672" x2="36.672" y1="102.847" y2="-7.153" gradientUnits="userSpaceOnUse"><stop id="stop86" offset="0" style="stop-color:#d6d6d6;stop-opacity:1"/><stop id="stop88" offset=".009" style="stop-color:#d7d7d7;stop-opacity:1"/><stop id="stop90" offset=".22" style="stop-color:#ededed;stop-opacity:1"/><stop id="stop92" offset=".421" style="stop-color:#fafafa;stop-opacity:1"/><stop id="stop94" offset=".604" style="stop-color:#fff;stop-opacity:1"/><stop id="stop96" offset="1" style="stop-color:#d6d6d6;stop-opacity:1"/></linearGradient><linearGradient id="linearGradient3107" x1="62.7" x2="22.7" y1="107.927" y2="-2.073" gradientUnits="userSpaceOnUse" xlink:href="#path2876_1_"/><linearGradient id="path2876_1_" x1="62.7" x2="22.7" y1="107.927" y2="-2.073" gradientUnits="userSpaceOnUse"><stop id="stop100" offset="0" style="stop-color:#d6d6d6;stop-opacity:1"/><stop id="stop102" offset=".009" style="stop-color:#d7d7d7;stop-opacity:1"/><stop id="stop104" offset=".22" style="stop-color:#ededed;stop-opacity:1"/><stop id="stop106" offset=".421" style="stop-color:#fafafa;stop-opacity:1"/><stop id="stop108" offset=".604" style="stop-color:#fff;stop-opacity:1"/><stop id="stop110" offset="1" style="stop-color:#d6d6d6;stop-opacity:1"/></linearGradient><clipPath id="clipPath7084"><path id="path7086" d="m 72,88 -32,32 -8,0 0,-40 40,0 0,8 z" style="fill:#000;fill-opacity:1;fill-rule:evenodd;stroke:none"/></clipPath><filter id="filter6697" width="1.384" height="1.384" x="-.192" y="-.192" color-interpolation-filters="sRGB"><feGaussianBlur id="feGaussianBlur6699" stdDeviation="1.945"/></filter><linearGradient id="linearGradient3109" x1="98.617" x2="91.229" y1="106.414" y2="99.255" gradientTransform="translate(10,0)" gradientUnits="userSpaceOnUse" xlink:href="#linearGradient10207"/><linearGradient id="linearGradient10207"><stop id="stop10209" offset="0" style="stop-color:#a2a2a2;stop-opacity:1"/><stop id="stop10211" offset="1" style="stop-color:#fff;stop-opacity:1"/></linearGradient><filter id="filter2770-6" color-interpolation-filters="sRGB"><feGaussianBlur id="feGaussianBlur2772-3" stdDeviation="2.079"/></filter><radialGradient id="radialGradient3239-9" cx="102" cy="112.305" r="139.559" gradientTransform="matrix(1,0,0,0.9996653,2e-6,0.00301608)" gradientUnits="userSpaceOnUse" xlink:href="#XMLID_2_-3-4"/><radialGradient id="XMLID_2_-3-4" cx="86" cy="104.305" r="139.559" gradientTransform="translate(66,8)" gradientUnits="userSpaceOnUse"><stop id="stop13-8" offset="0" style="stop-color:#0057ae;stop-opacity:1"/><stop id="stop15-1" offset=".058" style="stop-color:#2874ca;stop-opacity:1"/><stop id="stop17-2" offset=".117" style="stop-color:#488ce1;stop-opacity:1"/><stop id="stop19-9" offset=".174" style="stop-color:#609df2;stop-opacity:1"/><stop id="stop21-3" offset=".227" style="stop-color:#6ea7fc;stop-opacity:1"/><stop id="stop23-9" offset=".272" style="stop-color:#73abff;stop-opacity:1"/><stop id="stop25-0" offset=".434" style="stop-color:#6ea8fc;stop-opacity:1"/><stop id="stop27-8" offset=".631" style="stop-color:#5f9ef4;stop-opacity:1"/><stop id="stop29-8" offset=".844" style="stop-color:#478de7;stop-opacity:1"/><stop id="stop31-5" offset="1" style="stop-color:#307edb;stop-opacity:1"/></radialGradient><linearGradient id="linearGradient3241-0" x1="76.672" x2="36.672" y1="102.847" y2="-7.153" gradientUnits="userSpaceOnUse" xlink:href="#path9576_1_-9"/><linearGradient id="path9576_1_-9" x1="76.672" x2="36.672" y1="102.847" y2="-7.153" gradientUnits="userSpaceOnUse"><stop id="stop86-6" offset="0" style="stop-color:#d6d6d6;stop-opacity:1"/><stop id="stop88-3" offset=".009" style="stop-color:#d7d7d7;stop-opacity:1"/><stop id="stop90-8" offset=".22" style="stop-color:#ededed;stop-opacity:1"/><stop id="stop92-5" offset=".421" style="stop-color:#fafafa;stop-opacity:1"/><stop id="stop94-6" offset=".604" style="stop-color:#fff;stop-opacity:1"/><stop id="stop96-1" offset="1" style="stop-color:#d6d6d6;stop-opacity:1"/></linearGradient><linearGradient id="linearGradient3243-1" x1="62.7" x2="22.7" y1="107.927" y2="-2.073" gradientUnits="userSpaceOnUse" xlink:href="#path2876_1_-5"/><linearGradient id="path2876_1_-5" x1="62.7" x2="22.7" y1="107.927" y2="-2.073" gradientUnits="userSpaceOnUse"><stop id="stop100-9" offset="0" style="stop-color:#d6d6d6;stop-opacity:1"/><stop id="stop102-8" offset=".009" style="stop-color:#d7d7d7;stop-opacity:1"/><stop id="stop104-4" offset=".22" style="stop-color:#ededed;stop-opacity:1"/><stop id="stop106-8" offset=".421" style="stop-color:#fafafa;stop-opacity:1"/><stop id="stop108-1" offset=".604" style="stop-color:#fff;stop-opacity:1"/><stop id="stop110-0" offset="1" style="stop-color:#d6d6d6;stop-opacity:1"/></linearGradient><clipPath id="clipPath7084-3"><path id="path7086-0" d="m 72,88 -32,32 -8,0 0,-40 40,0 0,8 z" style="fill:#000;fill-opacity:1;fill-rule:evenodd;stroke:none"/></clipPath><filter id="filter6697-4" width="1.384" height="1.384" x="-.192" y="-.192" color-interpolation-filters="sRGB"><feGaussianBlur id="feGaussianBlur6699-4" stdDeviation="1.945"/></filter><linearGradient id="linearGradient3245-4" x1="98.617" x2="91.229" y1="106.414" y2="99.255" gradientTransform="translate(10,0)" gradientUnits="userSpaceOnUse" xlink:href="#linearGradient10207-4"/><linearGradient id="linearGradient10207-4"><stop id="stop10209-7" offset="0" style="stop-color:#a2a2a2;stop-opacity:1"/><stop id="stop10211-6" offset="1" style="stop-color:#fff;stop-opacity:1"/></linearGradient></defs><metadata id="metadata3"/><radialGradient id="XMLID_7_" cx="102" cy="112.305" r="139.559" gradientUnits="userSpaceOnUse"><stop id="stop16" offset="0" style="stop-color:#00537d;stop-opacity:1"/><stop id="stop18" offset=".015" style="stop-color:#186389;stop-opacity:1"/><stop id="stop20" offset=".056" style="stop-color:#558ca8;stop-opacity:1"/><stop id="stop22" offset=".096" style="stop-color:#89afc3;stop-opacity:1"/><stop id="stop24" offset=".136" style="stop-color:#b3ccd8;stop-opacity:1"/><stop id="stop26" offset=".174" style="stop-color:#d4e2e9;stop-opacity:1"/><stop id="stop28" offset=".21" style="stop-color:#ecf2f5;stop-opacity:1"/><stop id="stop30" offset=".243" style="stop-color:#fafcfd;stop-opacity:1"/><stop id="stop32" offset=".272" style="stop-color:#fff;stop-opacity:1"/></radialGradient><radialGradient id="XMLID_8_" cx="102" cy="112.305" r="139.559" gradientUnits="userSpaceOnUse"><stop id="stop37" offset="0" style="stop-color:#0255a8;stop-opacity:1"/><stop id="stop41" offset=".114" style="stop-color:#898a8c;stop-opacity:1"/><stop id="stop47" offset=".203" style="stop-color:#bebebe;stop-opacity:1"/><stop id="stop49" offset=".236" style="stop-color:#d8d8d8;stop-opacity:1"/><stop id="stop51" offset=".272" style="stop-color:#eee;stop-opacity:1"/><stop id="stop53" offset=".531" style="stop-color:#e3e3e3;stop-opacity:1"/><stop id="stop55" offset=".845" style="stop-color:#cfd1d1;stop-opacity:1"/><stop id="stop57" offset="1" style="stop-color:#cbcdce;stop-opacity:1"/></radialGradient><linearGradient id="XMLID_9_" x1="94.344" x2="86.536" y1="102.345" y2="94.537" gradientUnits="userSpaceOnUse"><stop id="stop62" offset="0" style="stop-color:#fff;stop-opacity:1"/><stop id="stop64" offset="1" style="stop-color:#555753;stop-opacity:1"/></linearGradient><linearGradient id="XMLID_10_" x1="95" x2="86.587" y1="103" y2="94.587" gradientUnits="userSpaceOnUse"><stop id="stop69" offset="0" style="stop-color:#fff;stop-opacity:1"/><stop id="stop71" offset="1" style="stop-color:#555753;stop-opacity:1"/></linearGradient><linearGradient id="XMLID_11_" x1="95" x2="87.293" y1="103" y2="95.293" gradientUnits="userSpaceOnUse"><stop id="stop76" offset="0" style="stop-color:#fff;stop-opacity:1"/><stop id="stop78" offset="1" style="stop-color:#393b38;stop-opacity:1"/></linearGradient><linearGradient id="XMLID_12_" x1="96" x2="88" y1="104" y2="96" gradientUnits="userSpaceOnUse"><stop id="stop83" offset="0" style="stop-color:#888a85;stop-opacity:1"/><stop id="stop85" offset=".007" style="stop-color:#8c8e89;stop-opacity:1"/><stop id="stop87" offset=".067" style="stop-color:#abaca9;stop-opacity:1"/><stop id="stop89" offset=".135" style="stop-color:#c5c6c4;stop-opacity:1"/><stop id="stop91" offset=".211" style="stop-color:#dbdbda;stop-opacity:1"/><stop id="stop93" offset=".301" style="stop-color:#ebebeb;stop-opacity:1"/><stop id="stop95" offset=".412" style="stop-color:#f7f7f6;stop-opacity:1"/><stop id="stop97" offset=".568" style="stop-color:#fdfdfd;stop-opacity:1"/><stop id="stop99" offset="1" style="stop-color:#fff;stop-opacity:1"/></linearGradient><path id="path1563" d="m 127.82442,115.70919 a 63.912209,12.641975 0 1 1 -127.82442,0 63.912209,12.641975 0 1 1 127.82442,0 z" transform="matrix(-1.001374,0,0,0.410379,128.00002,75.327377)" style="opacity:.38139535;fill:url(#radialGradient3336);fill-opacity:1;fill-rule:nonzero;stroke:none"/><path id="path6210" d="M 48,7.9999999 48,90.49999 C 48,91.328 48.672,92 49.5,92 l 44.379002,0 c 0.3975,0 0.779249,-0.15825 1.060501,-0.4395 L 119.5605,66.939498 C 119.84176,66.658247 120,66.276497 120,65.878996 l 0,-57.8789961 -72,0 z" style="opacity:.1;fill:none;stroke:#000;stroke-width:8;stroke-linejoin:round;stroke-miterlimit:4;stroke-opacity:1;stroke-dasharray:none"/><path id="path6212" d="M 48,7.9999999 48,90.49999 C 48,91.328 48.672,92 49.5,92 l 44.379002,0 c 0.3975,0 0.779249,-0.15825 1.060501,-0.4395 L 119.5605,66.939498 C 119.84176,66.658247 120,66.276497 120,65.878996 l 0,-57.8789961 -72,0 z" style="opacity:.15;fill:none;stroke:#000;stroke-width:6;stroke-linejoin:round;stroke-miterlimit:4;stroke-opacity:1;stroke-dasharray:none"/><path id="path6214" d="M 48,7.9999999 48,90.49999 C 48,91.328 48.672,92 49.5,92 l 44.379002,0 c 0.3975,0 0.779249,-0.15825 1.060501,-0.4395 L 119.5605,66.939498 C 119.84176,66.658247 120,66.276497 120,65.878996 l 0,-57.8789961 -72,0 z" style="opacity:.2;fill:none;stroke:#000;stroke-width:4;stroke-linejoin:round;stroke-miterlimit:4;stroke-opacity:1;stroke-dasharray:none"/><path id="path6216" d="M 48,7.9999999 48,90.49999 C 48,91.328 48.672,92 49.5,92 l 44.379002,0 c 0.3975,0 0.779249,-0.15825 1.060501,-0.4395 L 119.5605,66.939498 C 119.84176,66.658247 120,66.276497 120,65.878996 l 0,-57.8789961 -72,0 z" style="opacity:.25;fill:none;stroke:#000;stroke-width:2;stroke-linejoin:round;stroke-miterlimit:4;stroke-opacity:1;stroke-dasharray:none"/><path id="path6218" d="M 48,7.9999999 48,90.49999 C 48,91.328 48.672,92 49.5,92 l 44.379002,0 c 0.3975,0 0.779249,-0.15825 1.060501,-0.4395 L 119.5605,66.939498 C 119.84176,66.658247 120,66.276497 120,65.878996 l 0,-57.8789961 -72,0 z" style="fill:url(#radialGradient8146)"/><path id="path6220" d="m 50.7234,10.163815 c -0.39859,0 -0.7234,0.325208 -0.7234,0.724294 l 0,78.223771 c 0,0.39982 0.32481,0.7243 0.7234,0.7243 l 42.80528,0 c 0.190257,0 0.376895,-0.07677 0.511447,-0.21221 L 117.78806,65.846829 C 117.92332,65.711386 118,65.52524 118,65.334753 l 0,-54.446644 c 0,-0.399086 -0.32408,-0.724294 -0.7234,-0.724294 l -66.5532,0 z" style="fill:url(#radialGradient8143);fill-opacity:1"/><path id="text3688" d="m 55.901847,15.159164 0.591797,0 0,3.83739 2.129882,0 0,0.49309 -2.721679,0 0,-4.33048 m 4.482422,1.45606 c -0.289065,0 -0.51758,0.11216 -0.685547,0.33646 -0.167971,0.22238 -0.251955,0.5279 -0.251954,0.91657 -10e-7,0.38867 0.083,0.69516 0.249024,0.91946 0.167967,0.22237 0.397459,0.33356 0.688477,0.33356 0.287106,0 0.514646,-0.11215 0.682616,-0.33646 0.167966,-0.22431 0.25195,-0.52983 0.251953,-0.91656 -3e-6,-0.3848 -0.08399,-0.68936 -0.251953,-0.91367 -0.16797,-0.22624 -0.39551,-0.33936 -0.682616,-0.33936 m 0,-0.45248 c 0.468747,0 0.836911,0.15083 1.104491,0.45248 0.267576,0.30166 0.401364,0.71933 0.401367,1.25303 -3e-6,0.53176 -0.133791,0.94943 -0.401367,1.25302 -0.26758,0.30166 -0.635744,0.45248 -1.104491,0.45248 -0.470705,0 -0.839845,-0.15082 -1.107423,-0.45248 -0.265625,-0.30359 -0.398438,-0.72126 -0.398437,-1.25302 -10e-7,-0.5337 0.132812,-0.95137 0.398437,-1.25303 0.267578,-0.30165 0.636718,-0.45248 1.107423,-0.45248 m 4.297851,0.5772 c -0.06055,-0.0348 -0.126956,-0.0599 -0.199218,-0.0754 -0.07031,-0.0174 -0.14844,-0.0261 -0.234376,-0.0261 -0.304689,10e-6 -0.539064,0.0986 -0.703125,0.29586 -0.162111,0.1953 -0.243165,0.47665 -0.243164,0.84405 l 0,1.71131 -0.541992,0 0,-3.24859 0.541992,0 0,0.50469 c 0.11328,-0.19723 0.260741,-0.34322 0.442383,-0.43798 0.181639,-0.0967 0.402342,-0.14502 0.662109,-0.14502 0.03711,0 0.07812,0.003 0.123047,0.009 0.04492,0.004 0.09472,0.0106 0.149414,0.0203 l 0.0029,0.54819 m 3.377929,0.99198 0,0.26105 -2.478515,0 c 0.02344,0.3674 0.134764,0.64778 0.333983,0.84115 0.201171,0.19143 0.480468,0.28715 0.837892,0.28715 0.207029,0 0.407224,-0.0251 0.600586,-0.0754 0.195309,-0.0503 0.388668,-0.12569 0.580077,-0.22624 l 0,0.50469 c -0.193363,0.0812 -0.391604,0.14309 -0.594727,0.18563 -0.203127,0.0425 -0.409181,0.0638 -0.618163,0.0638 -0.523439,0 -0.938478,-0.15082 -1.245117,-0.45248 -0.304683,-0.30165 -0.457027,-0.70966 -0.457026,-1.22402 -10e-7,-0.53176 0.14453,-0.9533 0.433594,-1.26463 0.291014,-0.31325 0.682615,-0.46988 1.174804,-0.46988 0.441404,0 0.790036,0.14116 1.045898,0.42347 0.25781,0.28039 0.386716,0.66229 0.386719,1.14571 m -0.539063,-0.15663 c -0.0039,-0.29198 -0.08691,-0.52499 -0.249023,-0.69902 -0.160159,-0.17403 -0.373049,-0.26105 -0.638672,-0.26105 -0.300783,0 -0.541994,0.0841 -0.723633,0.25234 -0.179689,0.16824 -0.283204,0.40511 -0.310546,0.71063 l 1.921874,-0.003 m 3.978516,-0.71063 c 0.134763,-0.23977 0.295896,-0.4167 0.483399,-0.53079 0.187496,-0.11409 0.408199,-0.17113 0.66211,-0.17113 0.341791,0 0.605463,0.11892 0.791015,0.35676 0.185542,0.23591 0.278315,0.57237 0.27832,1.00938 l 0,1.96076 -0.541992,0 0,-1.94335 c -5e-6,-0.31132 -0.05567,-0.5424 -0.166992,-0.69323 -0.111333,-0.15082 -0.281255,-0.22624 -0.509766,-0.22624 -0.279301,0 -0.500003,0.0918 -0.662109,0.27555 -0.162113,0.1837 -0.243167,0.43411 -0.243164,0.75124 l 0,1.83603 -0.541992,0 0,-1.94335 c -3e-6,-0.31326 -0.05567,-0.54433 -0.166992,-0.69323 -0.111331,-0.15082 -0.283206,-0.22624 -0.515625,-0.22624 -0.275393,0 -0.494142,0.0928 -0.65625,0.27845 -0.162111,0.1837 -0.243166,0.43315 -0.243165,0.74834 l 0,1.83603 -0.541991,0 0,-3.24859 0.541991,0 0,0.50469 c 0.123046,-0.19916 0.270507,-0.34612 0.442383,-0.44088 0.171874,-0.0947 0.375975,-0.14212 0.612304,-0.14212 0.238279,0 0.440428,0.0599 0.606447,0.17983 0.167965,0.11989 0.291989,0.29392 0.372069,0.52209 m 5.203126,-0.62361 0.539062,0 0,3.24859 -0.539062,0 0,-3.24859 m 0,-1.26463 0.539062,0 0,0.67583 -0.539062,0 0,-0.67583 m 2.185546,4.02593 0,1.72291 -0.541993,0 0,-4.48421 0.541993,0 0,0.49309 c 0.11328,-0.19336 0.255858,-0.33646 0.427735,-0.42928 0.173826,-0.0947 0.380857,-0.14212 0.621093,-0.14212 0.398435,0 0.721677,0.15663 0.969727,0.46988 0.249997,0.31326 0.374996,0.72513 0.374999,1.23562 -3e-6,0.5105 -0.125002,0.92237 -0.374999,1.23563 -0.24805,0.31325 -0.571292,0.46988 -0.969727,0.46988 -0.240236,0 -0.447267,-0.0464 -0.621093,-0.13922 -0.171877,-0.0948 -0.314455,-0.23881 -0.427735,-0.43218 m 1.833984,-1.13411 c -2e-6,-0.39253 -0.08203,-0.69999 -0.246093,-0.92236 -0.162112,-0.22431 -0.385745,-0.33646 -0.670899,-0.33646 -0.285158,0 -0.509767,0.11215 -0.673827,0.33646 -0.162111,0.22237 -0.243166,0.52983 -0.243165,0.92236 -10e-7,0.39254 0.08106,0.70096 0.243165,0.92527 0.16406,0.22237 0.388669,0.33356 0.673827,0.33356 0.285154,0 0.508787,-0.11119 0.670899,-0.33356 0.16406,-0.22431 0.246091,-0.53273 0.246093,-0.92527 m 3.544923,-1.53147 0,0.50469 c -0.152346,-0.0773 -0.310549,-0.13536 -0.47461,-0.17403 -0.164064,-0.0387 -0.333985,-0.058 -0.509765,-0.058 -0.26758,0 -0.468752,0.0406 -0.603516,0.12182 -0.132813,0.0812 -0.199219,0.20304 -0.199218,0.36547 -10e-7,0.12375 0.04785,0.22141 0.143554,0.29295 0.09571,0.0696 0.288085,0.13633 0.577149,0.20013 l 0.18457,0.0406 c 0.382811,0.0812 0.654294,0.19627 0.814454,0.34516 0.162105,0.14696 0.24316,0.3529 0.243163,0.61781 -3e-6,0.30166 -0.121096,0.54047 -0.363281,0.71643 -0.240237,0.17597 -0.571291,0.26395 -0.993164,0.26395 -0.175782,0 -0.359376,-0.0174 -0.550781,-0.0522 -0.189454,-0.0329 -0.389649,-0.0831 -0.600586,-0.15083 l 0,-0.55109 c 0.199218,0.10248 0.395507,0.17983 0.588867,0.23204 0.193358,0.0503 0.384764,0.0754 0.574219,0.0754 0.253905,0 0.449216,-0.0425 0.585937,-0.12762 0.136717,-0.087 0.205076,-0.20884 0.205078,-0.36547 -2e-6,-0.14502 -0.04981,-0.25621 -0.149414,-0.33356 -0.09766,-0.0773 -0.313478,-0.15179 -0.647461,-0.22334 l -0.187499,-0.0435 c -0.333986,-0.0696 -0.575197,-0.17596 -0.723633,-0.31905 -0.148438,-0.14503 -0.222657,-0.34323 -0.222656,-0.59461 -10e-7,-0.30552 0.109374,-0.54143 0.328124,-0.70773 0.21875,-0.16629 0.529296,-0.24944 0.931641,-0.24944 0.199217,0 0.386717,0.0145 0.5625,0.0435 0.175779,0.029 0.337888,0.0725 0.486328,0.13052 m 0.981443,1.87084 0,-1.96655 0.539063,0 0,1.94625 c -10e-7,0.30745 0.06054,0.53853 0.181641,0.69322 0.121092,0.15276 0.302732,0.22914 0.544922,0.22914 0.291013,0 0.520505,-0.0919 0.688477,-0.27555 0.169919,-0.1837 0.25488,-0.43411 0.254882,-0.75123 l 0,-1.84183 0.539063,0 0,3.24858 -0.539063,0 0,-0.49889 c -0.130861,0.19724 -0.283206,0.3442 -0.457031,0.44088 -0.171878,0.0948 -0.372073,0.14213 -0.600586,0.14213 -0.376954,0 -0.663087,-0.11603 -0.858399,-0.34807 -0.195312,-0.23204 -0.292969,-0.5714 -0.292969,-1.01808 m 6.418949,-1.34294 c 0.134762,-0.23978 0.295895,-0.41671 0.483398,-0.5308 0.187496,-0.11408 0.408199,-0.17112 0.662109,-0.17113 0.341793,10e-6 0.605465,0.11893 0.791016,0.35677 0.185542,0.23591 0.278315,0.57237 0.27832,1.00938 l 0,1.96075 -0.541992,0 0,-1.94335 c -4e-6,-0.31132 -0.05567,-0.54239 -0.166992,-0.69322 -0.111333,-0.15083 -0.281254,-0.22624 -0.509765,-0.22624 -0.279301,0 -0.500004,0.0918 -0.66211,0.27554 -0.162112,0.18371 -0.243168,0.43412 -0.243164,0.75124 l 0,1.83603 -0.541992,0 0,-1.94335 c -3e-6,-0.31325 -0.05567,-0.54433 -0.166993,-0.69322 -0.11133,-0.15083 -0.283205,-0.22624 -0.515625,-0.22624 -0.275392,0 -0.494142,0.0928 -0.65625,0.27845 -0.16211,0.1837 -0.243165,0.43314 -0.243163,0.74833 l 0,1.83603 -0.541993,0 0,-3.24858 0.541993,0 0,0.50469 c 0.123045,-0.19917 0.270506,-0.34613 0.442383,-0.44088 0.171872,-0.0948 0.375974,-0.14212 0.612304,-0.14213 0.238279,10e-6 0.440427,0.0599 0.606445,0.17983 0.167967,0.1199 0.291989,0.29393 0.372071,0.5221 m 7.36231,-0.13053 0,-1.75771 0.53906,0 0,4.51321 -0.53906,0 0,-0.48729 c -0.113285,0.19337 -0.256841,0.33743 -0.430669,0.43218 -0.171878,0.0928 -0.378911,0.13923 -0.621089,0.13923 -0.396489,0 -0.719732,-0.15663 -0.969729,-0.46989 -0.248048,-0.31326 -0.372067,-0.72513 -0.372067,-1.23562 0,-0.51049 0.124019,-0.92236 0.372067,-1.23562 0.249997,-0.31326 0.57324,-0.46988 0.969729,-0.46989 0.242178,10e-6 0.449211,0.0474 0.621089,0.14213 0.173828,0.0928 0.317384,0.23591 0.430669,0.42927 m -1.836916,1.13411 c 0,0.39254 0.0811,0.70096 0.243163,0.92527 0.164059,0.22237 0.38867,0.33356 0.673833,0.33355 0.285153,10e-6 0.509753,-0.11118 0.673822,-0.33355 0.164059,-0.22431 0.246088,-0.53273 0.246098,-0.92527 -1e-5,-0.39254 -0.08201,-0.69999 -0.246098,-0.92237 -0.164069,-0.2243 -0.388669,-0.33646 -0.673822,-0.33646 -0.285163,0 -0.509774,0.11216 -0.673833,0.33646 -0.162109,0.22238 -0.243163,0.52983 -0.243163,0.92237 m 4.757808,-1.25303 c -0.28906,10e-6 -0.51758,0.11216 -0.68555,0.33646 -0.16796,0.22238 -0.25194,0.5279 -0.25194,0.91657 0,0.38867 0.083,0.69516 0.24902,0.91946 0.16797,0.22238 0.39745,0.33356 0.68847,0.33356 0.28711,0 0.51465,-0.11215 0.68262,-0.33646 0.16797,-0.2243 0.25195,-0.52982 0.25196,-0.91656 -1e-5,-0.3848 -0.084,-0.68936 -0.25196,-0.91367 -0.16797,-0.22623 -0.39551,-0.33935 -0.68262,-0.33936 m 0,-0.45248 c 0.46875,10e-6 0.83691,0.15083 1.1045,0.45248 0.26757,0.30166 0.40136,0.71934 0.40136,1.25303 0,0.53176 -0.13379,0.94944 -0.40136,1.25302 -0.26759,0.30166 -0.63575,0.45249 -1.1045,0.45249 -0.4707,0 -0.83984,-0.15083 -1.10742,-0.45249 -0.26563,-0.30358 -0.39844,-0.72126 -0.39843,-1.25302 -1e-5,-0.53369 0.1328,-0.95137 0.39843,-1.25303 0.26758,-0.30165 0.63672,-0.45247 1.10742,-0.45248 m 2.39649,-1.18631 0.53906,0 0,4.51321 -0.53906,0 0,-4.51321 m 2.93554,1.63879 c -0.28906,10e-6 -0.51757,0.11216 -0.68554,0.33646 -0.16797,0.22238 -0.25196,0.5279 -0.25196,0.91657 0,0.38867 0.083,0.69516 0.24903,0.91946 0.16796,0.22238 0.39746,0.33356 0.68847,0.33356 0.28711,0 0.51465,-0.11215 0.68262,-0.33646 0.16797,-0.2243 0.25195,-0.52982 0.25195,-0.91656 0,-0.3848 -0.084,-0.68936 -0.25195,-0.91367 -0.16797,-0.22623 -0.39551,-0.33935 -0.68262,-0.33936 m 0,-0.45248 c 0.46875,10e-6 0.83692,0.15083 1.10449,0.45248 0.26758,0.30166 0.40138,0.71934 0.40138,1.25303 0,0.53176 -0.1338,0.94944 -0.40138,1.25302 -0.26757,0.30166 -0.63574,0.45249 -1.10449,0.45249 -0.4707,0 -0.83984,-0.15083 -1.10741,-0.45249 -0.26563,-0.30358 -0.39844,-0.72126 -0.39844,-1.25302 0,-0.53369 0.13281,-0.95137 0.39844,-1.25303 0.26757,-0.30165 0.63671,-0.45247 1.10741,-0.45248 m 4.29786,0.57721 c -0.0605,-0.0348 -0.12696,-0.0599 -0.19923,-0.0754 -0.0704,-0.0174 -0.14843,-0.0261 -0.23437,-0.0261 -0.30469,0 -0.53906,0.0986 -0.70312,0.29585 -0.16211,0.1953 -0.24317,0.47665 -0.24317,0.84405 l 0,1.71131 -0.54199,0 0,-3.24859 0.54199,0 0,0.5047 c 0.11329,-0.19724 0.26074,-0.34323 0.44239,-0.43798 0.18164,-0.0967 0.40234,-0.14503 0.6621,-0.14503 0.0371,0 0.0781,0.003 0.12306,0.009 0.0449,0.004 0.0948,0.0106 0.1494,0.0203 l 0.003,0.5482 m -53.610339,14.44749 0,0.50469 c -0.152346,-0.0773 -0.310549,-0.13536 -0.474609,-0.17403 -0.164065,-0.0387 -0.333987,-0.058 -0.509766,-0.058 -0.267579,0 -0.468751,0.0406 -0.603515,0.12182 -0.132814,0.0812 -0.19922,0.20304 -0.19922,0.36547 0,0.12375 0.04785,0.2214 0.143556,0.29295 0.0957,0.0696 0.288084,0.13632 0.577148,0.20013 l 0.18457,0.0406 c 0.38281,0.0812 0.654295,0.19627 0.814453,0.34517 0.162107,0.14696 0.243162,0.3529 0.243165,0.61781 -3e-6,0.30165 -0.121097,0.54046 -0.363282,0.71643 -0.240236,0.17596 -0.571291,0.26394 -0.993164,0.26394 -0.175783,0 -0.359376,-0.0174 -0.550781,-0.0522 -0.189454,-0.0329 -0.389649,-0.0831 -0.600586,-0.15083 l 0,-0.5511 c 0.199218,0.10249 0.395507,0.17984 0.588867,0.23205 0.193359,0.0503 0.384765,0.0754 0.574219,0.0754 0.253904,0 0.449217,-0.0425 0.585937,-0.12763 0.136717,-0.087 0.205076,-0.20883 0.205078,-0.36546 -2e-6,-0.14503 -0.04981,-0.25621 -0.149413,-0.33356 -0.09766,-0.0773 -0.313478,-0.15179 -0.647461,-0.22334 l -0.187501,-0.0435 c -0.333984,-0.0696 -0.575195,-0.17597 -0.723632,-0.31906 -0.148439,-0.14502 -0.222657,-0.34323 -0.222657,-0.59461 0,-0.30551 0.109375,-0.54142 0.328126,-0.70772 0.218748,-0.1663 0.529295,-0.24944 0.931641,-0.24945 0.199216,10e-6 0.386716,0.0145 0.5625,0.0435 0.175778,0.029 0.337888,0.0725 0.486327,0.13052 m 1.03711,-0.0957 0.539062,0 0,3.24859 -0.539062,0 0,-3.24859 m 0,-1.26462 0.539062,0 0,0.67582 -0.539062,0 0,-0.67582 m 2.197265,0.34226 0,0.92236 1.110352,0 0,0.41478 -1.110352,0 0,1.76352 c -10e-7,0.26491 0.03613,0.43508 0.108398,0.51049 0.07422,0.0754 0.223632,0.11312 0.448243,0.11312 l 0.553711,0 0,0.44668 -0.553711,0 c -0.416017,0 -0.703127,-0.0764 -0.861328,-0.22914 -0.158204,-0.15469 -0.237305,-0.43508 -0.237305,-0.84115 l 0,-1.76352 -0.395508,0 0,-0.41477 0.395508,0 0,-0.92237 0.541992,0 m 5.223633,2.53796 c -0.435549,0 -0.737306,0.0493 -0.905273,0.14792 -0.16797,0.0986 -0.251954,0.26685 -0.251953,0.50469 -1e-6,0.18951 0.0625,0.34033 0.187499,0.45249 0.126952,0.11022 0.298827,0.16533 0.515625,0.16533 0.298826,0 0.538084,-0.10442 0.717774,-0.31326 0.181637,-0.21077 0.272458,-0.49019 0.272461,-0.83825 l 0,-0.11892 -0.536133,0 m 1.075195,-0.22044 0,1.85343 -0.539062,0 0,-0.49309 c -0.123049,0.19724 -0.27637,0.34323 -0.459962,0.43798 -0.183595,0.0928 -0.408205,0.13923 -0.673827,0.13923 -0.335939,0 -0.603517,-0.0928 -0.802735,-0.27845 -0.197266,-0.18757 -0.295898,-0.43798 -0.295898,-0.75124 0,-0.36546 0.123047,-0.64101 0.369141,-0.82665 0.248045,-0.18563 0.617185,-0.27845 1.107421,-0.27845 l 0.75586,0 0,-0.0522 c -3e-6,-0.24557 -0.08203,-0.43507 -0.246094,-0.5685 -0.162111,-0.13535 -0.390627,-0.20303 -0.685547,-0.20304 -0.187501,10e-6 -0.370118,0.0222 -0.547851,0.0667 -0.177736,0.0445 -0.348634,0.11119 -0.512696,0.20014 l 0,-0.49309 c 0.197265,-0.0754 0.388671,-0.13149 0.574219,-0.16823 0.185546,-0.0387 0.366209,-0.058 0.541992,-0.058 0.474607,1e-5 0.829099,0.12183 1.063476,0.36547 0.234373,0.24364 0.35156,0.61298 0.351563,1.108 m 3.667904,-0.77147 c 0.134762,-0.23978 0.295895,-0.41671 0.483398,-0.5308 0.187496,-0.11408 0.408199,-0.17113 0.662109,-0.17113 0.341793,0 0.605465,0.11892 0.791016,0.35677 0.185542,0.23591 0.278315,0.57237 0.278321,1.00938 l 0,1.96075 -0.541993,0 0,-1.94335 c -4e-6,-0.31132 -0.05567,-0.5424 -0.166992,-0.69322 -0.111333,-0.15083 -0.281254,-0.22624 -0.509765,-0.22625 -0.279301,1e-5 -0.500004,0.0918 -0.66211,0.27555 -0.162112,0.18371 -0.243168,0.43412 -0.243164,0.75124 l 0,1.83603 -0.541992,0 0,-1.94335 c -3e-6,-0.31325 -0.05567,-0.54433 -0.166993,-0.69322 -0.11133,-0.15083 -0.283205,-0.22624 -0.515625,-0.22625 -0.275392,1e-5 -0.494142,0.0928 -0.65625,0.27845 -0.16211,0.18371 -0.243165,0.43315 -0.243163,0.74834 l 0,1.83603 -0.541993,0 0,-3.24859 0.541993,0 0,0.5047 c 0.123045,-0.19917 0.270506,-0.34613 0.442383,-0.44088 0.171872,-0.0947 0.375974,-0.14213 0.612304,-0.14213 0.238279,0 0.440427,0.06 0.606445,0.17983 0.167967,0.11989 0.291989,0.29393 0.372071,0.5221 m 6.099609,0.86725 0,0.26105 -2.478515,0 c 0.02344,0.3674 0.134764,0.64778 0.333984,0.84115 0.20117,0.19144 0.480467,0.28715 0.837891,0.28715 0.207029,0 0.407224,-0.0251 0.600586,-0.0754 0.195309,-0.0503 0.388668,-0.12569 0.580078,-0.22624 l 0,0.50469 c -0.193362,0.0812 -0.391605,0.14309 -0.594727,0.18564 -0.203127,0.0425 -0.409182,0.0638 -0.618164,0.0638 -0.523439,0 -0.938477,-0.15083 -1.245117,-0.45248 -0.304688,-0.30166 -0.457032,-0.70966 -0.457031,-1.22402 -10e-7,-0.53176 0.14453,-0.95331 0.433594,-1.26463 0.291014,-0.31326 0.682615,-0.46988 1.174804,-0.46989 0.441404,10e-6 0.790037,0.14117 1.045898,0.42348 0.25781,0.28039 0.386716,0.66229 0.386719,1.14571 m -0.539062,-0.15663 c -0.0039,-0.29199 -0.08691,-0.52499 -0.249024,-0.69903 -0.160159,-0.17403 -0.373049,-0.26104 -0.638672,-0.26105 -0.300783,10e-6 -0.541993,0.0841 -0.723633,0.25235 -0.179688,0.16823 -0.283203,0.40511 -0.310546,0.71063 l 1.921875,-0.003 m 1.957031,-2.25661 0,0.92237 1.110351,0 0,0.41477 -1.110351,0 0,1.76352 c -2e-6,0.26492 0.03613,0.43508 0.108398,0.51049 0.07422,0.0754 0.223632,0.11312 0.448242,0.11312 l 0.553711,0 0,0.44668 -0.553711,0 c -0.416016,0 -0.703126,-0.0764 -0.861327,-0.22914 -0.158205,-0.15469 -0.237307,-0.43508 -0.237306,-0.84115 l 0,-1.76352 -0.395507,0 0,-0.41477 0.395507,0 0,-0.92237 0.541993,0 m 6.09375,1.04709 0,0.49889 c -0.152346,-0.0831 -0.305666,-0.14502 -0.459961,-0.18563 -0.152347,-0.0425 -0.306643,-0.0638 -0.46289,-0.0638 -0.349612,0 -0.621096,0.11022 -0.814454,0.33066 -0.19336,0.2185 -0.29004,0.52596 -0.290039,0.92236 -10e-7,0.39641 0.09668,0.70483 0.290039,0.92527 0.193358,0.2185 0.464842,0.32776 0.814454,0.32776 0.156247,0 0.310543,-0.0203 0.46289,-0.0609 0.154295,-0.0425 0.307615,-0.10539 0.459961,-0.18854 l 0,0.49309 c -0.150394,0.0696 -0.306643,0.12182 -0.46875,0.15663 -0.160158,0.0348 -0.331057,0.0522 -0.512696,0.0522 -0.494142,0 -0.88672,-0.15373 -1.177734,-0.46118 -0.291016,-0.30746 -0.436524,-0.72223 -0.436523,-1.24433 -10e-7,-0.52982 0.146484,-0.94653 0.439453,-1.25012 0.294921,-0.30358 0.69824,-0.45538 1.209961,-0.45538 0.166013,0 0.328122,0.0174 0.486328,0.0522 0.1582,0.0329 0.31152,0.0832 0.459961,0.15082 m 2.214843,0.24945 c -0.289063,0 -0.517578,0.11216 -0.685547,0.33646 -0.167969,0.22238 -0.251953,0.5279 -0.251952,0.91656 -10e-7,0.38868 0.083,0.69516 0.249023,0.91947 0.167968,0.22237 0.397459,0.33356 0.688476,0.33356 0.287108,0 0.514647,-0.11215 0.682618,-0.33646 0.167966,-0.22431 0.25195,-0.52983 0.251953,-0.91657 -3e-6,-0.3848 -0.08399,-0.68935 -0.251953,-0.91366 -0.167971,-0.22624 -0.39551,-0.33936 -0.682618,-0.33936 m 0,-0.45248 c 0.468749,0 0.836912,0.15083 1.104493,0.45248 0.267574,0.30166 0.401364,0.71933 0.401367,1.25302 -3e-6,0.53177 -0.133793,0.94944 -0.401367,1.25303 -0.267581,0.30165 -0.635744,0.45248 -1.104493,0.45248 -0.470704,0 -0.839845,-0.15083 -1.107421,-0.45248 -0.265625,-0.30359 -0.398438,-0.72126 -0.398438,-1.25303 0,-0.53369 0.132813,-0.95136 0.398438,-1.25302 0.267576,-0.30165 0.636717,-0.45248 1.107421,-0.45248 m 5.124025,1.36614 0,1.96076 -0.539063,0 0,-1.94335 c -2e-6,-0.30746 -0.06055,-0.53756 -0.18164,-0.69033 -0.121097,-0.15276 -0.302737,-0.22914 -0.544923,-0.22914 -0.291017,0 -0.520508,0.0919 -0.688475,0.27555 -0.16797,0.1837 -0.251954,0.43411 -0.251953,0.75124 l 0,1.83603 -0.541993,0 0,-3.24859 0.541993,0 0,0.50469 c 0.128904,-0.1953 0.280271,-0.34129 0.454101,-0.43798 0.17578,-0.0967 0.377928,-0.14502 0.606445,-0.14502 0.376951,0 0.662107,0.11602 0.855469,0.34806 0.193356,0.23011 0.290035,0.56947 0.290039,1.01808 m 3.172848,-1.19211 0,0.50469 c -0.152346,-0.0773 -0.310548,-0.13535 -0.474609,-0.17403 -0.164065,-0.0387 -0.333986,-0.058 -0.509766,-0.058 -0.267579,0 -0.468751,0.0406 -0.603516,0.12182 -0.132812,0.0812 -0.199219,0.20304 -0.199218,0.36547 -10e-7,0.12376 0.04785,0.22141 0.143555,0.29295 0.09571,0.0696 0.288084,0.13633 0.577148,0.20014 l 0.184571,0.0406 c 0.38281,0.0812 0.654294,0.19627 0.814453,0.34516 0.162106,0.14696 0.24316,0.3529 0.243163,0.61781 -3e-6,0.30165 -0.121096,0.54046 -0.36328,0.71643 -0.240237,0.17596 -0.571291,0.26395 -0.993164,0.26395 -0.175784,0 -0.359377,-0.0174 -0.550782,-0.0522 -0.189453,-0.0329 -0.389648,-0.0831 -0.600586,-0.15083 l 0,-0.5511 c 0.199218,0.10248 0.395508,0.17983 0.588868,0.23204 0.193357,0.0503 0.384764,0.0754 0.574218,0.0754 0.253905,0 0.449217,-0.0425 0.585938,-0.12762 0.136716,-0.087 0.205075,-0.20884 0.205077,-0.36547 -2e-6,-0.14502 -0.04981,-0.25621 -0.149413,-0.33356 -0.09766,-0.0773 -0.313479,-0.15179 -0.647461,-0.22334 l -0.1875,-0.0435 c -0.333986,-0.0696 -0.575196,-0.17596 -0.723633,-0.31906 -0.148438,-0.14502 -0.222657,-0.34322 -0.222656,-0.5946 -1e-6,-0.30552 0.109374,-0.54143 0.328124,-0.70773 0.21875,-0.16629 0.529297,-0.24944 0.931641,-0.24944 0.199218,0 0.386717,0.0145 0.5625,0.0435 0.17578,0.029 0.337888,0.0725 0.486328,0.13052 m 3.843747,1.39515 0,0.26105 -2.478508,0 c 0.02342,0.3674 0.134762,0.64778 0.333977,0.84115 0.201173,0.19143 0.480467,0.28715 0.837891,0.28715 0.207033,0 0.407232,-0.0251 0.600587,-0.0754 0.195315,-0.0503 0.388669,-0.12569 0.580085,-0.22624 l 0,0.50469 c -0.193365,0.0812 -0.391605,0.14309 -0.594728,0.18563 -0.203134,0.0425 -0.409182,0.0638 -0.618165,0.0638 -0.523442,0 -0.938483,-0.15082 -1.245123,-0.45248 -0.304681,-0.30165 -0.457028,-0.70966 -0.457028,-1.22402 0,-0.53176 0.144528,-0.9533 0.433591,-1.26463 0.291022,-0.31325 0.682616,-0.46988 1.174812,-0.46988 0.441403,0 0.790033,0.14116 1.045889,0.42348 0.257817,0.28038 0.38672,0.66228 0.38672,1.1457 m -0.53906,-0.15663 c -0.004,-0.29198 -0.08693,-0.52499 -0.249022,-0.69902 -0.16016,-0.17403 -0.373052,-0.26105 -0.638668,-0.26105 -0.300791,0 -0.541994,0.0841 -0.723641,0.25235 -0.179686,0.16823 -0.283203,0.40511 -0.310539,0.71062 l 1.92187,-0.003 m 3.785161,-1.20951 0,0.49889 c -0.15234,-0.0831 -0.30567,-0.14503 -0.45996,-0.18564 -0.15235,-0.0425 -0.30665,-0.0638 -0.46289,-0.0638 -0.34961,10e-6 -0.6211,0.11023 -0.81445,0.33066 -0.19337,0.21851 -0.29005,0.52597 -0.29004,0.92237 -1e-5,0.3964 0.0967,0.70483 0.29004,0.92527 0.19335,0.2185 0.46484,0.32775 0.81445,0.32775 0.15624,0 0.31054,-0.0203 0.46289,-0.0609 0.15429,-0.0425 0.30762,-0.10538 0.45996,-0.18853 l 0,0.49309 c -0.15039,0.0696 -0.30664,0.12182 -0.46875,0.15663 -0.16016,0.0348 -0.33105,0.0522 -0.5127,0.0522 -0.49414,0 -0.88671,-0.15373 -1.17773,-0.46119 -0.291019,-0.30745 -0.436525,-0.72222 -0.436525,-1.24432 0,-0.52983 0.146481,-0.94653 0.439455,-1.25012 0.29492,-0.30359 0.69824,-0.45538 1.20997,-0.45539 0.166,10e-6 0.32811,0.0174 0.48632,0.0522 0.1582,0.0329 0.31152,0.0832 0.45996,0.15083 m 1.47657,-1.04709 0,0.92237 1.11035,0 0,0.41477 -1.11035,0 0,1.76352 c 0,0.26492 0.0361,0.43508 0.10839,0.51049 0.0742,0.0754 0.22363,0.11312 0.44824,0.11312 l 0.55372,0 0,0.44668 -0.55372,0 c -0.41601,0 -0.70313,-0.0764 -0.86132,-0.22914 -0.15821,-0.15469 -0.23731,-0.43508 -0.23731,-0.84115 l 0,-1.76352 -0.39551,0 0,-0.41477 0.39551,0 0,-0.92237 0.542,0 m 1.54979,2.30592 1.57911,0 0,0.47568 -1.57911,0 0,-0.47568 m -46.725581,14.95798 0,0.26105 -2.478515,0 c 0.02344,0.3674 0.134765,0.64778 0.333985,0.84115 0.20117,0.19144 0.480466,0.28715 0.83789,0.28715 0.207029,0 0.407224,-0.0251 0.600586,-0.0754 0.19531,-0.0503 0.388668,-0.12569 0.580078,-0.22624 l 0,0.50469 c -0.193362,0.0812 -0.391605,0.1431 -0.594726,0.18564 -0.203128,0.0425 -0.409182,0.0638 -0.618165,0.0638 -0.523439,0 -0.938477,-0.15083 -1.245116,-0.45248 -0.304689,-0.30166 -0.457032,-0.70966 -0.457032,-1.22402 0,-0.53176 0.144531,-0.95331 0.433594,-1.26463 0.291014,-0.31325 0.682615,-0.46988 1.174804,-0.46989 0.441404,1e-5 0.790037,0.14117 1.045898,0.42348 0.25781,0.28039 0.386716,0.66229 0.386719,1.14571 m -0.539062,-0.15663 c -0.0039,-0.29198 -0.08691,-0.52499 -0.249023,-0.69902 -0.160159,-0.17403 -0.373049,-0.26105 -0.638673,-0.26105 -0.300782,0 -0.541993,0.0841 -0.723632,0.25234 -0.179688,0.16824 -0.283204,0.40511 -0.310547,0.71063 l 1.921875,-0.003 m 1.957031,-2.2566 0,0.92236 1.110352,0 0,0.41478 -1.110352,0 0,1.76351 c -1e-6,0.26492 0.03613,0.43508 0.108399,0.51049 0.07422,0.0754 0.223631,0.11312 0.448242,0.11312 l 0.553711,0 0,0.44668 -0.553711,0 c -0.416017,0 -0.703126,-0.0764 -0.861328,-0.22914 -0.158204,-0.15468 -0.237305,-0.43506 -0.237304,-0.84113 l 0,-1.76352 -0.395508,0 0,-0.41477 0.395508,0 0,-0.92237 0.541991,0 m 1.766602,2.88892 0,-1.96655 0.539062,0 0,1.94625 c -1e-6,0.30745 0.06054,0.53853 0.181641,0.69322 0.121093,0.15276 0.302733,0.22914 0.544922,0.22914 0.291014,0 0.520505,-0.0918 0.688476,-0.27555 0.169919,-0.1837 0.25488,-0.43411 0.254883,-0.75123 l 0,-1.84183 0.539063,0 0,3.24858 -0.539063,0 0,-0.49889 c -0.130862,0.19724 -0.283205,0.3442 -0.457032,0.44088 -0.171876,0.0948 -0.372071,0.14212 -0.600585,0.14212 -0.376955,0 -0.663087,-0.11602 -0.858398,-0.34806 -0.195314,-0.23204 -0.29297,-0.5714 -0.292969,-1.01808 m 6.670898,-0.47569 0,0.26105 -2.478516,0 c 0.02344,0.3674 0.134765,0.64778 0.333984,0.84115 0.201171,0.19144 0.480468,0.28715 0.837891,0.28715 0.207029,0 0.407224,-0.0251 0.600586,-0.0754 0.19531,-0.0503 0.388669,-0.12569 0.580078,-0.22624 l 0,0.50469 c -0.193362,0.0812 -0.391604,0.1431 -0.594727,0.18564 -0.203126,0.0425 -0.409182,0.0638 -0.618164,0.0638 -0.523439,0 -0.938477,-0.15083 -1.245117,-0.45248 -0.304687,-0.30166 -0.457031,-0.70966 -0.45703,-1.22402 -10e-7,-0.53176 0.14453,-0.95331 0.433593,-1.26463 0.291014,-0.31325 0.682615,-0.46988 1.174805,-0.46989 0.441403,1e-5 0.790036,0.14117 1.045898,0.42348 0.257809,0.28039 0.386716,0.66229 0.386719,1.14571 m -0.539062,-0.15663 c -0.0039,-0.29199 -0.08691,-0.52499 -0.249024,-0.69903 -0.160159,-0.17403 -0.37305,-0.26104 -0.638672,-0.26104 -0.300783,0 -0.541994,0.0841 -0.723633,0.25234 -0.179689,0.16823 -0.283203,0.40511 -0.310547,0.71063 l 1.921876,-0.003 m 3.325195,-0.83535 c -0.06055,-0.0348 -0.126956,-0.0599 -0.199218,-0.0754 -0.07031,-0.0174 -0.14844,-0.0261 -0.234376,-0.0261 -0.304689,0 -0.539064,0.0986 -0.703125,0.29585 -0.16211,0.1953 -0.243165,0.47666 -0.243164,0.84405 l 0,1.71131 -0.541992,0 0,-3.24858 0.541992,0 0,0.50469 c 0.11328,-0.19724 0.260741,-0.34323 0.442384,-0.43798 0.181638,-0.0967 0.402341,-0.14502 0.662109,-0.14503 0.0371,10e-6 0.07812,0.003 0.123047,0.009 0.04492,0.004 0.09472,0.0106 0.149413,0.0203 l 0.0029,0.5482 m 3.972657,1.1167 c -0.435548,0 -0.737306,0.0493 -0.905273,0.14793 -0.167971,0.0986 -0.251955,0.26685 -0.251954,0.50469 -1e-6,0.1895 0.0625,0.34033 0.1875,0.45248 0.126952,0.11022 0.298827,0.16533 0.515625,0.16533 0.298826,0 0.538084,-0.10442 0.717774,-0.31326 0.181637,-0.21077 0.272457,-0.49018 0.27246,-0.83825 l 0,-0.11892 -0.536132,0 m 1.075194,-0.22044 0,1.85343 -0.539062,0 0,-0.49308 c -0.123049,0.19723 -0.276369,0.34323 -0.459961,0.43797 -0.183595,0.0928 -0.408204,0.13923 -0.673827,0.13923 -0.335939,0 -0.603517,-0.0928 -0.802735,-0.27845 -0.197267,-0.18757 -0.295899,-0.43798 -0.295899,-0.75124 0,-0.36546 0.123047,-0.64101 0.369141,-0.82664 0.248046,-0.18563 0.617186,-0.27845 1.107423,-0.27845 l 0.755858,0 0,-0.0522 c -3e-6,-0.24558 -0.08203,-0.43508 -0.246094,-0.5685 -0.162111,-0.13536 -0.390626,-0.20304 -0.685547,-0.20304 -0.1875,0 -0.370118,0.0222 -0.54785,0.0667 -0.177736,0.0445 -0.348634,0.11119 -0.512696,0.20014 l 0,-0.49309 c 0.197264,-0.0754 0.388671,-0.13149 0.574219,-0.16823 0.185545,-0.0387 0.366209,-0.058 0.541992,-0.058 0.474608,0 0.829099,0.12182 1.063476,0.36546 0.234373,0.24365 0.351559,0.61298 0.351562,1.108 m 3.272463,-0.90206 0,-1.75772 0.539062,0 0,4.51321 -0.539062,0 0,-0.48728 c -0.113285,0.19336 -0.256839,0.33742 -0.430664,0.43217 -0.171878,0.0928 -0.378909,0.13923 -0.621095,0.13923 -0.396485,0 -0.719727,-0.15663 -0.969726,-0.46989 -0.248048,-0.31325 -0.372071,-0.72512 -0.372071,-1.23562 0,-0.51049 0.124023,-0.92236 0.372071,-1.23562 0.249999,-0.31325 0.573241,-0.46988 0.969726,-0.46988 0.242186,0 0.449217,0.0474 0.621095,0.14212 0.173825,0.0928 0.317379,0.23591 0.430664,0.42928 m -1.8369,1.13408 c -10e-7,0.39254 0.08105,0.70096 0.243165,0.92526 0.16406,0.22238 0.388669,0.33356 0.673827,0.33356 0.285154,0 0.509764,-0.11118 0.673829,-0.33356 0.164059,-0.2243 0.246091,-0.53272 0.246094,-0.92526 -3e-6,-0.39254 -0.08204,-0.69999 -0.246094,-0.92237 -0.164065,-0.2243 -0.388675,-0.33646 -0.673829,-0.33646 -0.285158,0 -0.509767,0.11216 -0.673827,0.33646 -0.162111,0.22238 -0.243166,0.52983 -0.243165,0.92237 m 3.486327,-1.6272 0.539062,0 0,3.24859 -0.539062,0 0,-3.24859 m 0,-1.26462 0.539062,0 0,0.67582 -0.539062,0 0,-0.67582 m 2.185548,4.02592 0,1.72291 -0.541992,0 0,-4.48421 0.541992,0 0,0.49309 c 0.11328,-0.19336 0.255859,-0.33645 0.427734,-0.42927 0.173827,-0.0947 0.380858,-0.14213 0.621095,-0.14213 0.398434,0 0.721676,0.15663 0.969726,0.46989 0.249996,0.31326 0.374996,0.72513 0.375,1.23562 -4e-6,0.51049 -0.125004,0.92236 -0.375,1.23562 -0.24805,0.31326 -0.571292,0.46988 -0.969726,0.46988 -0.240237,0 -0.447268,-0.0464 -0.621095,-0.13922 -0.171875,-0.0947 -0.314454,-0.23881 -0.427734,-0.43218 m 1.833985,-1.1341 c -3e-6,-0.39254 -0.08204,-0.69999 -0.246094,-0.92237 -0.162112,-0.2243 -0.385744,-0.33646 -0.670898,-0.33646 -0.285158,0 -0.509768,0.11216 -0.673829,0.33646 -0.162111,0.22238 -0.243165,0.52983 -0.243164,0.92237 -10e-7,0.39254 0.08105,0.70096 0.243164,0.92526 0.164061,0.22238 0.388671,0.33356 0.673829,0.33356 0.285154,0 0.508786,-0.11118 0.670898,-0.33356 0.164059,-0.2243 0.246091,-0.53272 0.246094,-0.92526 m 1.453123,-1.6272 0.539063,0 0,3.24859 -0.539063,0 0,-3.24859 m 0,-1.26462 0.539063,0 0,0.67582 -0.539063,0 0,-0.67582 m 3.755861,1.36034 0,0.50469 c -0.152346,-0.0773 -0.310549,-0.13535 -0.474609,-0.17403 -0.164065,-0.0387 -0.333987,-0.058 -0.509766,-0.058 -0.267579,0 -0.468751,0.0406 -0.603515,0.12182 -0.132814,0.0812 -0.199221,0.20304 -0.19922,0.36547 -10e-7,0.12376 0.04785,0.22141 0.143556,0.29295 0.0957,0.0696 0.288084,0.13633 0.577148,0.20014 l 0.18457,0.0406 c 0.38281,0.0812 0.654295,0.19627 0.814453,0.34516 0.162107,0.14696 0.243162,0.3529 0.243165,0.61781 -3e-6,0.30165 -0.121097,0.54046 -0.363282,0.71643 -0.240236,0.17596 -0.571291,0.26395 -0.993164,0.26395 -0.175783,0 -0.359376,-0.0174 -0.550781,-0.0522 -0.189454,-0.0329 -0.389649,-0.0832 -0.600586,-0.15083 l 0,-0.5511 c 0.199218,0.10248 0.395507,0.17983 0.588867,0.23204 0.193359,0.0503 0.384765,0.0754 0.574219,0.0754 0.253904,0 0.449217,-0.0425 0.585937,-0.12762 0.136716,-0.087 0.205076,-0.20884 0.205078,-0.36547 -2e-6,-0.14502 -0.04981,-0.25621 -0.149414,-0.33356 -0.09766,-0.0773 -0.313478,-0.15179 -0.647461,-0.22334 l -0.1875,-0.0435 c -0.333985,-0.0696 -0.575196,-0.17596 -0.723633,-0.31905 -0.148438,-0.14503 -0.222656,-0.34323 -0.222656,-0.59461 0,-0.30552 0.109375,-0.54143 0.328125,-0.70773 0.218749,-0.16629 0.529296,-0.24944 0.931641,-0.24944 0.199217,0 0.386716,0.0145 0.5625,0.0435 0.175779,0.029 0.337888,0.0725 0.486328,0.13052 m 3.398438,0.029 0,0.49889 c -0.152347,-0.0831 -0.305667,-0.14502 -0.459961,-0.18563 -0.152346,-0.0425 -0.306643,-0.0638 -0.462891,-0.0638 -0.349611,0 -0.621095,0.11022 -0.814453,0.33066 -0.19336,0.2185 -0.29004,0.52596 -0.290039,0.92236 -10e-7,0.39641 0.09668,0.70483 0.290039,0.92527 0.193358,0.2185 0.464842,0.32776 0.814453,0.32776 0.156248,0 0.310545,-0.0203 0.462891,-0.0609 0.154294,-0.0425 0.307614,-0.10539 0.459961,-0.18854 l 0,0.49309 c -0.150393,0.0696 -0.306643,0.12182 -0.46875,0.15663 -0.160159,0.0348 -0.331057,0.0522 -0.512695,0.0522 -0.494142,0 -0.88672,-0.15373 -1.177735,-0.46118 -0.291016,-0.30746 -0.436524,-0.72223 -0.436524,-1.24433 0,-0.52982 0.146484,-0.94653 0.439454,-1.25012 0.294921,-0.30359 0.69824,-0.45538 1.209961,-0.45538 0.166013,0 0.328122,0.0174 0.486328,0.0522 0.1582,0.0329 0.31152,0.0831 0.459961,0.15082 m 0.943359,-0.12472 0.539063,0 0,3.24859 -0.539063,0 0,-3.24859 m 0,-1.26462 0.539063,0 0,0.67582 -0.539063,0 0,-0.67582 m 4.391593,2.55245 0,1.96076 -0.539061,0 0,-1.94335 c 0,-0.30746 -0.0605,-0.53756 -0.181636,-0.69033 -0.121104,-0.15275 -0.302741,-0.22914 -0.544929,-0.22914 -0.291012,0 -0.520508,0.0918 -0.688476,0.27555 -0.167968,0.1837 -0.251947,0.43412 -0.251947,0.75124 l 0,1.83603 -0.541995,0 0,-3.24859 0.541995,0 0,0.50469 c 0.128903,-0.1953 0.280269,-0.34129 0.454096,-0.43798 0.175787,-0.0967 0.377926,-0.14502 0.606446,-0.14502 0.376951,0 0.662104,0.11602 0.855469,0.34806 0.193355,0.23011 0.290038,0.56947 0.290038,1.01808 m 3.240241,0.29876 c 0,-0.38674 -0.081,-0.68646 -0.24317,-0.89916 -0.16015,-0.21271 -0.38574,-0.31906 -0.67675,-0.31906 -0.28906,0 -0.51465,0.10635 -0.67676,0.31906 -0.16016,0.2127 -0.24024,0.51242 -0.24024,0.89916 0,0.3848 0.0801,0.68355 0.24024,0.89626 0.16211,0.2127 0.3877,0.31906 0.67676,0.31906 0.29101,0 0.5166,-0.10636 0.67675,-0.31906 0.16211,-0.21271 0.24317,-0.51146 0.24317,-0.89626 m 0.53906,1.25882 c 0,0.55304 -0.12403,0.96394 -0.37207,1.23273 -0.24805,0.27071 -0.62793,0.40607 -1.13965,0.40607 -0.18945,0 -0.36816,-0.0145 -0.53613,-0.0435 -0.16797,-0.0271 -0.33105,-0.0696 -0.48926,-0.12763 l 0,-0.51919 c 0.15821,0.0851 0.31446,0.14793 0.46875,0.18854 0.1543,0.0406 0.31152,0.0609 0.47168,0.0609 0.35351,0 0.61817,-0.0919 0.79394,-0.27555 0.17578,-0.18177 0.26368,-0.45732 0.26368,-0.82665 l 0,-0.26395 c -0.11134,0.19144 -0.25391,0.33453 -0.42774,0.42928 -0.17382,0.0948 -0.38183,0.14212 -0.62402,0.14212 -0.40235,0 -0.72657,-0.15179 -0.97265,-0.45538 -0.2461,-0.30359 -0.36915,-0.70579 -0.36915,-1.20661 0,-0.50276 0.12305,-0.90593 0.36915,-1.20952 0.24608,-0.30359 0.5703,-0.45538 0.97265,-0.45538 0.24219,0 0.4502,0.0474 0.62402,0.14212 0.17383,0.0948 0.3164,0.23785 0.42774,0.42928 l 0,-0.49309 0.53906,0 0,2.84541 m -44.352521,13.49611 0,0.26105 -2.478515,0 c 0.02344,0.3674 0.134765,0.64778 0.333985,0.84115 0.20117,0.19144 0.480466,0.28715 0.83789,0.28715 0.207029,0 0.407224,-0.0251 0.600586,-0.0754 0.19531,-0.0503 0.388668,-0.12568 0.580078,-0.22624 l 0,0.50469 c -0.193362,0.0812 -0.391605,0.1431 -0.594726,0.18564 -0.203128,0.0425 -0.409182,0.0638 -0.618165,0.0638 -0.523439,0 -0.938477,-0.15083 -1.245116,-0.45248 -0.304689,-0.30166 -0.457032,-0.70966 -0.457032,-1.22402 0,-0.53176 0.144531,-0.95331 0.433594,-1.26463 0.291014,-0.31325 0.682615,-0.46988 1.174804,-0.46989 0.441404,10e-6 0.790037,0.14117 1.045898,0.42348 0.25781,0.28039 0.386716,0.66229 0.386719,1.14571 m -0.539062,-0.15663 c -0.0039,-0.29199 -0.08691,-0.525 -0.249023,-0.69903 -0.160159,-0.17403 -0.373049,-0.26104 -0.638673,-0.26104 -0.300782,0 -0.541993,0.0841 -0.723632,0.25234 -0.179688,0.16823 -0.283204,0.40511 -0.310547,0.71063 l 1.921875,-0.003 m 1.423828,-2.59887 0.539062,0 0,4.51321 -0.539062,0 0,-4.51321 m 1.664062,1.26463 0.539063,0 0,3.24858 -0.539063,0 0,-3.24858 m 0,-1.26463 0.539063,0 0,0.67582 -0.539063,0 0,-0.67582 m 2.197267,0.34226 0,0.92237 1.110351,0 0,0.41477 -1.110351,0 0,1.76352 c -2e-6,0.26491 0.03613,0.43508 0.108398,0.51049 0.07422,0.0754 0.223631,0.11312 0.448242,0.11312 l 0.553711,0 0,0.44668 -0.553711,0 c -0.416016,0 -0.703126,-0.0764 -0.861328,-0.22914 -0.158204,-0.15468 -0.237306,-0.43506 -0.237305,-0.84114 l 0,-1.76351 -0.395507,0 0,-0.41478 0.395507,0 0,-0.92236 0.541993,0 m 1.898437,3.43421 0.618163,0 0,0.73674 -0.618163,0 0,-0.73674 m 4.359375,-3.11226 0,1.6272 0.74414,0 c 0.275388,0 0.488278,-0.0706 0.638672,-0.21174 0.150387,-0.14116 0.225583,-0.34226 0.225586,-0.60331 -3e-6,-0.25911 -0.0752,-0.45925 -0.225586,-0.60041 -0.150394,-0.14115 -0.363284,-0.21173 -0.638672,-0.21174 l -0.74414,0 m -0.591798,-0.48148 1.335938,0 c 0.490232,0 0.860348,0.11022 1.110352,0.33066 0.251949,0.21851 0.377926,0.5395 0.377929,0.96297 -3e-6,0.42735 -0.12598,0.75027 -0.377929,0.96877 -0.250004,0.21851 -0.62012,0.32777 -1.110352,0.32776 l -0.74414,0 0,1.74032 -0.591798,0 0,-4.33048 m 6.325195,2.36972 0,1.96076 -0.539062,0 0,-1.94335 c -3e-6,-0.30746 -0.06055,-0.53756 -0.181641,-0.69033 -0.121096,-0.15276 -0.302736,-0.22914 -0.544922,-0.22914 -0.291017,0 -0.520509,0.0918 -0.688476,0.27555 -0.16797,0.1837 -0.251954,0.43411 -0.251953,0.75124 l 0,1.83603 -0.541992,0 0,-4.51322 0.541992,0 0,1.76932 c 0.128905,-0.1953 0.280272,-0.34129 0.454102,-0.43798 0.175779,-0.0967 0.377927,-0.14502 0.606445,-0.14502 0.37695,0 0.662106,0.11602 0.855468,0.34806 0.193357,0.23011 0.290036,0.56947 0.290039,1.01808 m 2.572266,0.32776 c -0.435548,0 -0.737305,0.0493 -0.905272,0.14793 -0.16797,0.0986 -0.251955,0.26685 -0.251954,0.50469 -10e-7,0.1895 0.0625,0.34033 0.1875,0.45248 0.126952,0.11022 0.298827,0.16533 0.515625,0.16533 0.298826,0 0.538084,-0.10442 0.717774,-0.31326 0.181637,-0.21077 0.272458,-0.49018 0.272461,-0.83825 l 0,-0.11892 -0.536134,0 m 1.075196,-0.22044 0,1.85344 -0.539062,0 0,-0.49309 c -0.123049,0.19723 -0.27637,0.34323 -0.459962,0.43798 -0.183595,0.0928 -0.408205,0.13922 -0.673827,0.13922 -0.33594,0 -0.603517,-0.0928 -0.802735,-0.27845 -0.197266,-0.18757 -0.295899,-0.43798 -0.295899,-0.75123 0,-0.36547 0.123047,-0.64102 0.369142,-0.82665 0.248045,-0.18563 0.617185,-0.27845 1.107421,-0.27845 l 0.75586,0 0,-0.0522 c -3e-6,-0.24558 -0.08203,-0.43508 -0.246094,-0.56851 -0.162111,-0.13535 -0.390627,-0.20303 -0.685547,-0.20303 -0.187501,0 -0.370118,0.0222 -0.547851,0.0667 -0.177736,0.0445 -0.348634,0.11119 -0.512696,0.20013 l 0,-0.49308 c 0.197265,-0.0754 0.388671,-0.13149 0.574219,-0.16823 0.185546,-0.0387 0.366209,-0.058 0.541992,-0.058 0.474607,0 0.829099,0.12182 1.063476,0.36546 0.234373,0.24365 0.35156,0.61298 0.351563,1.108 m 3.205079,-1.29943 0,0.50469 c -0.152347,-0.0773 -0.31055,-0.13536 -0.47461,-0.17403 -0.164065,-0.0387 -0.333987,-0.058 -0.509766,-0.058 -0.267579,0 -0.468751,0.0406 -0.603515,0.12182 -0.132814,0.0812 -0.199219,0.20304 -0.199219,0.36546 0,0.12376 0.04785,0.22141 0.143555,0.29296 0.0957,0.0696 0.288084,0.13632 0.577148,0.20013 l 0.18457,0.0406 c 0.38281,0.0812 0.654295,0.19627 0.814453,0.34516 0.162107,0.14697 0.243162,0.3529 0.243165,0.61782 -3e-6,0.30165 -0.121097,0.54046 -0.363282,0.71642 -0.240236,0.17597 -0.571291,0.26395 -0.993163,0.26395 -0.175783,0 -0.359377,-0.0174 -0.550782,-0.0522 -0.189454,-0.0329 -0.389649,-0.0832 -0.600586,-0.15082 l 0,-0.5511 c 0.199218,0.10248 0.395507,0.17983 0.588867,0.23204 0.193359,0.0503 0.384765,0.0754 0.574219,0.0754 0.253904,0 0.449217,-0.0425 0.585937,-0.12762 0.136717,-0.087 0.205077,-0.20884 0.205079,-0.36547 -2e-6,-0.14503 -0.04981,-0.25621 -0.149414,-0.33356 -0.09766,-0.0773 -0.313478,-0.15179 -0.647461,-0.22334 l -0.187501,-0.0435 c -0.333984,-0.0696 -0.575195,-0.17596 -0.723632,-0.31906 -0.148438,-0.14502 -0.222657,-0.34322 -0.222657,-0.59461 0,-0.30551 0.109375,-0.54142 0.328126,-0.70772 0.218748,-0.1663 0.529295,-0.24944 0.931641,-0.24945 0.199216,1e-5 0.386716,0.0145 0.5625,0.0435 0.175778,0.029 0.337888,0.0725 0.486328,0.13053 m 3.843749,1.39515 0,0.26104 -2.478515,0 c 0.02344,0.3674 0.134765,0.64779 0.333984,0.84115 0.201171,0.19144 0.480468,0.28716 0.837891,0.28716 0.207029,0 0.407224,-0.0251 0.600586,-0.0754 0.19531,-0.0503 0.388669,-0.12569 0.580078,-0.22624 l 0,0.50469 c -0.193362,0.0812 -0.391604,0.14309 -0.594727,0.18563 -0.203127,0.0425 -0.409182,0.0638 -0.618164,0.0638 -0.523439,0 -0.938477,-0.15083 -1.245117,-0.45248 -0.304687,-0.30166 -0.457032,-0.70966 -0.457031,-1.22402 -10e-7,-0.53176 0.144531,-0.9533 0.433594,-1.26463 0.291014,-0.31325 0.682615,-0.46988 1.174804,-0.46988 0.441404,0 0.790037,0.14116 1.045899,0.42347 0.257809,0.28039 0.386715,0.66229 0.386718,1.14571 m -0.539062,-0.15663 c -0.0039,-0.29198 -0.08691,-0.52499 -0.249023,-0.69903 -0.160159,-0.17402 -0.37305,-0.26104 -0.638672,-0.26104 -0.300783,0 -0.541994,0.0841 -0.723633,0.25234 -0.179689,0.16824 -0.283205,0.40511 -0.310547,0.71063 l 1.921875,-0.003 m 1.423828,-2.59887 0.539063,0 0,4.51321 -0.539063,0 0,-4.51321 m 1.664062,0 0.539063,0 0,4.51321 -0.539063,0 0,-4.51321 m 1.608398,3.23118 0,-1.96655 0.539062,0 0,1.94625 c -10e-7,0.30746 0.06054,0.53853 0.18164,0.69323 0.121093,0.15276 0.302734,0.22914 0.544922,0.22914 0.291014,0 0.520506,-0.0918 0.688477,-0.27555 0.169919,-0.1837 0.25488,-0.43411 0.254883,-0.75124 l 0,-1.84183 0.539062,0 0,3.24858 -0.539062,0 0,-0.49888 c -0.130862,0.19723 -0.283205,0.34419 -0.457032,0.44087 -0.171876,0.0948 -0.372071,0.14213 -0.600586,0.14213 -0.376954,0 -0.663087,-0.11602 -0.858398,-0.34806 -0.195313,-0.23204 -0.292969,-0.5714 -0.292968,-1.01809 m 5.956058,-1.87083 0,0.50469 c -0.15235,-0.0773 -0.310552,-0.13536 -0.474613,-0.17403 -0.164064,-0.0387 -0.333986,-0.058 -0.509765,-0.058 -0.26758,0 -0.468751,0.0406 -0.603515,0.12182 -0.132814,0.0812 -0.19922,0.20304 -0.199219,0.36547 -10e-7,0.12375 0.04785,0.2214 0.143554,0.29295 0.0957,0.0696 0.288084,0.13633 0.577149,0.20013 l 0.18457,0.0406 c 0.38281,0.0812 0.654294,0.19628 0.814452,0.34517 0.162109,0.14696 0.243164,0.35289 0.243164,0.61781 0,0.30165 -0.121095,0.54046 -0.36328,0.71643 -0.240237,0.17596 -0.571291,0.26394 -0.993164,0.26394 -0.175782,0 -0.359377,-0.0174 -0.550782,-0.0522 -0.189453,-0.0329 -0.389648,-0.0832 -0.600586,-0.15082 l 0,-0.5511 c 0.199218,0.10249 0.395508,0.17983 0.588868,0.23204 0.193358,0.0503 0.384764,0.0754 0.574218,0.0754 0.253905,0 0.449217,-0.0425 0.585938,-0.12762 0.136716,-0.087 0.205076,-0.20884 0.205079,-0.36547 -3e-6,-0.14502 -0.04981,-0.25621 -0.149415,-0.33356 -0.09766,-0.0773 -0.313478,-0.15179 -0.647461,-0.22334 l -0.1875,-0.0435 c -0.333985,-0.0696 -0.575196,-0.17596 -0.723633,-0.31905 -0.148437,-0.14503 -0.222656,-0.34323 -0.222656,-0.59461 0,-0.30552 0.109375,-0.54143 0.328125,-0.70773 0.218749,-0.16629 0.529296,-0.24944 0.931641,-0.24944 0.199217,0 0.386716,0.0145 0.5625,0.0435 0.175779,0.029 0.337888,0.0725 0.486331,0.13052 m 5.674803,1.19212 0,1.96075 -0.53906,0 0,-1.94335 c 0,-0.30745 -0.0605,-0.53756 -0.18164,-0.69033 -0.12111,-0.15275 -0.30274,-0.22913 -0.54493,-0.22914 -0.29101,1e-5 -0.52051,0.0918 -0.688477,0.27555 -0.167968,0.18371 -0.251947,0.43412 -0.251947,0.75124 l 0,1.83603 -0.541994,0 0,-4.51321 0.541994,0 0,1.76932 c 0.128903,-0.1953 0.280269,-0.3413 0.454094,-0.43798 0.17578,-0.0967 0.37793,-0.14503 0.60645,-0.14503 0.37695,0 0.6621,0.11602 0.85547,0.34806 0.19335,0.23011 0.29004,0.56947 0.29004,1.01809 m 3.88769,0.20303 0,0.26105 -2.47851,0 c 0.0234,0.3674 0.13476,0.64778 0.33398,0.84115 0.20118,0.19143 0.48047,0.28715 0.83789,0.28715 0.20703,0 0.40723,-0.0251 0.60059,-0.0754 0.19531,-0.0503 0.38867,-0.12569 0.58008,-0.22624 l 0,0.50469 c -0.19337,0.0812 -0.39161,0.14309 -0.59473,0.18564 -0.20313,0.0425 -0.40918,0.0638 -0.61817,0.0638 -0.52343,0 -0.93847,-0.15083 -1.24511,-0.45249 -0.30469,-0.30165 -0.45703,-0.70966 -0.45703,-1.22402 0,-0.53176 0.14453,-0.9533 0.43359,-1.26462 0.29102,-0.31326 0.68262,-0.46988 1.17481,-0.46989 0.4414,1e-5 0.79003,0.14116 1.04589,0.42348 0.25781,0.28038 0.38672,0.66229 0.38672,1.1457 m -0.53906,-0.15662 c -0.004,-0.29199 -0.0869,-0.525 -0.24902,-0.69903 -0.16016,-0.17403 -0.37305,-0.26104 -0.63868,-0.26105 -0.30078,1e-5 -0.54199,0.0841 -0.72363,0.25235 -0.17968,0.16823 -0.2832,0.40511 -0.31054,0.71063 l 1.92187,-0.003 m 1.15137,0.0493 1.5791,0 0,0.47568 -1.5791,0 0,-0.47568 m -47.800781,14.75495 0,1.96075 -0.539063,0 0,-1.94335 c -4e-6,-0.30745 -0.06055,-0.53756 -0.181641,-0.69032 -0.121096,-0.15276 -0.302737,-0.22914 -0.544922,-0.22914 -0.291017,0 -0.52051,0.0919 -0.688477,0.27555 -0.167969,0.1837 -0.251954,0.43411 -0.251953,0.75123 l 0,1.83603 -0.541992,0 0,-3.24858 0.541992,0 0,0.50469 c 0.128905,-0.1953 0.280273,-0.34129 0.454102,-0.43798 0.175779,-0.0967 0.377928,-0.14502 0.606445,-0.14503 0.376951,1e-5 0.662107,0.11603 0.855469,0.34806 0.193356,0.23011 0.290036,0.56948 0.29004,1.01809 m 3.240234,-0.79475 0,-1.75771 0.539062,0 0,4.51321 -0.539062,0 0,-0.48729 c -0.113284,0.19337 -0.256839,0.33743 -0.430664,0.43218 -0.171878,0.0928 -0.378909,0.13922 -0.621095,0.13922 -0.396485,0 -0.719727,-0.15662 -0.969726,-0.46988 -0.248047,-0.31326 -0.37207,-0.72513 -0.37207,-1.23562 0,-0.51049 0.124023,-0.92237 0.37207,-1.23562 0.249999,-0.31326 0.573241,-0.46988 0.969726,-0.46989 0.242186,1e-5 0.449217,0.0474 0.621095,0.14213 0.173825,0.0928 0.31738,0.23591 0.430664,0.42927 m -1.836915,1.13411 c -1e-6,0.39254 0.08106,0.70096 0.243165,0.92526 0.16406,0.22238 0.38867,0.33356 0.673827,0.33356 0.285154,0 0.509764,-0.11118 0.673829,-0.33356 0.164059,-0.2243 0.246091,-0.53272 0.246094,-0.92526 -3e-6,-0.39254 -0.08204,-0.69999 -0.246094,-0.92237 -0.164065,-0.2243 -0.388675,-0.33645 -0.673829,-0.33646 -0.285157,1e-5 -0.509767,0.11216 -0.673827,0.33646 -0.162111,0.22238 -0.243166,0.52983 -0.243165,0.92237 m 5.387696,-1.1283 c -0.06055,-0.0348 -0.126956,-0.0599 -0.199219,-0.0754 -0.07031,-0.0174 -0.14844,-0.0261 -0.234375,-0.0261 -0.304689,0 -0.539064,0.0986 -0.703125,0.29585 -0.162111,0.1953 -0.243165,0.47665 -0.243164,0.84405 l 0,1.71131 -0.541993,0 0,-3.24859 0.541993,0 0,0.5047 c 0.11328,-0.19724 0.260741,-0.34323 0.442383,-0.43798 0.181639,-0.0967 0.402341,-0.14503 0.662109,-0.14503 0.0371,0 0.07812,0.003 0.123047,0.009 0.04492,0.004 0.09472,0.0106 0.149414,0.0203 l 0.0029,0.5482 m 3.246093,0.99198 0,0.26104 -2.478515,0 c 0.02344,0.3674 0.134764,0.64779 0.333984,0.84116 0.201171,0.19143 0.480467,0.28715 0.837891,0.28715 0.207029,0 0.407224,-0.0251 0.600586,-0.0754 0.19531,-0.0503 0.388668,-0.12569 0.580078,-0.22625 l 0,0.5047 c -0.193362,0.0812 -0.391605,0.14309 -0.594727,0.18563 -0.203127,0.0425 -0.409182,0.0638 -0.618164,0.0638 -0.523439,0 -0.938477,-0.15083 -1.245117,-0.45248 -0.304688,-0.30166 -0.457031,-0.70966 -0.45703,-1.22402 -10e-7,-0.53176 0.144529,-0.9533 0.433593,-1.26463 0.291014,-0.31325 0.682615,-0.46988 1.174804,-0.46988 0.441404,0 0.790037,0.14116 1.045898,0.42347 0.25781,0.28039 0.386716,0.66229 0.386719,1.14571 m -0.539057,-0.15665 c -0.0039,-0.29198 -0.08691,-0.52499 -0.249023,-0.69902 -0.16016,-0.17403 -0.37305,-0.26105 -0.638673,-0.26105 -0.300783,0 -0.541993,0.0841 -0.723633,0.25234 -0.179688,0.16824 -0.283204,0.40511 -0.310546,0.71063 l 1.921875,-0.003 m 3.325194,-0.83535 c -0.06055,-0.0348 -0.126955,-0.0599 -0.199218,-0.0754 -0.07031,-0.0174 -0.148439,-0.0261 -0.234375,-0.0261 -0.30469,0 -0.539064,0.0986 -0.703125,0.29585 -0.162111,0.19531 -0.243165,0.47666 -0.243164,0.84406 l 0,1.7113 -0.541992,0 0,-3.24858 0.541992,0 0,0.50469 c 0.11328,-0.19723 0.260741,-0.34323 0.442382,-0.43798 0.18164,-0.0967 0.402343,-0.14502 0.66211,-0.14503 0.03711,1e-5 0.07812,0.003 0.123047,0.009 0.04491,0.004 0.09472,0.0106 0.149414,0.0203 l 0.0029,0.5482 m 0.57129,-0.49889 0.539062,0 0,3.24859 -0.539062,0 0,-3.24859 m 0,-1.26462 0.539062,0 0,0.67582 -0.539062,0 0,-0.67582 m 2.197265,0.34226 0,0.92236 1.110352,0 0,0.41478 -1.110352,0 0,1.76351 c -1e-6,0.26492 0.03613,0.43508 0.108399,0.5105 0.07422,0.0754 0.223631,0.11312 0.448242,0.11312 l 0.553711,0 0,0.44668 -0.553711,0 c -0.416017,0 -0.703126,-0.0764 -0.861328,-0.22914 -0.158204,-0.1547 -0.237306,-0.43508 -0.237306,-0.84116 l 0,-1.76351 -0.395507,0 0,-0.41478 0.395507,0 0,-0.92236 0.541993,0 m 1.898439,3.43421 0.618163,0 0,0.73674 -0.618163,0 0,-0.73674 m 3.767577,-3.59374 0.796876,0 1.939453,3.62275 0,-3.62275 0.574219,0 0,4.33048 -0.796875,0 -1.939453,-3.62275 0,3.62275 -0.57422,0 0,-4.33048 m 5.956055,2.69748 c -0.435548,0 -0.737306,0.0493 -0.905273,0.14793 -0.167971,0.0986 -0.251955,0.26685 -0.251954,0.50469 -1e-6,0.1895 0.0625,0.34033 0.1875,0.45248 0.126953,0.11022 0.298827,0.16533 0.515625,0.16533 0.298826,0 0.538084,-0.10442 0.717774,-0.31325 0.181637,-0.21077 0.272458,-0.49019 0.272461,-0.83825 l 0,-0.11893 -0.536133,0 m 1.075196,-0.22044 0,1.85344 -0.539063,0 0,-0.49309 c -0.12305,0.19723 -0.27637,0.34323 -0.459962,0.43798 -0.183595,0.0928 -0.408204,0.13922 -0.673827,0.13922 -0.335939,0 -0.603517,-0.0928 -0.802735,-0.27845 -0.197265,-0.18756 -0.295899,-0.43798 -0.295899,-0.75123 0,-0.36547 0.123047,-0.64102 0.369141,-0.82665 0.248046,-0.18563 0.617186,-0.27845 1.107423,-0.27845 l 0.755859,0 0,-0.0522 c -3e-6,-0.24558 -0.08203,-0.43508 -0.246095,-0.5685 -0.16211,-0.13536 -0.390626,-0.20304 -0.685547,-0.20304 -0.1875,0 -0.370117,0.0222 -0.54785,0.0667 -0.177736,0.0445 -0.348634,0.11119 -0.512696,0.20014 l 0,-0.49309 c 0.197265,-0.0754 0.388671,-0.13149 0.574219,-0.16823 0.185546,-0.0387 0.366209,-0.058 0.541992,-0.058 0.474608,0 0.829099,0.12182 1.063476,0.36546 0.234373,0.24365 0.35156,0.61298 0.351564,1.108 m 3.667968,-0.77154 c 0.134763,-0.23977 0.295895,-0.4167 0.483399,-0.53079 0.187495,-0.11409 0.408199,-0.17113 0.662109,-0.17113 0.341792,0 0.605464,0.11892 0.791016,0.35676 0.185541,0.23591 0.278315,0.57237 0.27832,1.00938 l 0,1.96075 -0.541993,0 0,-1.94334 c -4e-6,-0.31132 -0.05567,-0.5424 -0.166991,-0.69323 -0.111333,-0.15082 -0.281255,-0.22624 -0.509766,-0.22624 -0.279301,0 -0.500004,0.0918 -0.66211,0.27555 -0.162112,0.1837 -0.243166,0.43411 -0.243163,0.75123 l 0,1.83603 -0.541993,0 0,-1.94334 c -2e-6,-0.31326 -0.05567,-0.54433 -0.166992,-0.69323 -0.111331,-0.15082 -0.283206,-0.22624 -0.515625,-0.22624 -0.275393,0 -0.494142,0.0928 -0.65625,0.27845 -0.16211,0.1837 -0.243165,0.43315 -0.243164,0.74833 l 0,1.83603 -0.541992,0 0,-3.24858 0.541992,0 0,0.50469 c 0.123045,-0.19916 0.270506,-0.34612 0.442383,-0.44088 0.171874,-0.0947 0.375974,-0.14212 0.612304,-0.14212 0.238279,0 0.440427,0.06 0.606446,0.17983 0.167966,0.11989 0.291989,0.29392 0.37207,0.52209 m 7.564456,-0.49889 0,0.49889 c -0.152336,-0.0832 -0.305661,-0.14505 -0.459951,-0.18566 -0.15235,-0.0425 -0.30664,-0.0638 -0.46289,-0.0638 -0.349615,0 -0.621099,0.11022 -0.814454,0.33066 -0.193355,0.21851 -0.29004,0.52596 -0.290039,0.92236 -10e-7,0.39641 0.09668,0.70483 0.290039,0.92527 0.193355,0.21851 0.464839,0.32776 0.814454,0.32776 0.15625,0 0.31054,-0.0203 0.46289,-0.0609 0.15429,-0.0425 0.307615,-0.10539 0.459965,-0.18853 l 0,0.49308 c -0.1504,0.0696 -0.30665,0.12183 -0.468749,0.15663 -0.160159,0.0348 -0.331062,0.0522 -0.512698,0.0522 -0.494146,0 -0.886725,-0.15373 -1.177736,-0.46118 -0.291017,-0.30746 -0.436524,-0.72223 -0.436524,-1.24432 0,-0.52983 0.146484,-0.94654 0.439453,-1.25013 0.294926,-0.30358 0.698239,-0.45538 1.209962,-0.45538 0.166009,0 0.328117,0.0174 0.486327,0.0522 0.158199,0.0329 0.311525,0.0832 0.459965,0.15083" style="font-size:8.95508862px;font-style:normal;font-weight:400;fill:#000;fill-opacity:1;stroke:none;overflow:visible;font-family:DejaVu Sans"/><g style="overflow:visible" id="layer1" transform="matrix(0.72171,0,0,0.72171,-2.2298454,28.008631)"><g id="g3070" transform="matrix(1.05,0,0,1.05,-3.2000001,-3.2249998)"><path id="path7865" d="m 16,8 0,112 c 0,0 63.15625,0 63.15625,0 l 0.03125,0 c 3e-6,0 11.90625,-9.90625 17.40625,-15.40625 C 102.09375,99.09375 112,87.1875 112,87.1875 L 112,87.15625 112,8 16,8 z" transform="matrix(1.0416667,0,0,1.0267857,-2.6666667,-1.2142891)" style="opacity:.5;fill:#000;fill-opacity:1;filter:url(#filter2770-6)"/><path id="path34-7" d="M 16.000001,8 16,120 c 0,0 63.146418,0 63.146418,0 L 112,87.14642 112,8 16.000001,8 z" style="fill:#71aafe;fill-opacity:1"/><path id="path59" d="m 18.000002,9.0000034 c -0.551,0 -1,0.44885 -1,0.999665 l 0,107.9638516 c 0,0.55181 0.449,0.99966 1,0.99966 l 62.171997,0 L 110.707,88.094202 C 110.894,87.907264 111,85.40942 111,85.146508 l 0,-75.1468396 c 0,-0.550815 -0.448,-0.999665 -1,-0.999665 l -91.999998,0 z" style="fill:url(#radialGradient3239-9);fill-opacity:1"/><g id="g83" transform="translate(0,24)"><linearGradient id="linearGradient7876" x1="76.672" x2="36.672" y1="102.847" y2="-7.153" gradientUnits="userSpaceOnUse"><stop id="stop7878" offset="0" style="stop-color:#d6d6d6;stop-opacity:1"/><stop id="stop7880" offset=".009" style="stop-color:#d7d7d7;stop-opacity:1"/><stop id="stop7882" offset=".22" style="stop-color:#ededed;stop-opacity:1"/><stop id="stop7884" offset=".421" style="stop-color:#fafafa;stop-opacity:1"/><stop id="stop7886" offset=".604" style="stop-color:#fff;stop-opacity:1"/><stop id="stop7888" offset="1" style="stop-color:#d6d6d6;stop-opacity:1"/></linearGradient><path id="path9576" d="M 48.001,16 C 43.585,16 40,19.585 40,24 c 0,4.416 3.585,8 8.001,8 C 52.415,32 56,28.415 56,24 56,19.585 52.415,16 48.001,16 z" style="fill:url(#linearGradient3241-0)"/><linearGradient id="linearGradient7891" x1="62.7" x2="22.7" y1="107.927" y2="-2.073" gradientUnits="userSpaceOnUse"><stop id="stop7893" offset="0" style="stop-color:#d6d6d6;stop-opacity:1"/><stop id="stop7895" offset=".065" style="stop-color:#d7d7d7;stop-opacity:1"/><stop id="stop7897" offset=".186" style="stop-color:#ededed;stop-opacity:1"/><stop id="stop7899" offset=".421" style="stop-color:#fafafa;stop-opacity:1"/><stop id="stop7901" offset=".737" style="stop-color:#fff;stop-opacity:1"/><stop id="stop7903" offset="1" style="stop-color:#d6d6d6;stop-opacity:1"/></linearGradient><path id="path2876" d="m 56,36 -20,4 0,8 8,0 0,32 -8,0 0,8 28,0 0,-8 -8,0 0,-44 z" style="fill:url(#linearGradient3243-1)"/></g><g id="g8511" transform="translate(-10,0)"><path id="path5540" d="m 41.879531,115.98249 c 0,0 24.309609,-24.309614 24.309609,-24.309614 0,0 -9.35314,2.913124 -19.60314,2.913124 0,10.25 -4.706469,21.39649 -4.706469,21.39649 z" clip-path="url(#clipPath7084-3)" transform="translate(50,0)" style="opacity:.4;fill:#000;fill-opacity:1;filter:url(#filter6697-4)"/><path id="path14523" d="m 89.172,120 c 0,0 11.914,-9.914 17.414,-15.414 5.5,-5.5 15.414,-17.414 15.414,-17.414 0,0 -13.75,8.828 -24,8.828 0,10.25 -8.828,24 -8.828,24 z" style="fill:url(#linearGradient3245-4);fill-opacity:1"/></g></g></g><path id="path6222" d="m 94.939542,91.56051 c 0,0 8.935508,-7.43549 13.060508,-11.5605 4.12501,-4.124998 11.5605,-13.060499 11.5605,-13.060499 0,0 -9.873,7.0605 -17.5605,7.0605 0,7.687499 -7.060508,17.560499 -7.060508,17.560499 z" style="fill:url(#linearGradient8140)"/><path id="path2275" d="M 28,84 70.25654,63.119454 56.402338,52.854668 c 1.21188,0.896825 2.42268,1.793204 3.633644,2.690479 C 77.719427,31.965614 110.32059,28.215338 114.21652,28.111085 111.40714,24.568528 75.338907,14.453382 46.356981,45.411946 L 36.060514,37.783753 28,84 z" style="opacity:.38888891;fill:url(#linearGradient3267);fill-opacity:1"/><g id="g3579"><path id="path3269" d="M 27.1651,70.902232 69.94274,55.64388 52.930341,42.805226 c 1.487952,1.121926 2.974639,2.243219 4.461666,3.365474 C 72.70235,24.310242 107.86332,25.42523 112.12521,25.917068 108.42032,21.790186 67.029642,5.6833233 40.59505,33.496254 L 27.951512,23.955185 27.1651,70.902232 z" style="opacity:.25;fill:none;stroke:#000;stroke-width:4;stroke-linejoin:round;stroke-miterlimit:4;stroke-opacity:1;stroke-dasharray:none"/><path id="path8" d="M 28.921532,72.000002 71.699172,56.74165 54.686773,43.902996 c 1.487952,1.121926 2.974639,2.243219 4.461666,3.365474 C 74.458782,25.408012 109.61975,26.523 113.88164,27.014838 110.17675,22.887956 68.786074,6.7810934 42.351482,34.594024 L 29.707944,25.052955 28.921532,72.000002 z" style="fill:url(#linearGradient3264);fill-opacity:1"/></g></svg>