<svg xmlns="http://www.w3.org/2000/svg" xmlns:svg="http://www.w3.org/2000/svg" xmlns:xlink="http://www.w3.org/1999/xlink" id="svg2606" width="128" height="128" version="1.0"><defs id="defs2608"><linearGradient id="path2876_1_" x1="62.7" x2="22.7" y1="107.927" y2="-2.073" gradientUnits="userSpaceOnUse"><stop id="stop100" offset="0" style="stop-color:#d6d6d6;stop-opacity:1"/><stop id="stop102" offset=".009" style="stop-color:#d7d7d7;stop-opacity:1"/><stop id="stop104" offset=".22" style="stop-color:#ededed;stop-opacity:1"/><stop id="stop106" offset=".421" style="stop-color:#fafafa;stop-opacity:1"/><stop id="stop108" offset=".604" style="stop-color:#fff;stop-opacity:1"/><stop id="stop110" offset="1" style="stop-color:#d6d6d6;stop-opacity:1"/></linearGradient><linearGradient id="path9576_1_" x1="76.672" x2="36.672" y1="102.847" y2="-7.153" gradientUnits="userSpaceOnUse"><stop id="stop86" offset="0" style="stop-color:#d6d6d6;stop-opacity:1"/><stop id="stop88" offset=".009" style="stop-color:#d7d7d7;stop-opacity:1"/><stop id="stop90" offset=".22" style="stop-color:#ededed;stop-opacity:1"/><stop id="stop92" offset=".421" style="stop-color:#fafafa;stop-opacity:1"/><stop id="stop94" offset=".604" style="stop-color:#fff;stop-opacity:1"/><stop id="stop96" offset="1" style="stop-color:#d6d6d6;stop-opacity:1"/></linearGradient><radialGradient id="XMLID_2_" cx="86" cy="104.305" r="139.559" gradientTransform="translate(66,8)" gradientUnits="userSpaceOnUse"><stop id="stop13" offset="0" style="stop-color:#0057ae;stop-opacity:1"/><stop id="stop15" offset=".058" style="stop-color:#2874ca;stop-opacity:1"/><stop id="stop17" offset=".117" style="stop-color:#488ce1;stop-opacity:1"/><stop id="stop19" offset=".174" style="stop-color:#609df2;stop-opacity:1"/><stop id="stop21" offset=".227" style="stop-color:#6ea7fc;stop-opacity:1"/><stop id="stop23" offset=".272" style="stop-color:#73abff;stop-opacity:1"/><stop id="stop25" offset=".434" style="stop-color:#6ea8fc;stop-opacity:1"/><stop id="stop27" offset=".631" style="stop-color:#5f9ef4;stop-opacity:1"/><stop id="stop29" offset=".844" style="stop-color:#478de7;stop-opacity:1"/><stop id="stop31" offset="1" style="stop-color:#307edb;stop-opacity:1"/></radialGradient><radialGradient id="XMLID_1_" cx="86" cy="104.305" r="139.559" gradientTransform="translate(66,8)" gradientUnits="userSpaceOnUse"><stop id="stop4" offset="0" style="stop-color:#00438a;stop-opacity:1"/><stop id="stop6" offset=".124" style="stop-color:#5586be;stop-opacity:1"/><stop id="stop8" offset=".272" style="stop-color:#bfd9ff;stop-opacity:1"/></radialGradient><linearGradient id="linearGradient10207"><stop id="stop10209" offset="0" style="stop-color:#a2a2a2;stop-opacity:1"/><stop id="stop10211" offset="1" style="stop-color:#fff;stop-opacity:1"/></linearGradient><linearGradient id="XMLID_12_" x1="96" x2="88" y1="104" y2="96" gradientUnits="userSpaceOnUse"><stop id="stop83" offset="0" style="stop-color:#888a85;stop-opacity:1"/><stop id="stop85" offset=".007" style="stop-color:#8c8e89;stop-opacity:1"/><stop id="stop87" offset=".067" style="stop-color:#abaca9;stop-opacity:1"/><stop id="stop89" offset=".135" style="stop-color:#c5c6c4;stop-opacity:1"/><stop id="stop91" offset=".265" style="stop-color:#dbdbda;stop-opacity:1"/><stop id="stop93" offset=".376" style="stop-color:#ebebeb;stop-opacity:1"/><stop id="stop95" offset=".487" style="stop-color:#f7f7f6;stop-opacity:1"/><stop id="stop97" offset=".632" style="stop-color:#fdfdfd;stop-opacity:1"/><stop id="stop99" offset="1" style="stop-color:#fff;stop-opacity:1"/></linearGradient><radialGradient id="XMLID_8_" cx="102" cy="112.305" r="139.559" gradientUnits="userSpaceOnUse"><stop id="stop41" offset="0" style="stop-color:#b7b8b9;stop-opacity:1"/><stop id="stop47" offset=".189" style="stop-color:#ececec;stop-opacity:1"/><stop id="stop49" offset=".257" style="stop-color:#fafafa;stop-opacity:1"/><stop id="stop51" offset=".301" style="stop-color:#fff;stop-opacity:1"/><stop id="stop53" offset=".531" style="stop-color:#fafafa;stop-opacity:1"/><stop id="stop55" offset=".845" style="stop-color:#ebecec;stop-opacity:1"/><stop id="stop57" offset="1" style="stop-color:#e1e2e3;stop-opacity:1"/></radialGradient><filter id="filter6697" width="1.384" height="1.384" x="-.192" y="-.192" color-interpolation-filters="sRGB"><feGaussianBlur id="feGaussianBlur6699" stdDeviation="1.945"/></filter><clipPath id="clipPath7084"><path id="path7086" d="m 72,88 -32,32 -8,0 0,-40 40,0 0,8 z" style="fill:#000;fill-opacity:1;fill-rule:evenodd;stroke:none"/></clipPath><filter id="filter2770" color-interpolation-filters="sRGB"><feGaussianBlur id="feGaussianBlur2772" stdDeviation="2.079"/></filter><radialGradient id="radialGradient7906" cx="102" cy="112.305" r="139.559" gradientTransform="matrix(1,0,0,0.9996653,2e-6,0.00301608)" gradientUnits="userSpaceOnUse" xlink:href="#XMLID_2_"/><linearGradient id="linearGradient8507" x1="76.672" x2="36.672" y1="102.847" y2="-7.153" gradientUnits="userSpaceOnUse" xlink:href="#path9576_1_"/><linearGradient id="linearGradient8509" x1="62.7" x2="22.7" y1="107.927" y2="-2.073" gradientUnits="userSpaceOnUse" xlink:href="#path2876_1_"/><linearGradient id="linearGradient8515" x1="98.617" x2="91.229" y1="106.414" y2="99.255" gradientTransform="translate(10,0)" gradientUnits="userSpaceOnUse" xlink:href="#linearGradient10207"/><linearGradient id="linearGradient12279" x1="76.672" x2="36.672" y1="102.847" y2="-7.153" gradientUnits="userSpaceOnUse" xlink:href="#path9576_1_"/><linearGradient id="linearGradient12281" x1="62.7" x2="22.7" y1="107.927" y2="-2.073" gradientUnits="userSpaceOnUse" xlink:href="#path2876_1_"/><linearGradient id="linearGradient12284" x1="2" x2="94.5" y1=".5" y2="114" gradientUnits="userSpaceOnUse" xlink:href="#linearGradient7891"/><radialGradient id="radialGradient3103" cx="102" cy="112.305" r="139.559" gradientTransform="matrix(1,0,0,0.9996653,2e-6,0.00301608)" gradientUnits="userSpaceOnUse" xlink:href="#XMLID_2_"/><linearGradient id="linearGradient3105" x1="76.672" x2="36.672" y1="102.847" y2="-7.153" gradientUnits="userSpaceOnUse" xlink:href="#path9576_1_"/><linearGradient id="linearGradient3107" x1="62.7" x2="22.7" y1="107.927" y2="-2.073" gradientUnits="userSpaceOnUse" xlink:href="#path2876_1_"/><linearGradient id="linearGradient3109" x1="98.617" x2="91.229" y1="106.414" y2="99.255" gradientTransform="translate(10,0)" gradientUnits="userSpaceOnUse" xlink:href="#linearGradient10207"/><filter id="filter3505" color-interpolation-filters="sRGB"><feGaussianBlur id="feGaussianBlur3507" stdDeviation=".461"/></filter><linearGradient id="linearGradient2962" x1="89.091" x2="89.091" y1="103.897" y2="30.849" gradientTransform="translate(0,4)" gradientUnits="userSpaceOnUse" xlink:href="#linearGradient2956"/><linearGradient id="linearGradient2956"><stop id="stop2958" offset="0" style="stop-color:#003100;stop-opacity:1"/><stop id="stop2960" offset="1" style="stop-color:#008c00;stop-opacity:1"/></linearGradient><radialGradient id="radialGradient3511" cx="53.633" cy="51.92" r="52" fx="53.633" fy="51.92" gradientTransform="matrix(1.0961401,0.0879121,-0.1002304,1.2497316,1.0599334,-18.687387)" gradientUnits="userSpaceOnUse" xlink:href="#linearGradient2998"/><linearGradient id="linearGradient2998"><stop id="stop3000" offset="0" style="stop-color:#fff;stop-opacity:1"/><stop id="stop3002" offset="1" style="stop-color:#fff;stop-opacity:0"/></linearGradient><filter id="filter3521" color-interpolation-filters="sRGB"><feBlend id="feBlend3523" in2="BackgroundImage" mode="lighten"/></filter><radialGradient id="radialGradient3457" cx="99.766" cy="29.375" r="3.016" fx="99.766" fy="29.375" gradientTransform="matrix(1.9646726,3.4242959e-7,-1.0414508e-6,5.9752716,-167.24116,-126.14811)" gradientUnits="userSpaceOnUse" xlink:href="#linearGradient3415"/><linearGradient id="linearGradient3415"><stop id="stop3417" offset="0" style="stop-color:#f0ff80;stop-opacity:1"/><stop id="stop3419" offset="1" style="stop-color:#f0ff80;stop-opacity:0"/></linearGradient><filter id="filter3525" width="1.365" height="1.206" x="-.182" y="-.103" color-interpolation-filters="sRGB"><feGaussianBlur id="feGaussianBlur3527" stdDeviation=".458"/></filter><radialGradient id="radialGradient3292" cx="99.766" cy="29.375" r="3.016" fx="99.766" fy="29.375" gradientTransform="matrix(1.9646726,3.4242959e-7,-1.0414508e-6,5.9752716,-96.241137,-146.14811)" gradientUnits="userSpaceOnUse" xlink:href="#linearGradient2998"/><linearGradient id="linearGradient3082"><stop id="stop3084" offset="0" style="stop-color:#fff;stop-opacity:1"/><stop id="stop3086" offset="1" style="stop-color:#fff;stop-opacity:0"/></linearGradient><filter id="filter3533" width="1.208" height="1.37" x="-.104" y="-.185" color-interpolation-filters="sRGB"><feGaussianBlur id="feGaussianBlur3535" stdDeviation=".458"/></filter><radialGradient id="radialGradient3288" cx="99.766" cy="29.375" r="3.016" fx="99.766" fy="29.375" gradientTransform="matrix(1.9646726,3.4242959e-7,-1.0414508e-6,5.9752716,-167.24116,-126.14811)" gradientUnits="userSpaceOnUse" xlink:href="#linearGradient2998"/><linearGradient id="linearGradient3091"><stop id="stop3093" offset="0" style="stop-color:#fff;stop-opacity:1"/><stop id="stop3095" offset="1" style="stop-color:#fff;stop-opacity:0"/></linearGradient><filter id="filter3529" width="1.365" height="1.206" x="-.182" y="-.103" color-interpolation-filters="sRGB"><feGaussianBlur id="feGaussianBlur3531" stdDeviation=".458"/></filter><radialGradient id="radialGradient3256" cx="99.766" cy="29.375" r="3.016" fx="99.766" fy="29.375" gradientTransform="matrix(1.9646726,3.4242959e-7,-1.0414508e-6,5.9752716,-96.241137,-146.14811)" gradientUnits="userSpaceOnUse" xlink:href="#linearGradient2998"/><linearGradient id="linearGradient3100"><stop id="stop3102" offset="0" style="stop-color:#fff;stop-opacity:1"/><stop id="stop3104" offset="1" style="stop-color:#fff;stop-opacity:0"/></linearGradient><filter id="filter3541" width="1.208" height="1.37" x="-.104" y="-.185" color-interpolation-filters="sRGB"><feGaussianBlur id="feGaussianBlur3543" stdDeviation=".458"/></filter><radialGradient id="radialGradient3004" cx="99.766" cy="29.375" r="3.016" fx="99.766" fy="29.375" gradientTransform="matrix(1.9646726,3.4242959e-7,-1.0414508e-6,5.9752716,-96.241137,-146.14811)" gradientUnits="userSpaceOnUse" xlink:href="#linearGradient2998"/><linearGradient id="linearGradient3109-8"><stop id="stop3111" offset="0" style="stop-color:#fff;stop-opacity:1"/><stop id="stop3113" offset="1" style="stop-color:#fff;stop-opacity:0"/></linearGradient><filter id="filter3537" width="1.365" height="1.206" x="-.182" y="-.103" color-interpolation-filters="sRGB"><feGaussianBlur id="feGaussianBlur3539" stdDeviation=".458"/></filter><radialGradient id="radialGradient2987" cx="52.792" cy="95.459" r="52" fx="53.16" fy="87.081" gradientTransform="matrix(0.5646619,8.5323328e-8,-1.386601e-7,0.9176397,24.424169,0.1439155)" gradientUnits="userSpaceOnUse" xlink:href="#linearGradient2981"/><linearGradient id="linearGradient2981"><stop id="stop2983" offset="0" style="stop-color:#001400;stop-opacity:1"/><stop id="stop2985" offset="1" style="stop-color:#001400;stop-opacity:0"/></linearGradient><radialGradient id="radialGradient2954" cx="54.538" cy="77.542" r="48" fx="54.538" fy="99.884" gradientTransform="matrix(1.3117247,5.8470212e-8,-4.3852649e-8,0.9837933,-16.905997,1.313725)" gradientUnits="userSpaceOnUse" xlink:href="#linearGradient2948"/><linearGradient id="linearGradient2948"><stop id="stop2950" offset="0" style="stop-color:#66f515;stop-opacity:1"/><stop id="stop2952" offset="1" style="stop-color:#002e00;stop-opacity:1"/></linearGradient><linearGradient id="linearGradient2977" x1="83.325" x2="83.325" y1="24.063" y2="89.995" gradientTransform="translate(-2.3931686e-5,4)" gradientUnits="userSpaceOnUse" xlink:href="#linearGradient2971"/><linearGradient id="linearGradient2971"><stop id="stop2973" offset="0" style="stop-color:#bfffbf;stop-opacity:1"/><stop id="stop2975" offset="1" style="stop-color:#bfffbf;stop-opacity:0"/></linearGradient><linearGradient id="linearGradient3421" x1="71.604" x2="71.604" y1="96.884" y2="47.379" gradientUnits="userSpaceOnUse" xlink:href="#linearGradient3415"/><linearGradient id="linearGradient3130"><stop id="stop3132" offset="0" style="stop-color:#f0ff80;stop-opacity:1"/><stop id="stop3134" offset="1" style="stop-color:#f0ff80;stop-opacity:0"/></linearGradient><filter id="filter3423" color-interpolation-filters="sRGB"><feGaussianBlur id="feGaussianBlur3425" stdDeviation=".425"/></filter><linearGradient id="linearGradient3442" x1="87.533" x2="77.138" y1="74.839" y2="46.277" gradientUnits="userSpaceOnUse" xlink:href="#linearGradient3436"/><linearGradient id="linearGradient3436"><stop id="stop3438" offset="0" style="stop-color:#fff;stop-opacity:1"/><stop id="stop3440" offset="1" style="stop-color:#fff;stop-opacity:0"/></linearGradient><linearGradient id="linearGradient3453" x1="83.325" x2="83.325" y1="24.063" y2="69.838" gradientTransform="translate(0,4)" gradientUnits="userSpaceOnUse" xlink:href="#linearGradient3436"/><linearGradient id="linearGradient3143"><stop id="stop3145" offset="0" style="stop-color:#fff;stop-opacity:1"/><stop id="stop3147" offset="1" style="stop-color:#fff;stop-opacity:0"/></linearGradient></defs><metadata id="metadata2611"/><g id="layer1"><g id="g3070" transform="matrix(1.05,0,0,1.05,-3.2000001,-3.2249998)"><path id="path7865" d="m 16,8 0,112 c 0,0 63.15625,0 63.15625,0 l 0.03125,0 c 3e-6,0 11.90625,-9.90625 17.40625,-15.40625 C 102.09375,99.09375 112,87.1875 112,87.1875 L 112,87.15625 112,8 16,8 z" transform="matrix(1.0416667,0,0,1.0267857,-2.6666667,-1.2142891)" style="opacity:.5;fill:#000;fill-opacity:1;filter:url(#filter2770)"/><path id="path34" d="M 16.000001,8 16,120 c 0,0 63.146418,0 63.146418,0 L 112,87.14642 112,8 16.000001,8 z" style="fill:#71aafe;fill-opacity:1"/><path id="path59" d="m 18.000002,9.0000034 c -0.551,0 -1,0.44885 -1,0.999665 l 0,107.9638516 c 0,0.55181 0.449,0.99966 1,0.99966 l 62.171997,0 L 110.707,88.094202 C 110.894,87.907264 111,85.40942 111,85.146508 l 0,-75.1468396 c 0,-0.550815 -0.448,-0.999665 -1,-0.999665 l -91.999998,0 z" style="fill:url(#radialGradient3103);fill-opacity:1"/><g id="g83" transform="translate(0,24)"><linearGradient id="linearGradient7876" x1="76.672" x2="36.672" y1="102.847" y2="-7.153" gradientUnits="userSpaceOnUse"><stop id="stop7878" offset="0" style="stop-color:#d6d6d6;stop-opacity:1"/><stop id="stop7880" offset=".009" style="stop-color:#d7d7d7;stop-opacity:1"/><stop id="stop7882" offset=".22" style="stop-color:#ededed;stop-opacity:1"/><stop id="stop7884" offset=".421" style="stop-color:#fafafa;stop-opacity:1"/><stop id="stop7886" offset=".604" style="stop-color:#fff;stop-opacity:1"/><stop id="stop7888" offset="1" style="stop-color:#d6d6d6;stop-opacity:1"/></linearGradient><path id="path9576" d="M 48.001,16 C 43.585,16 40,19.585 40,24 c 0,4.416 3.585,8 8.001,8 C 52.415,32 56,28.415 56,24 56,19.585 52.415,16 48.001,16 z" style="fill:url(#linearGradient3105)"/><linearGradient id="linearGradient7891" x1="62.7" x2="22.7" y1="107.927" y2="-2.073" gradientUnits="userSpaceOnUse"><stop id="stop7893" offset="0" style="stop-color:#d6d6d6;stop-opacity:1"/><stop id="stop7895" offset=".065" style="stop-color:#d7d7d7;stop-opacity:1"/><stop id="stop7897" offset=".186" style="stop-color:#ededed;stop-opacity:1"/><stop id="stop7899" offset=".421" style="stop-color:#fafafa;stop-opacity:1"/><stop id="stop7901" offset=".737" style="stop-color:#fff;stop-opacity:1"/><stop id="stop7903" offset="1" style="stop-color:#d6d6d6;stop-opacity:1"/></linearGradient><path id="path2876" d="m 56,36 -20,4 0,8 8,0 0,32 -8,0 0,8 28,0 0,-8 -8,0 0,-44 z" style="fill:url(#linearGradient3107)"/></g><g id="g8511" transform="translate(-10,0)"><path id="path5540" d="m 41.879531,115.98249 c 0,0 24.309609,-24.309614 24.309609,-24.309614 0,0 -9.35314,2.913124 -19.60314,2.913124 0,10.25 -4.706469,21.39649 -4.706469,21.39649 z" clip-path="url(#clipPath7084)" transform="translate(50,0)" style="opacity:.4;fill:#000;fill-opacity:1;filter:url(#filter6697)"/><path id="path14523" d="m 89.172,120 c 0,0 11.914,-9.914 17.414,-15.414 5.5,-5.5 15.414,-17.414 15.414,-17.414 0,0 -13.75,8.828 -24,8.828 0,10.25 -8.828,24 -8.828,24 z" style="fill:url(#linearGradient3109);fill-opacity:1"/></g></g></g><g id="layer1-5" transform="matrix(0.64,0,0,0.64,51.268957,-6.3002242)" style="enable-background:new"><g id="g2358" transform="translate(2.3931686e-5,0)" style="overflow:visible"><g id="g3055"><path id="path3503" d="M 54.393966,74.154282 C 46.245967,65.803997 28.630827,47.75 28.630827,47.75 L 15.999972,60.697999 54.393966,100.05285 111.99998,41 99.367397,28.05286 c 0,0 -35.262002,36.147423 -44.973431,46.101422 z" style="fill:none;stroke:#004d00;stroke-width:8.10000038;stroke-linecap:round;stroke-linejoin:round;stroke-miterlimit:4;stroke-opacity:1;stroke-dasharray:none;filter:url(#filter3505)"/><path id="path2365" d="M 54.393966,74.154282 C 46.245967,65.803997 28.630827,47.75 28.630827,47.75 L 15.999972,60.697999 54.393966,100.05285 111.99998,41 99.367397,28.05286 c 0,0 -35.262002,36.147423 -44.973431,46.101422 z" style="fill:none;stroke:url(#linearGradient2962);stroke-width:8;stroke-linecap:round;stroke-linejoin:round;stroke-miterlimit:4;stroke-opacity:1;stroke-dasharray:none"/><path id="path3509" d="M 54.393966,74.154282 C 46.245967,65.803997 28.630827,47.75 28.630827,47.75 L 15.999972,60.697999 54.393966,100.05285 111.99998,41 99.367397,28.05286 c 0,0 -35.262002,36.147423 -44.973431,46.101422 z" style="opacity:.2857143;fill:none;stroke:url(#radialGradient3511);stroke-width:8;stroke-linecap:round;stroke-linejoin:round;stroke-miterlimit:4;stroke-opacity:1;stroke-dasharray:none;filter:url(#filter3521)"/><path id="path3455" d="m 28.406226,44.03125 c -0.149888,-0.0024 -0.286582,0.01658 -0.4375,0.03125 -0.827192,0.08205 -1.59533,0.427082 -2.21875,0.96875 l 1.6875,9.6875 c 0.110915,-0.113676 0.850367,-0.848179 0.9375,-0.9375 l 0.375,0.375 3.03125,-8.34375 -0.5625,-0.5625 c -0.74135,-0.759594 -1.76329,-1.201919 -2.8125,-1.21875 z" transform="matrix(1,0,0,-1,26,147.74979)" style="opacity:.40952382;fill:url(#radialGradient3457);fill-opacity:1;stroke:none;filter:url(#filter3525)"/><path id="path3290" d="m 99.40625,24.03125 c -0.149888,-0.0024 -0.286582,0.01658 -0.4375,0.03125 -0.827192,0.08205 -1.59533,0.427082 -2.21875,0.96875 l 1.6875,9.6875 c 0.110915,-0.113676 0.850367,-0.848179 0.9375,-0.9375 l 0.375,0.375 3.03125,-8.34375 -0.5625,-0.5625 c -0.74135,-0.759594 -1.76329,-1.201919 -2.8125,-1.21875 z" transform="matrix(-0.3420202,0.9396927,0.9396927,0.3420202,24.20981,-42.203299)" style="opacity:.23809521;fill:url(#radialGradient3292);fill-opacity:1;stroke:none;filter:url(#filter3533)"/><path id="path3286" d="m 28.406226,44.03125 c -0.149888,-0.0024 -0.286582,0.01658 -0.4375,0.03125 -0.827192,0.08205 -1.59533,0.427082 -2.21875,0.96875 l 1.6875,9.6875 c 0.110915,-0.113676 0.850367,-0.848179 0.9375,-0.9375 l 0.375,0.375 3.03125,-8.34375 -0.5625,-0.5625 c -0.74135,-0.759594 -1.76329,-1.201919 -2.8125,-1.21875 z" style="opacity:.77619048;fill:url(#radialGradient3288);fill-opacity:1;stroke:none;filter:url(#filter3529)"/><path id="path3254" d="m 99.40625,24.03125 c -0.149888,-0.0024 -0.286582,0.01658 -0.4375,0.03125 -0.827192,0.08205 -1.59533,0.427082 -2.21875,0.96875 l 1.6875,9.6875 c 0.110915,-0.113676 0.850367,-0.848179 0.9375,-0.9375 l 0.375,0.375 3.03125,-8.34375 -0.5625,-0.5625 c -0.74135,-0.759594 -1.76329,-1.201919 -2.8125,-1.21875 z" transform="matrix(0.3420202,0.9396927,-0.9396927,0.3420202,104.53338,-62.203299)" style="opacity:.37142861;fill:url(#radialGradient3256);fill-opacity:1;stroke:none;filter:url(#filter3541)"/><path id="path2989" d="m 99.40625,24.03125 c -0.149888,-0.0024 -0.286582,0.01658 -0.4375,0.03125 -0.827192,0.08205 -1.59533,0.427082 -2.21875,0.96875 l 1.6875,9.6875 c 0.110915,-0.113676 0.850367,-0.848179 0.9375,-0.9375 l 0.375,0.375 3.03125,-8.34375 -0.5625,-0.5625 c -0.74135,-0.759594 -1.76329,-1.201919 -2.8125,-1.21875 z" transform="translate(-2.3931686e-5,0)" style="opacity:.87142855;fill:url(#radialGradient3004);fill-opacity:1;stroke:none;filter:url(#filter3537)"/><path id="path2979" d="M 54.393966,74.154282 C 46.245967,65.803997 28.630827,47.75 28.630827,47.75 L 15.999972,60.697999 54.393966,100.05285 111.99998,41 99.367397,28.05286 c 0,0 -35.262002,36.147423 -44.973431,46.101422 z" style="opacity:.2857143;fill:none;stroke:url(#radialGradient2987);stroke-width:8;stroke-linecap:round;stroke-linejoin:round;stroke-miterlimit:4;stroke-opacity:1;stroke-dasharray:none"/><path id="path24" d="M 54.393966,74.154282 C 46.245967,65.803997 28.630827,47.75 28.630827,47.75 L 15.999972,60.697999 54.393966,100.05285 111.99998,41 99.367397,28.05286 c 0,0 -35.262002,36.147423 -44.973431,46.101422 z" style="fill:url(#radialGradient2954);fill-opacity:1"/><path id="path2964" d="m 99.374976,28.0625 c -3e-6,0 -35.257321,36.139751 -44.96875,46.09375 C 46.258227,65.805965 28.624976,47.75 28.624976,47.75 l -12.625,12.9375 16.46875,16.875 c 0.188911,4.87e-4 0.373377,0 0.5625,0 17.529799,0 34.136291,-2.093139 49.03125,-5.84375 L 111.99998,41 99.374976,28.0625 z" style="fill:url(#linearGradient2977);fill-opacity:1"/><path id="path3413" d="M 54.393966,74.154282 C 46.245967,65.803997 28.630827,47.75 28.630827,47.75 L 15.999972,60.697999 54.393966,100.05285 111.99998,41 99.367397,28.05286 c 0,0 -35.262002,36.147423 -44.973431,46.101422 z" style="fill:none;stroke:url(#linearGradient3421);stroke-opacity:1;filter:url(#filter3423)"/><path id="path3427" d="m 99.375,28.0625 c 0,0 -0.400241,0.431341 -0.40625,0.4375 l 12.1875,12.28125 -30,30.21875 c -14.927199,3.687634 -31.057257,6.218746 -48.625,6.21875 -0.126355,0 -0.250091,-10e-7 -0.375,0 l 0.3125,0.34375 c 0.188911,4.87e-4 0.373377,0 0.5625,0 17.529799,0 34.136291,-2.093139 49.03125,-5.84375 L 112,41 99.375,28.0625 z" transform="translate(-2.3931686e-5,0)" style="fill:url(#linearGradient3442);fill-opacity:1"/><path id="path3444" d="m 99.375,28.0625 c -3e-6,0 -35.257321,36.139751 -44.96875,46.09375 C 46.258251,65.805965 28.625,47.75 28.625,47.75 L 16,60.6875 l 0.5,0.5 L 28.625,48.75 c 0,0 17.633251,18.055965 25.78125,26.40625 C 64.117679,65.202251 99.374997,29.0625 99.375,29.0625 L 111.5,41.5 112,41 99.375,28.0625 z" transform="translate(-2.3931686e-5,0)" style="fill:url(#linearGradient3453);fill-opacity:1"/></g></g></g></svg>