<svg xmlns="http://www.w3.org/2000/svg" xmlns:svg="http://www.w3.org/2000/svg" xmlns:xlink="http://www.w3.org/1999/xlink" id="svg2606" width="128" height="128" version="1.0"><defs id="defs2608"><linearGradient id="path2876_1_" x1="62.7" x2="22.7" y1="107.927" y2="-2.073" gradientUnits="userSpaceOnUse"><stop id="stop100" offset="0" style="stop-color:#d6d6d6;stop-opacity:1"/><stop id="stop102" offset=".009" style="stop-color:#d7d7d7;stop-opacity:1"/><stop id="stop104" offset=".22" style="stop-color:#ededed;stop-opacity:1"/><stop id="stop106" offset=".421" style="stop-color:#fafafa;stop-opacity:1"/><stop id="stop108" offset=".604" style="stop-color:#fff;stop-opacity:1"/><stop id="stop110" offset="1" style="stop-color:#d6d6d6;stop-opacity:1"/></linearGradient><linearGradient id="path9576_1_" x1="76.672" x2="36.672" y1="102.847" y2="-7.153" gradientUnits="userSpaceOnUse"><stop id="stop86" offset="0" style="stop-color:#d6d6d6;stop-opacity:1"/><stop id="stop88" offset=".009" style="stop-color:#d7d7d7;stop-opacity:1"/><stop id="stop90" offset=".22" style="stop-color:#ededed;stop-opacity:1"/><stop id="stop92" offset=".421" style="stop-color:#fafafa;stop-opacity:1"/><stop id="stop94" offset=".604" style="stop-color:#fff;stop-opacity:1"/><stop id="stop96" offset="1" style="stop-color:#d6d6d6;stop-opacity:1"/></linearGradient><radialGradient id="XMLID_2_" cx="86" cy="104.305" r="139.559" gradientTransform="translate(66,8)" gradientUnits="userSpaceOnUse"><stop id="stop13" offset="0" style="stop-color:#0057ae;stop-opacity:1"/><stop id="stop15" offset=".058" style="stop-color:#2874ca;stop-opacity:1"/><stop id="stop17" offset=".117" style="stop-color:#488ce1;stop-opacity:1"/><stop id="stop19" offset=".174" style="stop-color:#609df2;stop-opacity:1"/><stop id="stop21" offset=".227" style="stop-color:#6ea7fc;stop-opacity:1"/><stop id="stop23" offset=".272" style="stop-color:#73abff;stop-opacity:1"/><stop id="stop25" offset=".434" style="stop-color:#6ea8fc;stop-opacity:1"/><stop id="stop27" offset=".631" style="stop-color:#5f9ef4;stop-opacity:1"/><stop id="stop29" offset=".844" style="stop-color:#478de7;stop-opacity:1"/><stop id="stop31" offset="1" style="stop-color:#307edb;stop-opacity:1"/></radialGradient><radialGradient id="XMLID_1_" cx="86" cy="104.305" r="139.559" gradientTransform="translate(66,8)" gradientUnits="userSpaceOnUse"><stop id="stop4" offset="0" style="stop-color:#00438a;stop-opacity:1"/><stop id="stop6" offset=".124" style="stop-color:#5586be;stop-opacity:1"/><stop id="stop8" offset=".272" style="stop-color:#bfd9ff;stop-opacity:1"/></radialGradient><linearGradient id="linearGradient10207"><stop id="stop10209" offset="0" style="stop-color:#a2a2a2;stop-opacity:1"/><stop id="stop10211" offset="1" style="stop-color:#fff;stop-opacity:1"/></linearGradient><linearGradient id="XMLID_12_" x1="96" x2="88" y1="104" y2="96" gradientUnits="userSpaceOnUse"><stop id="stop83" offset="0" style="stop-color:#888a85;stop-opacity:1"/><stop id="stop85" offset=".007" style="stop-color:#8c8e89;stop-opacity:1"/><stop id="stop87" offset=".067" style="stop-color:#abaca9;stop-opacity:1"/><stop id="stop89" offset=".135" style="stop-color:#c5c6c4;stop-opacity:1"/><stop id="stop91" offset=".265" style="stop-color:#dbdbda;stop-opacity:1"/><stop id="stop93" offset=".376" style="stop-color:#ebebeb;stop-opacity:1"/><stop id="stop95" offset=".487" style="stop-color:#f7f7f6;stop-opacity:1"/><stop id="stop97" offset=".632" style="stop-color:#fdfdfd;stop-opacity:1"/><stop id="stop99" offset="1" style="stop-color:#fff;stop-opacity:1"/></linearGradient><radialGradient id="XMLID_8_" cx="102" cy="112.305" r="139.559" gradientUnits="userSpaceOnUse"><stop id="stop41" offset="0" style="stop-color:#b7b8b9;stop-opacity:1"/><stop id="stop47" offset=".189" style="stop-color:#ececec;stop-opacity:1"/><stop id="stop49" offset=".257" style="stop-color:#fafafa;stop-opacity:1"/><stop id="stop51" offset=".301" style="stop-color:#fff;stop-opacity:1"/><stop id="stop53" offset=".531" style="stop-color:#fafafa;stop-opacity:1"/><stop id="stop55" offset=".845" style="stop-color:#ebecec;stop-opacity:1"/><stop id="stop57" offset="1" style="stop-color:#e1e2e3;stop-opacity:1"/></radialGradient><filter id="filter6697" width="1.384" height="1.384" x="-.192" y="-.192" color-interpolation-filters="sRGB"><feGaussianBlur id="feGaussianBlur6699" stdDeviation="1.945"/></filter><clipPath id="clipPath7084"><path id="path7086" d="m 72,88 -32,32 -8,0 0,-40 40,0 0,8 z" style="fill:#000;fill-opacity:1;fill-rule:evenodd;stroke:none"/></clipPath><filter id="filter2770" color-interpolation-filters="sRGB"><feGaussianBlur id="feGaussianBlur2772" stdDeviation="2.079"/></filter><radialGradient id="radialGradient7906" cx="102" cy="112.305" r="139.559" gradientTransform="matrix(1,0,0,0.9996653,2e-6,0.00301608)" gradientUnits="userSpaceOnUse" xlink:href="#XMLID_2_"/><linearGradient id="linearGradient8507" x1="76.672" x2="36.672" y1="102.847" y2="-7.153" gradientUnits="userSpaceOnUse" xlink:href="#path9576_1_"/><linearGradient id="linearGradient8509" x1="62.7" x2="22.7" y1="107.927" y2="-2.073" gradientUnits="userSpaceOnUse" xlink:href="#path2876_1_"/><linearGradient id="linearGradient8515" x1="98.617" x2="91.229" y1="106.414" y2="99.255" gradientTransform="translate(10,0)" gradientUnits="userSpaceOnUse" xlink:href="#linearGradient10207"/><linearGradient id="linearGradient12279" x1="76.672" x2="36.672" y1="102.847" y2="-7.153" gradientUnits="userSpaceOnUse" xlink:href="#path9576_1_"/><linearGradient id="linearGradient12281" x1="62.7" x2="22.7" y1="107.927" y2="-2.073" gradientUnits="userSpaceOnUse" xlink:href="#path2876_1_"/><linearGradient id="linearGradient12284" x1="2" x2="94.5" y1=".5" y2="114" gradientUnits="userSpaceOnUse" xlink:href="#linearGradient7891"/><radialGradient id="radialGradient3103" cx="102" cy="112.305" r="139.559" gradientTransform="matrix(1,0,0,0.9996653,2e-6,0.00301608)" gradientUnits="userSpaceOnUse" xlink:href="#XMLID_2_"/><linearGradient id="linearGradient3105" x1="76.672" x2="36.672" y1="102.847" y2="-7.153" gradientUnits="userSpaceOnUse" xlink:href="#path9576_1_"/><linearGradient id="linearGradient3107" x1="62.7" x2="22.7" y1="107.927" y2="-2.073" gradientUnits="userSpaceOnUse" xlink:href="#path2876_1_"/><linearGradient id="linearGradient3109" x1="98.617" x2="91.229" y1="106.414" y2="99.255" gradientTransform="translate(10,0)" gradientUnits="userSpaceOnUse" xlink:href="#linearGradient10207"/><radialGradient id="radialGradient6026" cx="63.912" cy="115.709" r="63.912" fx="14.047" fy="115.709" gradientTransform="matrix(1,0,0,0.197802,0,92.82166)" gradientUnits="userSpaceOnUse" xlink:href="#linearGradient3291"/><linearGradient id="linearGradient3291"><stop id="stop3293" offset="0" style="stop-color:#000;stop-opacity:1"/><stop id="stop3295" offset="1" style="stop-color:#000;stop-opacity:0"/></linearGradient><filter id="filter3797" color-interpolation-filters="sRGB"><feGaussianBlur id="feGaussianBlur3799" stdDeviation="1.857"/></filter><linearGradient id="linearGradient6028" x1="63.911" x2="87.757" y1="79.999" y2="93.999" gradientTransform="matrix(1.3755238,0,0,1.8570645,-22.548199,-92.562977)" gradientUnits="userSpaceOnUse" xlink:href="#linearGradient3291"/><linearGradient id="linearGradient3154"><stop id="stop3156" offset="0" style="stop-color:#000;stop-opacity:1"/><stop id="stop3158" offset="1" style="stop-color:#000;stop-opacity:0"/></linearGradient><filter id="filter3825" color-interpolation-filters="sRGB"><feGaussianBlur id="feGaussianBlur3827" stdDeviation=".672"/></filter><radialGradient id="radialGradient6030" cx="42.618" cy="120.642" r="3.407" fx="42.618" fy="120.642" gradientTransform="matrix(1.909059,1.8392116,-8.6222515,7.5766472,1009.8522,-881.36145)" gradientUnits="userSpaceOnUse" xlink:href="#linearGradient2257"/><linearGradient id="linearGradient2257"><stop id="stop2259" offset="0" style="stop-color:#b4942a;stop-opacity:1"/><stop id="stop2261" offset="1" style="stop-color:#e4dcc9;stop-opacity:1"/></linearGradient><linearGradient id="linearGradient6032" x1="75.848" x2="81.453" y1="72.804" y2="77.047" gradientTransform="matrix(0.9986497,0,0,0.9998891,0.1404398,0.00532324)" gradientUnits="userSpaceOnUse" xlink:href="#linearGradient2598"/><linearGradient id="linearGradient2598"><stop id="stop2600" offset="0" style="stop-color:#252525;stop-opacity:1"/><stop id="stop2606" offset=".294" style="stop-color:#252525;stop-opacity:1"/><stop id="stop2608" offset=".454" style="stop-color:#252525;stop-opacity:1"/><stop id="stop2602" offset="1" style="stop-color:#000;stop-opacity:1"/></linearGradient><linearGradient id="linearGradient6034" x1="76.709" x2="80.58" y1="83.326" y2="87.155" gradientTransform="matrix(0.9986497,0,0,0.9998891,0.1404398,0.00532324)" gradientUnits="userSpaceOnUse" xlink:href="#linearGradient7364"/><linearGradient id="linearGradient7364"><stop id="stop7366" offset="0" style="stop-color:#d4a100;stop-opacity:.97647059"/><stop id="stop7368" offset="1" style="stop-color:#ffc712;stop-opacity:1"/></linearGradient><linearGradient id="linearGradient6036" x1="11.326" x2="14.494" y1="57.384" y2="57.384" gradientTransform="matrix(1.2875994,1.1737414,-0.5465891,0.6213041,81.686465,27.89447)" gradientUnits="userSpaceOnUse" xlink:href="#linearGradient3058"/><linearGradient id="linearGradient3058"><stop id="stop3060" offset="0" style="stop-color:#9a7600;stop-opacity:1"/><stop id="stop3066" offset=".093" style="stop-color:#e3ad00;stop-opacity:1"/><stop id="stop3070" offset=".504" style="stop-color:#ffcd2c;stop-opacity:1"/><stop id="stop3068" offset=".916" style="stop-color:#e3ad00;stop-opacity:1"/><stop id="stop3062" offset="1" style="stop-color:#b98d00;stop-opacity:1"/></linearGradient><linearGradient id="linearGradient6038" x1="114.928" x2="100.656" y1="-22.56" y2="-22.053" gradientTransform="matrix(0.9992082,0,0,0.9993395,0.1083622,-0.09037494)" gradientUnits="userSpaceOnUse" xlink:href="#linearGradient5826"/><linearGradient id="linearGradient5826"><stop id="stop5828" offset="0" style="stop-color:#980000;stop-opacity:1"/><stop id="stop5830" offset="1" style="stop-color:#db5c5c;stop-opacity:1"/></linearGradient><linearGradient id="linearGradient6040" x1="-12.818" x2="82.173" y1="7.462" y2="7.462" gradientUnits="userSpaceOnUse" xlink:href="#linearGradient3303"/><linearGradient id="linearGradient3303"><stop id="stop3305" offset="0" style="stop-color:#fff;stop-opacity:1"/><stop id="stop3307" offset="1" style="stop-color:#fff;stop-opacity:0"/></linearGradient><filter id="filter3849" color-interpolation-filters="sRGB"><feGaussianBlur id="feGaussianBlur3851" stdDeviation=".315"/></filter><radialGradient id="radialGradient6042" cx="34.678" cy="7.462" r="47.595" fx="34.678" fy="7.462" gradientTransform="matrix(-1.5103,0.00264127,-1.167078e-4,-0.00911022,87.0522,7.438666)" gradientUnits="userSpaceOnUse" xlink:href="#linearGradient3325"/><linearGradient id="linearGradient3325"><stop id="stop3327" offset="0" style="stop-color:#fff;stop-opacity:1"/><stop id="stop3329" offset="1" style="stop-color:#fff;stop-opacity:0"/></linearGradient><linearGradient id="linearGradient6044" x1="33.342" x2="24.451" y1="117.839" y2="107.355" gradientTransform="matrix(0.6182226,0,0,0.6232687,24.10803,47.993844)" gradientUnits="userSpaceOnUse" xlink:href="#linearGradient2922"/><linearGradient id="linearGradient2922"><stop id="stop2924" offset="0" style="stop-color:#000;stop-opacity:1"/><stop id="stop2926" offset="1" style="stop-color:#515151;stop-opacity:1"/></linearGradient><linearGradient id="linearGradient6046" x1="48.499" x2="48.733" y1=".812" y2="2.366" gradientTransform="matrix(1.6732108,1.5189394,-1.5009523,1.6928488,18.675678,-24.465565)" gradientUnits="userSpaceOnUse" xlink:href="#linearGradient3235"/><linearGradient id="linearGradient3235"><stop id="stop3237" offset="0" style="stop-color:#fff;stop-opacity:1"/><stop id="stop3239" offset="1" style="stop-color:#fff;stop-opacity:0"/></linearGradient><linearGradient id="linearGradient6048" x1="92.226" x2="96.58" y1="54.119" y2="57.151" gradientTransform="matrix(0.9973012,0,0,0.9997782,0.28069,0.0106459)" gradientUnits="userSpaceOnUse" xlink:href="#linearGradient5433"/><linearGradient id="linearGradient5433"><stop id="stop5435" offset="0" style="stop-color:#ea3838;stop-opacity:1"/><stop id="stop5437" offset="1" style="stop-color:#c40000;stop-opacity:1"/></linearGradient><radialGradient id="radialGradient6050" cx="49.012" cy="2.674" r="1.725" fx="49.012" fy="2.674" gradientTransform="matrix(2.2600183,0,0,0.2752449,-2.2590409,-25.415382)" gradientUnits="userSpaceOnUse" xlink:href="#linearGradient3207"/><linearGradient id="linearGradient3207"><stop id="stop3209" offset="0" style="stop-color:#fff;stop-opacity:1"/><stop id="stop3211" offset="1" style="stop-color:#fff;stop-opacity:0"/></linearGradient><radialGradient id="radialGradient6052" cx="49.012" cy="2.674" r="1.725" fx="49.012" fy="2.674" gradientTransform="matrix(1.550633,0,0,0.1873121,21.621938,-31.864287)" gradientUnits="userSpaceOnUse" xlink:href="#linearGradient3207"/><linearGradient id="linearGradient3214"><stop id="stop3216" offset="0" style="stop-color:#fff;stop-opacity:1"/><stop id="stop3218" offset="1" style="stop-color:#fff;stop-opacity:0"/></linearGradient><radialGradient id="radialGradient6486" cx="49.012" cy="2.674" r="1.725" fx="49.012" fy="2.674" gradientTransform="matrix(1.5495914,0,0,0.1876849,-193.24041,-23.535874)" gradientUnits="userSpaceOnUse" xlink:href="#linearGradient3207"/><linearGradient id="linearGradient3221"><stop id="stop3223" offset="0" style="stop-color:#fff;stop-opacity:1"/><stop id="stop3225" offset="1" style="stop-color:#fff;stop-opacity:0"/></linearGradient></defs><metadata id="metadata2611"/><g id="layer1"><g id="g3070" transform="matrix(1.05,0,0,1.05,-3.2000001,-3.2249998)"><path id="path7865" d="m 16,8 0,112 c 0,0 63.15625,0 63.15625,0 l 0.03125,0 c 3e-6,0 11.90625,-9.90625 17.40625,-15.40625 C 102.09375,99.09375 112,87.1875 112,87.1875 L 112,87.15625 112,8 16,8 z" transform="matrix(1.0416667,0,0,1.0267857,-2.6666667,-1.2142891)" style="opacity:.5;fill:#000;fill-opacity:1;filter:url(#filter2770)"/><path id="path34" d="M 16.000001,8 16,120 c 0,0 63.146418,0 63.146418,0 L 112,87.14642 112,8 16.000001,8 z" style="fill:#71aafe;fill-opacity:1"/><path id="path59" d="m 18.000002,9.0000034 c -0.551,0 -1,0.44885 -1,0.999665 l 0,107.9638516 c 0,0.55181 0.449,0.99966 1,0.99966 l 62.171997,0 L 110.707,88.094202 C 110.894,87.907264 111,85.40942 111,85.146508 l 0,-75.1468396 c 0,-0.550815 -0.448,-0.999665 -1,-0.999665 l -91.999998,0 z" style="fill:url(#radialGradient3103);fill-opacity:1"/><g id="g83" transform="translate(0,24)"><linearGradient id="linearGradient7876" x1="76.672" x2="36.672" y1="102.847" y2="-7.153" gradientUnits="userSpaceOnUse"><stop id="stop7878" offset="0" style="stop-color:#d6d6d6;stop-opacity:1"/><stop id="stop7880" offset=".009" style="stop-color:#d7d7d7;stop-opacity:1"/><stop id="stop7882" offset=".22" style="stop-color:#ededed;stop-opacity:1"/><stop id="stop7884" offset=".421" style="stop-color:#fafafa;stop-opacity:1"/><stop id="stop7886" offset=".604" style="stop-color:#fff;stop-opacity:1"/><stop id="stop7888" offset="1" style="stop-color:#d6d6d6;stop-opacity:1"/></linearGradient><path id="path9576" d="M 48.001,16 C 43.585,16 40,19.585 40,24 c 0,4.416 3.585,8 8.001,8 C 52.415,32 56,28.415 56,24 56,19.585 52.415,16 48.001,16 z" style="fill:url(#linearGradient3105)"/><linearGradient id="linearGradient7891" x1="62.7" x2="22.7" y1="107.927" y2="-2.073" gradientUnits="userSpaceOnUse"><stop id="stop7893" offset="0" style="stop-color:#d6d6d6;stop-opacity:1"/><stop id="stop7895" offset=".065" style="stop-color:#d7d7d7;stop-opacity:1"/><stop id="stop7897" offset=".186" style="stop-color:#ededed;stop-opacity:1"/><stop id="stop7899" offset=".421" style="stop-color:#fafafa;stop-opacity:1"/><stop id="stop7901" offset=".737" style="stop-color:#fff;stop-opacity:1"/><stop id="stop7903" offset="1" style="stop-color:#d6d6d6;stop-opacity:1"/></linearGradient><path id="path2876" d="m 56,36 -20,4 0,8 8,0 0,32 -8,0 0,8 28,0 0,-8 -8,0 0,-44 z" style="fill:url(#linearGradient3107)"/></g><g id="g8511" transform="translate(-10,0)"><path id="path5540" d="m 41.879531,115.98249 c 0,0 24.309609,-24.309614 24.309609,-24.309614 0,0 -9.35314,2.913124 -19.60314,2.913124 0,10.25 -4.706469,21.39649 -4.706469,21.39649 z" clip-path="url(#clipPath7084)" transform="translate(50,0)" style="opacity:.4;fill:#000;fill-opacity:1;filter:url(#filter6697)"/><path id="path14523" d="m 89.172,120 c 0,0 11.914,-9.914 17.414,-15.414 5.5,-5.5 15.414,-17.414 15.414,-17.414 0,0 -13.75,8.828 -24,8.828 0,10.25 -8.828,24 -8.828,24 z" style="fill:url(#linearGradient3109);fill-opacity:1"/></g></g></g><g id="layer1-5" transform="matrix(0.81,0,0,0.81,35.243209,28.612667)"><g id="g4356" transform="matrix(1.4512107,0,0,1.4512107,-37.746781,-63.584928)"><path id="path3289" d="m 119.32486,115.70919 a 55.412649,59.276088 0 1 1 -110.8252987,0 55.412649,59.276088 0 1 1 110.8252987,0 z" transform="matrix(0.6190585,0,0,0.2597243,30.890797,94.664084)" style="opacity:.24719101;fill:url(#radialGradient6026);fill-opacity:1;fill-rule:nonzero;stroke:none;filter:url(#filter3797)"/><path id="path3180" d="m 90.067703,48.28801 c 0.613642,-0.692125 4.648657,-0.363057 8.944253,3.536477 4.337724,3.937759 5.210074,7.748115 4.441394,8.615025 -0.5003,0.564284 -1.00061,1.128566 -1.50092,1.692851 -4.461914,-4.050501 -8.9238,-8.101002 -13.385691,-12.151503 0.500309,-0.564283 1.000624,-1.128565 1.500964,-1.69285 0,0 0,0 0,0" style="fill:#bf0000;fill-opacity:1;fill-rule:evenodd;stroke:none"/><path id="path3299" d="m 36.000762,124 20.247,-9.42653 0.09417,-0.10772 -13.269004,-12.28446 -0.127672,0.1459 L 36.000762,124 z" style="fill:#b3925d;fill-opacity:1;fill-rule:evenodd;stroke:#000;stroke-width:0;stroke-linecap:butt;stroke-linejoin:miter;stroke-miterlimit:4;stroke-opacity:1;stroke-dasharray:none"/><path id="path7753" d="m 97.750257,56.002191 c -1.025821,-0.04502 -1.882013,0.614542 -2.665637,0.986566 -4.174912,3.698786 -21.569273,21.653428 -22.000397,22.168708 l -17.273332,20.659839 -0.106627,0.116066 -9.682256,17.6334 23.598527,-5.26172 29.942357,-36.049248 3.589728,-4.294461 c 0.64726,-1.199814 1.23861,-7.813473 -1.74155,-12.76732 -1.452992,-2.415269 -2.634989,-3.146806 -3.660813,-3.19183 z m 5.402363,15.95915 c -0.0266,0.04924 -0.0446,0.143824 -0.0711,0.174098 -0.0129,0.01476 1.49247,-1.049396 0.6753,-0.870498 l -0.60421,0.6964 z" style="fill:url(#linearGradient6028);fill-opacity:1;fill-rule:evenodd;stroke:none;filter:url(#filter3825)"/><path id="path2247" d="m 37.004018,123.01573 18.885171,-8.78019 0.09416,-0.10769 -12.551842,-11.60866 -0.12769,0.14592 -6.299801,20.35062 z" style="fill:url(#radialGradient6030);fill-opacity:1;fill-rule:evenodd;stroke:#000;stroke-width:0;stroke-linecap:butt;stroke-linejoin:miter;stroke-miterlimit:4;stroke-opacity:1;stroke-dasharray:none"/><path id="rect2192" d="m 49.164276,108.94499 c 1.648961,1.50106 2.755448,1.51054 3.34488,2.0471 0.09525,0.0867 0.175312,0.18851 0.243795,0.29167 L 97.392942,60.017302 90.912418,54.117987 46.187555,105.48147 c 0.214748,0.0564 0.415855,0.13454 0.602285,0.30424 0.538767,0.49045 0.717813,1.65124 2.374436,3.15928 z" style="fill:url(#linearGradient6032);fill-opacity:1;fill-rule:nonzero;stroke:none"/><path id="path2233" d="m 54.219542,109.12044 -1.750182,2.00168 c 0.538752,0.53092 0.431653,1.46553 1.421976,2.36702 1.067261,0.97156 1.630178,0.45849 2.321697,1.08447 l 1.771382,-2.02599 -3.764873,-3.42718 z" style="opacity:.35348834;fill:#000;fill-opacity:1;fill-rule:nonzero;stroke:none"/><path id="rect2190" d="M 97.156354,59.801933 52.550305,111.02955 c 0.541583,0.53354 0.517441,1.37742 1.512824,2.28353 1.072712,0.97652 1.555044,0.55628 2.250088,1.18547 L 100.94048,63.246681 97.156354,59.801933 z" style="fill:url(#linearGradient6034);fill-opacity:1;fill-rule:nonzero;stroke:none"/><path id="path2231" d="m 47.641192,104.81388 -0.897802,1.02682 -0.0345,0.0376 c 0.447512,0.42018 0.395724,1.39005 1.878296,2.86086 l 0.08229,0.0749 0.586334,0.53373 0.0823,0.0749 c 1.616252,1.35012 2.54668,1.16726 3.136095,1.7038 l 0.947655,-1.09585 -5.780669,-5.21679 z" style="opacity:.38604653;fill:#252525;fill-opacity:1;fill-rule:nonzero;stroke:none"/><path id="path2229" d="m 43.884886,101.37497 -0.940801,0.95531 c 0.02064,0.0187 -0.05311,0.1047 -0.03237,0.12358 0.423005,0.38509 0.412824,1.36825 1.189787,2.20191 l 0.072,0.0655 0.318878,0.29029 0.04115,0.0374 c 0.925767,0.72156 1.702344,0.46358 2.175362,0.82926 l 0.940872,-1.07609 -3.764879,-3.42723 z" style="opacity:.35348834;fill:#131313;fill-opacity:1;fill-rule:nonzero;stroke:none"/><path id="rect1315" d="m 44.501995,104.6749 c 1.032229,0.92922 1.738227,0.6105 2.287845,1.11081 L 91.395905,54.558106 87.571444,51.076654 42.944168,102.32853 c 0.02096,0.019 0.04162,0.0379 0.06269,0.0571 0.42971,0.39116 0.455145,1.35294 1.495139,2.28929 z" style="fill:url(#linearGradient6036);fill-opacity:1;fill-rule:nonzero;stroke:none"/><rect id="rect2069" width="18.073" height="4.252" x="99.381" y="-24.645" transform="matrix(0.7409346,0.6715772,-0.6655662,0.7463388,0,0)" style="fill:url(#linearGradient6038);fill-opacity:1;stroke:none"/><path id="path5963" d="m 82.172836,7.4622769 a 47.495197,0.97142172 0 1 1 -94.990394,0 47.495197,0.97142172 0 1 1 94.990394,0 z" transform="matrix(0.3854946,-0.4403693,-1.7345162,-1.5764895,62.874028,110.46407)" style="fill:url(#linearGradient6040);fill-opacity:1;fill-rule:nonzero;stroke:none;filter:url(#filter3849)"/><path id="path3321" d="m 106.56087,7.4622769 a 71.883232,0.4230493 0 1 1 -0.0355,-0.01329" transform="matrix(0.3184879,-0.3665274,-1.2576415,-1.1452705,66.925762,101.47904)" style="fill:url(#radialGradient6042);fill-opacity:1;fill-rule:nonzero;stroke:none"/><path id="path2265" d="m 44.721041,119.98334 c -1.894932,-0.77816 -4.469372,-3.93608 -5.787909,-5.07837 l -2.933131,9.08971 8.72104,-4.01134 z" style="fill:url(#linearGradient6044);fill-opacity:1;fill-rule:evenodd;stroke:none"/><path id="path3233" d="m 97.676422,50.957862 c 2.773338,2.157871 4.754818,5.136648 4.863888,5.422718 0.10904,0.286071 -2.586875,-3.046365 -4.878244,-4.572341 -2.273846,-1.514326 -5.450917,-1.552229 -5.685693,-1.736594 -0.234782,-0.184361 -1.822614,-1.877275 -0.38221,-1.814774 1.506596,0.06537 3.94013,1.035831 6.082259,2.700991 z" style="fill:url(#linearGradient6046);fill-opacity:1;fill-rule:evenodd;stroke:none"/><path id="path5045" d="m 93.653015,51.592952 -2.773744,3.218036 6.482458,5.873697 2.773741,-3.186793 -6.482455,-5.90494 z" style="fill:url(#linearGradient6048);fill-opacity:1;fill-rule:nonzero;stroke:none"/><rect id="rect3205" width="7.795" height="1.708" x="104.609" y="-25.365" transform="matrix(0.7404161,0.6721488,-0.6634233,0.7482443,0,0)" style="fill:url(#radialGradient6050);fill-opacity:1;fill-rule:nonzero;stroke:none"/><rect id="rect2956" width="5.348" height="1.162" x="94.947" y="-31.83" transform="matrix(0.6942228,0.7197602,-0.7693435,0.6388354,0,0)" style="fill:url(#radialGradient6052);fill-opacity:1;fill-rule:nonzero;stroke:none"/><rect id="rect2961" width="5.345" height="1.165" x="-119.967" y="-23.501" transform="matrix(-0.7514575,-0.6597815,-0.5893147,0.8079036,0,0)" style="fill:url(#radialGradient6486);fill-opacity:1;fill-rule:nonzero;stroke:none"/></g></g></svg>