<svg xmlns="http://www.w3.org/2000/svg" xmlns:svg="http://www.w3.org/2000/svg" xmlns:xlink="http://www.w3.org/1999/xlink" id="svg2606" width="128" height="128" version="1.0"><defs id="defs2608"><linearGradient id="linearGradient4492"><stop id="stop4494" offset="0" style="stop-color:#dc0448;stop-opacity:1"/><stop id="stop4496" offset=".5" style="stop-color:#e73b69;stop-opacity:1"/><stop id="stop4498" offset="1" style="stop-color:#fff;stop-opacity:0"/></linearGradient><linearGradient id="path2876_1_" x1="62.7" x2="22.7" y1="107.927" y2="-2.073" gradientUnits="userSpaceOnUse"><stop id="stop100" offset="0" style="stop-color:#d6d6d6;stop-opacity:1"/><stop id="stop102" offset=".009" style="stop-color:#d7d7d7;stop-opacity:1"/><stop id="stop104" offset=".22" style="stop-color:#ededed;stop-opacity:1"/><stop id="stop106" offset=".421" style="stop-color:#fafafa;stop-opacity:1"/><stop id="stop108" offset=".604" style="stop-color:#fff;stop-opacity:1"/><stop id="stop110" offset="1" style="stop-color:#d6d6d6;stop-opacity:1"/></linearGradient><linearGradient id="path9576_1_" x1="76.672" x2="36.672" y1="102.847" y2="-7.153" gradientUnits="userSpaceOnUse"><stop id="stop86" offset="0" style="stop-color:#d6d6d6;stop-opacity:1"/><stop id="stop88" offset=".009" style="stop-color:#d7d7d7;stop-opacity:1"/><stop id="stop90" offset=".22" style="stop-color:#ededed;stop-opacity:1"/><stop id="stop92" offset=".421" style="stop-color:#fafafa;stop-opacity:1"/><stop id="stop94" offset=".604" style="stop-color:#fff;stop-opacity:1"/><stop id="stop96" offset="1" style="stop-color:#d6d6d6;stop-opacity:1"/></linearGradient><radialGradient id="XMLID_2_" cx="86" cy="104.305" r="139.559" gradientTransform="translate(66,8)" gradientUnits="userSpaceOnUse"><stop id="stop13" offset="0" style="stop-color:#0057ae;stop-opacity:1"/><stop id="stop15" offset=".058" style="stop-color:#2874ca;stop-opacity:1"/><stop id="stop17" offset=".117" style="stop-color:#488ce1;stop-opacity:1"/><stop id="stop19" offset=".174" style="stop-color:#609df2;stop-opacity:1"/><stop id="stop21" offset=".227" style="stop-color:#6ea7fc;stop-opacity:1"/><stop id="stop23" offset=".272" style="stop-color:#73abff;stop-opacity:1"/><stop id="stop25" offset=".434" style="stop-color:#6ea8fc;stop-opacity:1"/><stop id="stop27" offset=".631" style="stop-color:#5f9ef4;stop-opacity:1"/><stop id="stop29" offset=".844" style="stop-color:#478de7;stop-opacity:1"/><stop id="stop31" offset="1" style="stop-color:#307edb;stop-opacity:1"/></radialGradient><radialGradient id="XMLID_1_" cx="86" cy="104.305" r="139.559" gradientTransform="translate(66,8)" gradientUnits="userSpaceOnUse"><stop id="stop4" offset="0" style="stop-color:#00438a;stop-opacity:1"/><stop id="stop6" offset=".124" style="stop-color:#5586be;stop-opacity:1"/><stop id="stop8" offset=".272" style="stop-color:#bfd9ff;stop-opacity:1"/></radialGradient><linearGradient id="linearGradient10207"><stop id="stop10209" offset="0" style="stop-color:#a2a2a2;stop-opacity:1"/><stop id="stop10211" offset="1" style="stop-color:#fff;stop-opacity:1"/></linearGradient><linearGradient id="XMLID_12_" x1="96" x2="88" y1="104" y2="96" gradientUnits="userSpaceOnUse"><stop id="stop83" offset="0" style="stop-color:#888a85;stop-opacity:1"/><stop id="stop85" offset=".007" style="stop-color:#8c8e89;stop-opacity:1"/><stop id="stop87" offset=".067" style="stop-color:#abaca9;stop-opacity:1"/><stop id="stop89" offset=".135" style="stop-color:#c5c6c4;stop-opacity:1"/><stop id="stop91" offset=".265" style="stop-color:#dbdbda;stop-opacity:1"/><stop id="stop93" offset=".376" style="stop-color:#ebebeb;stop-opacity:1"/><stop id="stop95" offset=".487" style="stop-color:#f7f7f6;stop-opacity:1"/><stop id="stop97" offset=".632" style="stop-color:#fdfdfd;stop-opacity:1"/><stop id="stop99" offset="1" style="stop-color:#fff;stop-opacity:1"/></linearGradient><radialGradient id="XMLID_8_" cx="102" cy="112.305" r="139.559" gradientUnits="userSpaceOnUse"><stop id="stop41" offset="0" style="stop-color:#b7b8b9;stop-opacity:1"/><stop id="stop47" offset=".189" style="stop-color:#ececec;stop-opacity:1"/><stop id="stop49" offset=".257" style="stop-color:#fafafa;stop-opacity:1"/><stop id="stop51" offset=".301" style="stop-color:#fff;stop-opacity:1"/><stop id="stop53" offset=".531" style="stop-color:#fafafa;stop-opacity:1"/><stop id="stop55" offset=".845" style="stop-color:#ebecec;stop-opacity:1"/><stop id="stop57" offset="1" style="stop-color:#e1e2e3;stop-opacity:1"/></radialGradient><filter id="filter6697" width="1.384" height="1.384" x="-.192" y="-.192" color-interpolation-filters="sRGB"><feGaussianBlur id="feGaussianBlur6699" stdDeviation="1.945"/></filter><clipPath id="clipPath7084"><path id="path7086" d="m 72,88 -32,32 -8,0 0,-40 40,0 0,8 z" style="fill:#000;fill-opacity:1;fill-rule:evenodd;stroke:none"/></clipPath><filter id="filter2770" color-interpolation-filters="sRGB"><feGaussianBlur id="feGaussianBlur2772" stdDeviation="2.079"/></filter><radialGradient id="radialGradient7906" cx="102" cy="112.305" r="139.559" gradientTransform="matrix(1,0,0,0.9996653,2e-6,0.00301608)" gradientUnits="userSpaceOnUse" xlink:href="#XMLID_2_"/><linearGradient id="linearGradient8507" x1="76.672" x2="36.672" y1="102.847" y2="-7.153" gradientUnits="userSpaceOnUse" xlink:href="#path9576_1_"/><linearGradient id="linearGradient8509" x1="62.7" x2="22.7" y1="107.927" y2="-2.073" gradientUnits="userSpaceOnUse" xlink:href="#path2876_1_"/><linearGradient id="linearGradient8515" x1="98.617" x2="91.229" y1="106.414" y2="99.255" gradientTransform="translate(10,0)" gradientUnits="userSpaceOnUse" xlink:href="#linearGradient10207"/><linearGradient id="linearGradient12279" x1="76.672" x2="36.672" y1="102.847" y2="-7.153" gradientUnits="userSpaceOnUse" xlink:href="#path9576_1_"/><linearGradient id="linearGradient12281" x1="62.7" x2="22.7" y1="107.927" y2="-2.073" gradientUnits="userSpaceOnUse" xlink:href="#path2876_1_"/><linearGradient id="linearGradient12284" x1="2" x2="94.5" y1=".5" y2="114" gradientUnits="userSpaceOnUse" xlink:href="#linearGradient7891"/><radialGradient id="radialGradient3103" cx="102" cy="112.305" r="139.559" gradientTransform="matrix(1,0,0,0.9996653,2e-6,0.00301608)" gradientUnits="userSpaceOnUse" xlink:href="#XMLID_2_"/><linearGradient id="linearGradient3105" x1="76.672" x2="36.672" y1="102.847" y2="-7.153" gradientUnits="userSpaceOnUse" xlink:href="#path9576_1_"/><linearGradient id="linearGradient3107" x1="62.7" x2="22.7" y1="107.927" y2="-2.073" gradientUnits="userSpaceOnUse" xlink:href="#path2876_1_"/><linearGradient id="linearGradient3109" x1="98.617" x2="91.229" y1="106.414" y2="99.255" gradientTransform="translate(10,0)" gradientUnits="userSpaceOnUse" xlink:href="#linearGradient10207"/><linearGradient id="linearGradient11544" x1="64.13" x2="2.747" y1="56.231" y2="56.231" gradientTransform="translate(51.99864,0.01793845)" gradientUnits="userSpaceOnUse" xlink:href="#linearGradient3506"/><linearGradient id="linearGradient3506"><stop id="stop3508" offset="0" style="stop-color:#181800;stop-opacity:1"/><stop id="stop11512" offset="0" style="stop-color:#1a0016;stop-opacity:1"/><stop id="stop3514" offset=".9" style="stop-color:#999;stop-opacity:.58762884"/><stop id="stop3753" offset=".95" style="stop-color:#ccc;stop-opacity:.61855668"/><stop id="stop3510" offset="1" style="stop-color:#fff;stop-opacity:0"/></linearGradient><linearGradient id="linearGradient11541" x1="72" x2="4" y1="47.404" y2="47.404" gradientTransform="translate(51.99864,0)" gradientUnits="userSpaceOnUse" xlink:href="#linearGradient9732"/><linearGradient id="linearGradient9732"><stop id="stop9734" offset="0" style="stop-color:#fff;stop-opacity:1"/><stop id="stop9740" offset=".5" style="stop-color:#fff;stop-opacity:1"/><stop id="stop9736" offset="1" style="stop-color:#fff;stop-opacity:0"/></linearGradient><linearGradient id="linearGradient3099" x1="72" x2="4" y1="47.404" y2="47.404" gradientTransform="translate(51.99864,0)" gradientUnits="userSpaceOnUse" xlink:href="#linearGradient9732"/><linearGradient id="linearGradient3719" x1="72" x2="4" y1="47.404" y2="47.404" gradientTransform="translate(51.998637,13.991031)" gradientUnits="userSpaceOnUse" xlink:href="#linearGradient4492"/><linearGradient id="linearGradient3722" x1="64.13" x2="2.747" y1="56.231" y2="56.231" gradientTransform="translate(51.998637,14.008969)" gradientUnits="userSpaceOnUse" xlink:href="#linearGradient3506"/><linearGradient id="linearGradient5537" x1="72" x2="4" y1="47.404" y2="47.404" gradientTransform="translate(50.779652,14)" gradientUnits="userSpaceOnUse" xlink:href="#linearGradient4492"/><linearGradient id="linearGradient5539" x1="64.13" x2="2.747" y1="56.231" y2="56.231" gradientTransform="translate(50.779652,14.008969)" gradientUnits="userSpaceOnUse" xlink:href="#linearGradient3506"/><linearGradient id="linearGradient5545" x1="64.13" x2="2.747" y1="56.231" y2="56.231" gradientTransform="translate(50.779652,14.008969)" gradientUnits="userSpaceOnUse" xlink:href="#linearGradient3506"/><linearGradient id="linearGradient5547" x1="72" x2="4" y1="47.404" y2="47.404" gradientTransform="translate(50.779652,14)" gradientUnits="userSpaceOnUse" xlink:href="#linearGradient4492"/><linearGradient id="linearGradient8842" x1="16.097" x2="67.692" y1="50" y2="50" gradientTransform="matrix(1,0,0,-1,0,100)" gradientUnits="userSpaceOnUse" xlink:href="#linearGradient3506-9"/><linearGradient id="linearGradient3506-9"><stop id="stop3508-1" offset="0" style="stop-color:#646464;stop-opacity:1"/><stop id="stop11512-5" offset="0" style="stop-color:#7e7e7e;stop-opacity:1"/><stop id="stop3514-4" offset=".86" style="stop-color:#999;stop-opacity:.58762884"/><stop id="stop3510-9" offset="1" style="stop-color:#fff;stop-opacity:0"/></linearGradient><linearGradient id="linearGradient9738" x1="4" x2="72" y1="50" y2="50" gradientUnits="userSpaceOnUse" xlink:href="#linearGradient9732-2"/><linearGradient id="linearGradient9732-2"><stop id="stop9734-5" offset="0" style="stop-color:#fff;stop-opacity:1"/><stop id="stop9740-7" offset=".5" style="stop-color:#fff;stop-opacity:1"/><stop id="stop9736-4" offset="1" style="stop-color:#fff;stop-opacity:0"/></linearGradient><linearGradient id="linearGradient5587" x1="16.097" x2="67.692" y1="50" y2="50" gradientTransform="matrix(1,0,0,-1,0,100)" gradientUnits="userSpaceOnUse" xlink:href="#linearGradient3506-9"/><linearGradient id="linearGradient5589" x1="4" x2="72" y1="50" y2="50" gradientUnits="userSpaceOnUse" xlink:href="#linearGradient9732-2"/><linearGradient id="linearGradient5592" x1="4" x2="72" y1="50" y2="50" gradientTransform="matrix(0.999982,0,0,0.9994,0,14.021036)" gradientUnits="userSpaceOnUse" xlink:href="#linearGradient4492"/><linearGradient id="linearGradient5595" x1="16.097" x2="67.692" y1="50" y2="50" gradientTransform="matrix(0.999982,0,0,-0.9994,0,113.96104)" gradientUnits="userSpaceOnUse" xlink:href="#linearGradient3506"/></defs><metadata id="metadata2611"/><g id="layer1" transform="matrix(0.81,0,0,0.81,29.215282,12.254999)"><g id="g3070" transform="matrix(1.05,0,0,1.05,-3.2000001,-3.2249998)"><path id="path7865" d="m 16,8 0,112 c 0,0 63.15625,0 63.15625,0 l 0.03125,0 c 3e-6,0 11.90625,-9.90625 17.40625,-15.40625 C 102.09375,99.09375 112,87.1875 112,87.1875 L 112,87.15625 112,8 16,8 z" transform="matrix(1.0416667,0,0,1.0267857,-2.6666667,-1.2142891)" style="opacity:.5;fill:#000;fill-opacity:1;filter:url(#filter2770)"/><path id="path34" d="M 16.000001,8 16,120 c 0,0 63.146418,0 63.146418,0 L 112,87.14642 112,8 16.000001,8 z" style="fill:#71aafe;fill-opacity:1"/><path id="path59" d="m 18.000002,9.0000034 c -0.551,0 -1,0.44885 -1,0.999665 l 0,107.9638516 c 0,0.55181 0.449,0.99966 1,0.99966 l 62.171997,0 L 110.707,88.094202 C 110.894,87.907264 111,85.40942 111,85.146508 l 0,-75.1468396 c 0,-0.550815 -0.448,-0.999665 -1,-0.999665 l -91.999998,0 z" style="fill:url(#radialGradient3103);fill-opacity:1"/><g id="g83" transform="translate(0,24)"><linearGradient id="linearGradient7876" x1="76.672" x2="36.672" y1="102.847" y2="-7.153" gradientUnits="userSpaceOnUse"><stop id="stop7878" offset="0" style="stop-color:#d6d6d6;stop-opacity:1"/><stop id="stop7880" offset=".009" style="stop-color:#d7d7d7;stop-opacity:1"/><stop id="stop7882" offset=".22" style="stop-color:#ededed;stop-opacity:1"/><stop id="stop7884" offset=".421" style="stop-color:#fafafa;stop-opacity:1"/><stop id="stop7886" offset=".604" style="stop-color:#fff;stop-opacity:1"/><stop id="stop7888" offset="1" style="stop-color:#d6d6d6;stop-opacity:1"/></linearGradient><path id="path9576" d="M 48.001,16 C 43.585,16 40,19.585 40,24 c 0,4.416 3.585,8 8.001,8 C 52.415,32 56,28.415 56,24 56,19.585 52.415,16 48.001,16 z" style="fill:url(#linearGradient3105)"/><linearGradient id="linearGradient7891" x1="62.7" x2="22.7" y1="107.927" y2="-2.073" gradientUnits="userSpaceOnUse"><stop id="stop7893" offset="0" style="stop-color:#d6d6d6;stop-opacity:1"/><stop id="stop7895" offset=".065" style="stop-color:#d7d7d7;stop-opacity:1"/><stop id="stop7897" offset=".186" style="stop-color:#ededed;stop-opacity:1"/><stop id="stop7899" offset=".421" style="stop-color:#fafafa;stop-opacity:1"/><stop id="stop7901" offset=".737" style="stop-color:#fff;stop-opacity:1"/><stop id="stop7903" offset="1" style="stop-color:#d6d6d6;stop-opacity:1"/></linearGradient><path id="path2876" d="m 56,36 -20,4 0,8 8,0 0,32 -8,0 0,8 28,0 0,-8 -8,0 0,-44 z" style="fill:url(#linearGradient3107)"/></g><g id="g8511" transform="translate(-10,0)"><path id="path5540" d="m 41.879531,115.98249 c 0,0 24.309609,-24.309614 24.309609,-24.309614 0,0 -9.35314,2.913124 -19.60314,2.913124 0,10.25 -4.706469,21.39649 -4.706469,21.39649 z" clip-path="url(#clipPath7084)" transform="translate(50,0)" style="opacity:.4;fill:#000;fill-opacity:1;filter:url(#filter6697)"/><path id="path14523" d="m 89.172,120 c 0,0 11.914,-9.914 17.414,-15.414 5.5,-5.5 15.414,-17.414 15.414,-17.414 0,0 -13.75,8.828 -24,8.828 0,10.25 -8.828,24 -8.828,24 z" style="fill:url(#linearGradient3109);fill-opacity:1"/></g></g></g><path id="path2619-9" d="m 39.655536,26.013836 c -0.943914,0.07728 -1.829778,0.486756 -2.499955,1.155556 l -7.999856,7.9952 c -1.446606,1.446302 -1.567949,3.750468 -0.281245,5.340544 l 10.812306,13.4919 -35.686858,0 C 1.7909203,53.997257 2.2086764e-4,55.786913 0,57.994636 l 0,11.9928 c 2.2086764e-4,2.207723 1.7909203,3.997379 3.999928,3.9976 l 35.686858,0 -10.812306,13.4919 c -1.286704,1.590076 -1.165361,3.894242 0.281245,5.340544 l 7.999856,7.9952 c 0.766272,0.76634 1.822305,1.20445 2.906198,1.18679 1.083892,-0.0177 2.102831,-0.48958 2.843699,-1.28048 L 74.904902,66.739386 c 1.460122,-1.541675 1.460122,-3.955025 0,-5.4967 l -31.999424,-33.9796 c -0.835643,-0.890494 -2.032601,-1.350594 -3.249942,-1.24925 z m 0.343744,3.9976 31.999424,33.9796 -31.999424,33.9796 -7.999856,-7.9952 15.999712,-19.988 -43.999208,0 0,-11.9928 43.999208,0 -15.999712,-19.988 7.999856,-7.9952 z" style="fill:url(#linearGradient5595);fill-opacity:1;stroke:none"/><path id="polygon3477_2_-9" d="m 31.999424,89.975436 7.999856,7.9952 31.999424,-33.9796 -31.999424,-33.9796 -7.999856,7.9952 15.999712,19.988 -43.999208,0 0,11.9928 43.999208,0 -15.999712,19.988 z" style="fill:url(#linearGradient5592);fill-opacity:1"/></svg>