<svg xmlns="http://www.w3.org/2000/svg" xmlns:svg="http://www.w3.org/2000/svg" xmlns:xlink="http://www.w3.org/1999/xlink" id="svg2606" width="128" height="128" version="1.0"><defs id="defs2608"><linearGradient id="path2876_1_" x1="62.7" x2="22.7" y1="107.927" y2="-2.073" gradientUnits="userSpaceOnUse"><stop id="stop100" offset="0" style="stop-color:#d6d6d6;stop-opacity:1"/><stop id="stop102" offset=".009" style="stop-color:#d7d7d7;stop-opacity:1"/><stop id="stop104" offset=".22" style="stop-color:#ededed;stop-opacity:1"/><stop id="stop106" offset=".421" style="stop-color:#fafafa;stop-opacity:1"/><stop id="stop108" offset=".604" style="stop-color:#fff;stop-opacity:1"/><stop id="stop110" offset="1" style="stop-color:#d6d6d6;stop-opacity:1"/></linearGradient><linearGradient id="path9576_1_" x1="76.672" x2="36.672" y1="102.847" y2="-7.153" gradientUnits="userSpaceOnUse"><stop id="stop86" offset="0" style="stop-color:#d6d6d6;stop-opacity:1"/><stop id="stop88" offset=".009" style="stop-color:#d7d7d7;stop-opacity:1"/><stop id="stop90" offset=".22" style="stop-color:#ededed;stop-opacity:1"/><stop id="stop92" offset=".421" style="stop-color:#fafafa;stop-opacity:1"/><stop id="stop94" offset=".604" style="stop-color:#fff;stop-opacity:1"/><stop id="stop96" offset="1" style="stop-color:#d6d6d6;stop-opacity:1"/></linearGradient><radialGradient id="XMLID_2_" cx="86" cy="104.305" r="139.559" gradientTransform="translate(66,8)" gradientUnits="userSpaceOnUse"><stop id="stop13" offset="0" style="stop-color:#0057ae;stop-opacity:1"/><stop id="stop15" offset=".058" style="stop-color:#2874ca;stop-opacity:1"/><stop id="stop17" offset=".117" style="stop-color:#488ce1;stop-opacity:1"/><stop id="stop19" offset=".174" style="stop-color:#609df2;stop-opacity:1"/><stop id="stop21" offset=".227" style="stop-color:#6ea7fc;stop-opacity:1"/><stop id="stop23" offset=".272" style="stop-color:#73abff;stop-opacity:1"/><stop id="stop25" offset=".434" style="stop-color:#6ea8fc;stop-opacity:1"/><stop id="stop27" offset=".631" style="stop-color:#5f9ef4;stop-opacity:1"/><stop id="stop29" offset=".844" style="stop-color:#478de7;stop-opacity:1"/><stop id="stop31" offset="1" style="stop-color:#307edb;stop-opacity:1"/></radialGradient><radialGradient id="XMLID_1_" cx="86" cy="104.305" r="139.559" gradientTransform="translate(66,8)" gradientUnits="userSpaceOnUse"><stop id="stop4" offset="0" style="stop-color:#00438a;stop-opacity:1"/><stop id="stop6" offset=".124" style="stop-color:#5586be;stop-opacity:1"/><stop id="stop8" offset=".272" style="stop-color:#bfd9ff;stop-opacity:1"/></radialGradient><linearGradient id="linearGradient10207"><stop id="stop10209" offset="0" style="stop-color:#a2a2a2;stop-opacity:1"/><stop id="stop10211" offset="1" style="stop-color:#fff;stop-opacity:1"/></linearGradient><linearGradient id="XMLID_12_" x1="96" x2="88" y1="104" y2="96" gradientUnits="userSpaceOnUse"><stop id="stop83" offset="0" style="stop-color:#888a85;stop-opacity:1"/><stop id="stop85" offset=".007" style="stop-color:#8c8e89;stop-opacity:1"/><stop id="stop87" offset=".067" style="stop-color:#abaca9;stop-opacity:1"/><stop id="stop89" offset=".135" style="stop-color:#c5c6c4;stop-opacity:1"/><stop id="stop91" offset=".265" style="stop-color:#dbdbda;stop-opacity:1"/><stop id="stop93" offset=".376" style="stop-color:#ebebeb;stop-opacity:1"/><stop id="stop95" offset=".487" style="stop-color:#f7f7f6;stop-opacity:1"/><stop id="stop97" offset=".632" style="stop-color:#fdfdfd;stop-opacity:1"/><stop id="stop99" offset="1" style="stop-color:#fff;stop-opacity:1"/></linearGradient><radialGradient id="XMLID_8_" cx="102" cy="112.305" r="139.559" gradientUnits="userSpaceOnUse"><stop id="stop41" offset="0" style="stop-color:#b7b8b9;stop-opacity:1"/><stop id="stop47" offset=".189" style="stop-color:#ececec;stop-opacity:1"/><stop id="stop49" offset=".257" style="stop-color:#fafafa;stop-opacity:1"/><stop id="stop51" offset=".301" style="stop-color:#fff;stop-opacity:1"/><stop id="stop53" offset=".531" style="stop-color:#fafafa;stop-opacity:1"/><stop id="stop55" offset=".845" style="stop-color:#ebecec;stop-opacity:1"/><stop id="stop57" offset="1" style="stop-color:#e1e2e3;stop-opacity:1"/></radialGradient><filter id="filter6697" width="1.384" height="1.384" x="-.192" y="-.192" color-interpolation-filters="sRGB"><feGaussianBlur id="feGaussianBlur6699" stdDeviation="1.945"/></filter><clipPath id="clipPath7084"><path id="path7086" d="m 72,88 -32,32 -8,0 0,-40 40,0 0,8 z" style="fill:#000;fill-opacity:1;fill-rule:evenodd;stroke:none"/></clipPath><filter id="filter2770" color-interpolation-filters="sRGB"><feGaussianBlur id="feGaussianBlur2772" stdDeviation="2.079"/></filter><radialGradient id="radialGradient7906" cx="102" cy="112.305" r="139.559" gradientTransform="matrix(1,0,0,0.9996653,2e-6,0.00301608)" gradientUnits="userSpaceOnUse" xlink:href="#XMLID_2_"/><linearGradient id="linearGradient8507" x1="76.672" x2="36.672" y1="102.847" y2="-7.153" gradientUnits="userSpaceOnUse" xlink:href="#path9576_1_"/><linearGradient id="linearGradient8509" x1="62.7" x2="22.7" y1="107.927" y2="-2.073" gradientUnits="userSpaceOnUse" xlink:href="#path2876_1_"/><linearGradient id="linearGradient8515" x1="98.617" x2="91.229" y1="106.414" y2="99.255" gradientTransform="translate(10,0)" gradientUnits="userSpaceOnUse" xlink:href="#linearGradient10207"/><linearGradient id="linearGradient12279" x1="76.672" x2="36.672" y1="102.847" y2="-7.153" gradientUnits="userSpaceOnUse" xlink:href="#path9576_1_"/><linearGradient id="linearGradient12281" x1="62.7" x2="22.7" y1="107.927" y2="-2.073" gradientUnits="userSpaceOnUse" xlink:href="#path2876_1_"/><linearGradient id="linearGradient12284" x1="2" x2="94.5" y1=".5" y2="114" gradientUnits="userSpaceOnUse" xlink:href="#linearGradient7891"/><radialGradient id="radialGradient3103" cx="102" cy="112.305" r="139.559" gradientTransform="matrix(1,0,0,0.9996653,2e-6,0.00301608)" gradientUnits="userSpaceOnUse" xlink:href="#XMLID_2_"/><linearGradient id="linearGradient3105" x1="76.672" x2="36.672" y1="102.847" y2="-7.153" gradientUnits="userSpaceOnUse" xlink:href="#path9576_1_"/><linearGradient id="linearGradient3107" x1="62.7" x2="22.7" y1="107.927" y2="-2.073" gradientUnits="userSpaceOnUse" xlink:href="#path2876_1_"/><linearGradient id="linearGradient3109" x1="98.617" x2="91.229" y1="106.414" y2="99.255" gradientTransform="translate(10,0)" gradientUnits="userSpaceOnUse" xlink:href="#linearGradient10207"/><radialGradient id="radialGradient4586-3" cx="36.921" cy="37.277" r="31.705" fx="28.846" fy="20.467" gradientTransform="matrix(1,0,0,1.008658,0,-0.322745)" gradientUnits="userSpaceOnUse" xlink:href="#linearGradient4206-7"/><linearGradient id="linearGradient4206-7"><stop id="stop4208-4" offset="0" style="stop-color:#fff;stop-opacity:1"/><stop id="stop4210-5" offset="1" style="stop-color:#fff;stop-opacity:0"/></linearGradient><radialGradient id="radialGradient8247-2" cx="41.062" cy="55.098" r="34.469" fx="41.062" fy="55.098" gradientTransform="matrix(1.238726,-2.419153e-7,2.657446e-4,1.09297,-9.586477,-6.010992)" gradientUnits="userSpaceOnUse" xlink:href="#linearGradient3319-5"/><linearGradient id="linearGradient3319-5"><stop id="stop3321-4" offset="0" style="stop-color:#000;stop-opacity:0"/><stop id="stop2287-7" offset=".863" style="stop-color:#000;stop-opacity:0"/><stop id="stop3323-4" offset="1" style="stop-color:#000;stop-opacity:.27797833"/></linearGradient><linearGradient id="linearGradient8245-4" x1="111.583" x2="127.359" y1="91.832" y2="93.82" gradientUnits="userSpaceOnUse" xlink:href="#linearGradient8239-3"/><linearGradient id="linearGradient8239-3"><stop id="stop8241-0" offset="0" style="stop-color:#000;stop-opacity:1"/><stop id="stop8243-7" offset="1" style="stop-color:#000;stop-opacity:0"/></linearGradient><radialGradient id="radialGradient7294-8" cx="49.157" cy="62.381" r="8.333" fx="45.9" fy="62.298" gradientTransform="matrix(0.481842,-0.582923,6.302631,5.30129,-312.9405,-234.7444)" gradientUnits="userSpaceOnUse" xlink:href="#linearGradient2288-6"/><linearGradient id="linearGradient2288-6"><stop id="stop2290-8" offset="0" style="stop-color:#fff;stop-opacity:1"/><stop id="stop2292-8" offset="1" style="stop-color:#fff;stop-opacity:0"/></linearGradient><radialGradient id="radialGradient7291-4" cx="32.49" cy="69.225" r="8.333" fx="29.739" fy="69.225" gradientTransform="matrix(0.481842,-0.582923,6.302631,5.30129,-312.9405,-234.7444)" gradientUnits="userSpaceOnUse" xlink:href="#linearGradient2288-6"/><linearGradient id="linearGradient3340"><stop id="stop3342" offset="0" style="stop-color:#fff;stop-opacity:1"/><stop id="stop3344" offset="1" style="stop-color:#fff;stop-opacity:0"/></linearGradient><radialGradient id="radialGradient4594-1" cx="53.823" cy="51.796" r="5.284" fx="53.363" fy="53.704" gradientTransform="matrix(1,0,0,0.350763,0,33.62806)" gradientUnits="userSpaceOnUse" xlink:href="#linearGradient3201-4"/><linearGradient id="linearGradient3201-4"><stop id="stop3203-9" offset="0" style="stop-color:#fff;stop-opacity:1"/><stop id="stop3205-2" offset="1" style="stop-color:#fff;stop-opacity:0"/></linearGradient><linearGradient id="linearGradient7286-0" x1="28.072" x2="40.199" y1="20.205" y2="20.205" gradientTransform="matrix(-0.275331,0.33309,0.328838,0.276593,99.52129,50.82237)" gradientUnits="userSpaceOnUse" spreadMethod="reflect" xlink:href="#linearGradient3225-6"/><linearGradient id="linearGradient3225-6"><stop id="stop3227-8" offset="0" style="stop-color:#fff;stop-opacity:1"/><stop id="stop3229-9" offset="1" style="stop-color:#aeaeae;stop-opacity:1"/></linearGradient><linearGradient id="linearGradient4598-2" x1="67.706" x2="60.433" y1="137.941" y2="42.427" gradientUnits="userSpaceOnUse" xlink:href="#linearGradient5142-6"/><linearGradient id="linearGradient5142-6"><stop id="stop5144-6" offset="0" style="stop-color:#fff;stop-opacity:1"/><stop id="stop5146-4" offset="1" style="stop-color:#fff;stop-opacity:0"/></linearGradient><linearGradient id="linearGradient4600-9" x1="34.842" x2="35.561" y1="-7.142" y2="11.416" gradientUnits="userSpaceOnUse" xlink:href="#linearGradient5111-5"/><linearGradient id="linearGradient5111-5"><stop id="stop5113-0" offset="0" style="stop-color:#fff;stop-opacity:1"/><stop id="stop5115-4" offset="1" style="stop-color:#fff;stop-opacity:0"/></linearGradient><linearGradient id="linearGradient4602-8" x1="34.842" x2="35.561" y1="-7.142" y2="11.416" gradientUnits="userSpaceOnUse" xlink:href="#linearGradient5111-5"/><linearGradient id="linearGradient3363"><stop id="stop3365" offset="0" style="stop-color:#fff;stop-opacity:1"/><stop id="stop3367" offset="1" style="stop-color:#fff;stop-opacity:0"/></linearGradient><linearGradient id="linearGradient4604-7" x1="34.842" x2="35.561" y1="-7.142" y2="11.416" gradientUnits="userSpaceOnUse" xlink:href="#linearGradient5111-5"/><linearGradient id="linearGradient3370"><stop id="stop3372" offset="0" style="stop-color:#fff;stop-opacity:1"/><stop id="stop3374" offset="1" style="stop-color:#fff;stop-opacity:0"/></linearGradient><radialGradient id="radialGradient4606-1" cx="40.479" cy="27.81" r="30.543" fx="40.479" fy="42.867" gradientTransform="matrix(1.743822,4.610586e-7,-4.175093e-7,0.670083,-30.109,9.1749)" gradientUnits="userSpaceOnUse" xlink:href="#linearGradient5176-7"/><linearGradient id="linearGradient5176-7"><stop id="stop5178-2" offset="0" style="stop-color:#fff;stop-opacity:1"/><stop id="stop5180-7" offset="1" style="stop-color:#fff;stop-opacity:0"/></linearGradient><linearGradient id="linearGradient7300-2" x1="34.842" x2="35.561" y1="-7.142" y2="11.416" gradientUnits="userSpaceOnUse" xlink:href="#linearGradient5111-5"/><linearGradient id="linearGradient3381"><stop id="stop3383" offset="0" style="stop-color:#fff;stop-opacity:1"/><stop id="stop3385" offset="1" style="stop-color:#fff;stop-opacity:0"/></linearGradient><linearGradient id="linearGradient7302-2" x1="34.842" x2="35.561" y1="-7.142" y2="11.416" gradientUnits="userSpaceOnUse" xlink:href="#linearGradient5111-5"/><linearGradient id="linearGradient3388"><stop id="stop3390" offset="0" style="stop-color:#fff;stop-opacity:1"/><stop id="stop3392" offset="1" style="stop-color:#fff;stop-opacity:0"/></linearGradient><linearGradient id="linearGradient7304-6" x1="34.842" x2="35.561" y1="-7.142" y2="11.416" gradientUnits="userSpaceOnUse" xlink:href="#linearGradient5111-5"/><linearGradient id="linearGradient3395"><stop id="stop3397" offset="0" style="stop-color:#fff;stop-opacity:1"/><stop id="stop3399" offset="1" style="stop-color:#fff;stop-opacity:0"/></linearGradient><linearGradient id="linearGradient3405" x1="67.515" x2="63.402" y1="86.706" y2="61.357" gradientTransform="matrix(0.807146,0,0,0.8078,44.30731,16.59515)" gradientUnits="userSpaceOnUse" xlink:href="#linearGradient4171-5"/><linearGradient id="linearGradient4171-5"><stop id="stop4173-9" offset="0" style="stop-color:#000;stop-opacity:1"/><stop id="stop4175-4" offset="1" style="stop-color:#000;stop-opacity:0"/></linearGradient></defs><metadata id="metadata2611"/><g id="layer1"><g id="g3070" transform="matrix(1.05,0,0,1.05,-3.2000001,-3.2249998)"><path id="path7865" d="m 16,8 0,112 c 0,0 63.15625,0 63.15625,0 l 0.03125,0 c 3e-6,0 11.90625,-9.90625 17.40625,-15.40625 C 102.09375,99.09375 112,87.1875 112,87.1875 L 112,87.15625 112,8 16,8 z" transform="matrix(1.0416667,0,0,1.0267857,-2.6666667,-1.2142891)" style="opacity:.5;fill:#000;fill-opacity:1;filter:url(#filter2770)"/><path id="path34" d="M 16.000001,8 16,120 c 0,0 63.146418,0 63.146418,0 L 112,87.14642 112,8 16.000001,8 z" style="fill:#71aafe;fill-opacity:1"/><path id="path59" d="m 18.000002,9.0000034 c -0.551,0 -1,0.44885 -1,0.999665 l 0,107.9638516 c 0,0.55181 0.449,0.99966 1,0.99966 l 62.171997,0 L 110.707,88.094202 C 110.894,87.907264 111,85.40942 111,85.146508 l 0,-75.1468396 c 0,-0.550815 -0.448,-0.999665 -1,-0.999665 l -91.999998,0 z" style="fill:url(#radialGradient3103);fill-opacity:1"/><g id="g83" transform="translate(0,24)"><linearGradient id="linearGradient7876" x1="76.672" x2="36.672" y1="102.847" y2="-7.153" gradientUnits="userSpaceOnUse"><stop id="stop7878" offset="0" style="stop-color:#d6d6d6;stop-opacity:1"/><stop id="stop7880" offset=".009" style="stop-color:#d7d7d7;stop-opacity:1"/><stop id="stop7882" offset=".22" style="stop-color:#ededed;stop-opacity:1"/><stop id="stop7884" offset=".421" style="stop-color:#fafafa;stop-opacity:1"/><stop id="stop7886" offset=".604" style="stop-color:#fff;stop-opacity:1"/><stop id="stop7888" offset="1" style="stop-color:#d6d6d6;stop-opacity:1"/></linearGradient><path id="path9576" d="M 48.001,16 C 43.585,16 40,19.585 40,24 c 0,4.416 3.585,8 8.001,8 C 52.415,32 56,28.415 56,24 56,19.585 52.415,16 48.001,16 z" style="fill:url(#linearGradient3105)"/><linearGradient id="linearGradient7891" x1="62.7" x2="22.7" y1="107.927" y2="-2.073" gradientUnits="userSpaceOnUse"><stop id="stop7893" offset="0" style="stop-color:#d6d6d6;stop-opacity:1"/><stop id="stop7895" offset=".065" style="stop-color:#d7d7d7;stop-opacity:1"/><stop id="stop7897" offset=".186" style="stop-color:#ededed;stop-opacity:1"/><stop id="stop7899" offset=".421" style="stop-color:#fafafa;stop-opacity:1"/><stop id="stop7901" offset=".737" style="stop-color:#fff;stop-opacity:1"/><stop id="stop7903" offset="1" style="stop-color:#d6d6d6;stop-opacity:1"/></linearGradient><path id="path2876" d="m 56,36 -20,4 0,8 8,0 0,32 -8,0 0,8 28,0 0,-8 -8,0 0,-44 z" style="fill:url(#linearGradient3107)"/></g><g id="g8511" transform="translate(-10,0)"><path id="path5540" d="m 41.879531,115.98249 c 0,0 24.309609,-24.309614 24.309609,-24.309614 0,0 -9.35314,2.913124 -19.60314,2.913124 0,10.25 -4.706469,21.39649 -4.706469,21.39649 z" clip-path="url(#clipPath7084)" transform="translate(50,0)" style="opacity:.4;fill:#000;fill-opacity:1;filter:url(#filter6697)"/><path id="path14523" d="m 89.172,120 c 0,0 11.914,-9.914 17.414,-15.414 5.5,-5.5 15.414,-17.414 15.414,-17.414 0,0 -13.75,8.828 -24,8.828 0,10.25 -8.828,24 -8.828,24 z" style="fill:url(#linearGradient3109);fill-opacity:1"/></g></g></g><g id="layer1-3" transform="translate(-0.04407759,-12.292898)"><g id="g8212" transform="translate(0.0226262,4.4088218)"><path id="path5115" d="m 70.60957,38.36776 a 28.050377,27.244333 0 1 1 -56.100754,0 28.050377,27.244333 0 1 1 56.100754,0 z" transform="matrix(0.953589,0,0,1.022431,33.68725,7.242793)" style="opacity:.18604653;fill:#000;fill-opacity:1;fill-rule:nonzero;stroke:none"/><path id="path4204" d="m 68.625525,37.277058 a 31.704993,31.979495 0 1 1 -63.4099851,0 31.704993,31.979495 0 1 1 63.4099851,0 z" transform="matrix(0.905391,0,0,-0.896549,40.39235,79.50629)" style="fill:url(#radialGradient4586-3);fill-opacity:1;fill-rule:nonzero;stroke:none"/><path id="path3308" d="m 68.625525,37.277058 a 31.704993,31.979495 0 1 1 -63.4099851,0 31.704993,31.979495 0 1 1 63.4099851,0 z" transform="matrix(0.819535,0,0,0.82685,43.22026,15.45043)" style="opacity:.57377044;fill:url(#radialGradient8247-2);fill-opacity:1;fill-rule:nonzero;stroke:#5c5c5c;stroke-width:4.54844522;stroke-linecap:round;stroke-linejoin:round;stroke-miterlimit:4;stroke-opacity:1;stroke-dasharray:none;stroke-dashoffset:4"/><path id="rect1410" d="m 104.34375,64.84375 c -1.97399,3.327187 -4.439438,6.301978 -7.5,9.0625 15.5571,14.009457 22.96362,19.934738 30.90625,26.59375 l 0,-16.4375 C 120.86532,78.313176 113.60701,72.292599 104.34375,64.84375 z" style="fill:url(#linearGradient8245-4);fill-opacity:1;fill-rule:nonzero;stroke:none"/><path id="path2286" d="m 104.28125,65.5 c -2.047,2.98561 -4.436865,5.927222 -6.9375,8.40625 9.77223,8.716517 20.1199,17.082278 30.40625,25.8125 l 0,-14.84375 C 119.94322,78.31197 112.02626,71.639051 104.28125,65.5 z" style="opacity:.8558139;fill:url(#radialGradient7294-8);fill-opacity:1;fill-rule:nonzero;stroke:none"/><path id="path2296" d="M 105.09375,70.96875 98.875,74.4375 c 9.65959,8.616049 19.17222,16.665001 28.875,25.125 l 0,-11.3125 C 120.30124,82.749873 112.9785,77.218574 105.09375,70.96875 z" style="opacity:.74418604;fill:url(#radialGradient7291-4);fill-opacity:1;fill-rule:nonzero;stroke:none"/><path id="path2300" d="m 104.22887,64.730993 c -3.06056,2.760527 -5.542838,5.76653 -7.516829,9.093717 l 0.145803,0.122638 c 3.060565,-2.760526 5.542846,-5.766529 7.516836,-9.093717 l -0.14581,-0.122638 z" style="fill:#000;fill-opacity:1;fill-rule:nonzero;stroke:none"/><path id="path3199" d="m 59.107132,51.796238 a 5.2844129,1.8535739 0 1 1 -10.568825,0 5.2844129,1.8535739 0 1 1 10.568825,0 z" transform="matrix(0.524806,-0.655346,0.156372,0.12597,65.63753,97.1166)" style="fill:url(#radialGradient4594-1);fill-opacity:1;fill-rule:nonzero;stroke:none"/><path id="rect3213" d="m 97.771091,62.031397 c -1.649923,2.165908 -3.215154,4.045623 -4.714857,5.703944 l 5.104125,4.293201 c 1.872751,-1.875635 3.582091,-3.663633 4.825801,-5.592912 l -5.215069,-4.404233 z" style="fill:url(#linearGradient7286-0);fill-opacity:1;fill-rule:nonzero;stroke:none"/><path id="path3284" d="m 95.919395,54.891689 a 38.931992,38.931992 0 1 1 -77.863983,0 38.931992,38.931992 0 1 1 77.863983,0 z" transform="matrix(0.699489,0,0,0.701207,34.38364,8.113063)" style="fill:none;stroke:#000;stroke-width:2.28457904;stroke-linecap:round;stroke-linejoin:round;stroke-miterlimit:4;stroke-opacity:1;stroke-dasharray:none;stroke-dashoffset:4"/><path id="path5140" d="m 95.919395,54.891689 a 38.931992,38.931992 0 1 1 -77.863983,0 38.931992,38.931992 0 1 1 77.863983,0 z" transform="matrix(0.699489,0,0,0.701207,34.38364,8.113063)" style="opacity:.28837208;fill:none;stroke:url(#linearGradient4598-2);stroke-width:.83672702;stroke-linecap:round;stroke-linejoin:round;stroke-miterlimit:4;stroke-opacity:1;stroke-dasharray:none;stroke-dashoffset:4"/><g id="g5150" transform="matrix(-0.821138,0,0,-1.072611,104.3961,74.43272)"><path id="path5152" d="M 9.622763,14.273311 C 16.523861,6.0826761 26.348399,1.7526092 37.116371,1.7526092 c 10.767972,0 21.292506,5.4482232 27.297226,13.2275148 0,0 0,0 0,0" style="fill:none;stroke:url(#linearGradient4600-9);stroke-width:.414;stroke-linecap:butt;stroke-linejoin:miter;stroke-miterlimit:4;stroke-opacity:1;stroke-dasharray:none"/><path id="path5154" d="M 9.622763,14.573311 C 16.523861,6.3826761 26.348399,2.0526092 37.116371,2.0526092 c 10.767972,0 21.292506,5.4482232 27.297226,13.2275148 0,0 0,0 0,0" style="fill:none;stroke:url(#linearGradient4602-8);stroke-width:.91399997;stroke-linecap:butt;stroke-linejoin:miter;stroke-miterlimit:4;stroke-opacity:1;stroke-dasharray:none"/><path id="path5156" d="M 9.622763,14.473311 C 16.523861,6.2826761 26.348399,1.9526092 37.116371,1.9526092 c 10.767972,0 21.292506,5.4482232 27.297226,13.2275148 0,0 0,0 0,0" style="fill:none;stroke:url(#linearGradient4604-7);stroke-width:.61400002;stroke-linecap:butt;stroke-linejoin:miter;stroke-miterlimit:4;stroke-opacity:1;stroke-dasharray:none"/></g><path id="path5174" d="m 70.959349,27.809845 a 30.480581,14.380795 0 1 1 -60.9611629,0 30.480581,14.380795 0 1 1 60.9611629,0 z" transform="matrix(0.672467,0,0,1.031864,46.83802,8.438657)" style="opacity:.83255813;fill:url(#radialGradient4606-1);fill-opacity:1;fill-rule:nonzero;stroke:none"/><g id="g5127" transform="matrix(0.820027,0.0383867,-0.03821447,0.889464,44.69142,15.56855)" style="opacity:.77209299"><path id="path5109" d="M 9.622763,14.273311 C 16.523861,6.0826761 26.348399,1.7526092 37.116371,1.7526092 c 10.767972,0 21.292506,5.4482232 27.297226,13.2275148 0,0 0,0 0,0" style="fill:none;stroke:url(#linearGradient7300-2);stroke-width:.414;stroke-linecap:butt;stroke-linejoin:miter;stroke-miterlimit:4;stroke-opacity:1;stroke-dasharray:none"/><path id="path5119" d="M 9.622763,14.573311 C 16.523861,6.3826761 26.348399,2.0526092 37.116371,2.0526092 c 10.767972,0 21.292506,5.4482232 27.297226,13.2275148 0,0 0,0 0,0" style="fill:none;stroke:url(#linearGradient7302-2);stroke-width:.91399997;stroke-linecap:butt;stroke-linejoin:miter;stroke-miterlimit:4;stroke-opacity:1;stroke-dasharray:none"/><path id="path5123" d="M 9.622763,14.473311 C 16.523861,6.2826761 26.348399,1.9526092 37.116371,1.9526092 c 10.767972,0 21.292506,5.4482232 27.297226,13.2275148 0,0 0,0 0,0" style="fill:none;stroke:url(#linearGradient7304-6);stroke-width:.61400002;stroke-linecap:butt;stroke-linejoin:miter;stroke-miterlimit:4;stroke-opacity:1;stroke-dasharray:none"/></g><path id="path3296" d="m 97.771091,62.031397 c -1.649923,2.165908 -3.215154,4.045623 -4.714857,5.703944 l 5.104125,4.293201 c 1.872751,-1.875635 3.582091,-3.663633 4.825801,-5.592912 l -5.215069,-4.404233 z" style="fill:url(#linearGradient3405);fill-opacity:1;fill-rule:nonzero;stroke:none"/></g></g></svg>